<svg width="87" height="106" viewBox="0 0 87 106" fill="none" xmlns="http://www.w3.org/2000/svg">
<g id="Group 3678 1" clip-path="url(#clip0_142_5815)">
<path id="Vector" d="M14.1014 34.1369C14.1595 34.1605 14.2199 34.1773 14.2817 34.1869C17.7579 34.1977 21.2338 34.2228 24.7095 34.209C26.4671 34.2025 28.0626 33.5389 29.6435 32.8301C30.7167 32.3494 31.7956 31.8688 32.9044 31.4929C33.4156 31.3202 34.0132 31.3536 34.5635 31.3774C35.0397 31.3989 35.4582 31.3441 35.8614 31.0671C37.7544 29.7668 39.8413 29.1849 42.1143 29.4446C42.9144 29.5358 43.7068 29.7425 44.4859 29.9628C45.6098 30.2791 46.7554 30.2648 47.9015 30.2981C49.7334 30.3517 51.5558 30.4768 53.3229 31.0409C54.5012 31.4151 55.5864 32.045 56.5038 32.8873C57.1644 33.4877 57.9383 33.9511 58.8118 33.9595C63.7675 33.9964 68.7232 33.9773 73.757 33.9773C72.7591 25.3449 68.5919 18.5506 61.868 13.2293C62.1324 12.8671 62.3827 12.5265 62.6313 12.1846C62.8799 11.8427 63.1309 11.4954 63.3941 11.1321C65.1181 12.4398 66.7195 13.9082 68.1775 15.5182C72.283 20.0308 74.8553 25.3461 76.0434 31.362C77.214 37.2926 76.6218 43.0738 74.5413 48.7203C72.6389 53.8843 69.7315 58.345 65.5702 61.8836C61.0376 65.7361 55.873 68.2937 50.0589 69.4284C46.616 70.0997 43.1682 70.1336 39.7019 69.6487C34.8214 68.9656 30.2271 67.4449 26.1106 64.6533C18.7495 59.6631 13.959 52.8265 12.105 43.9368C11.6486 41.749 11.3574 39.5393 11.3843 37.3045C11.4911 28.5416 14.5273 21.0022 20.5533 14.747C21.5033 13.7606 22.5485 12.8671 23.5709 11.9558C24.1819 11.4114 24.525 11.471 25.0211 12.1166C25.1662 12.3193 25.3221 12.5138 25.4879 12.6991C25.9547 13.1847 25.9635 13.3144 25.4588 13.7766C24.7111 14.4617 23.9304 15.1103 23.1992 15.8131C18.7057 20.1308 15.8002 25.3515 14.6289 31.5561C14.4673 32.4186 14.2788 33.2739 14.1014 34.1369ZM46.6288 32.4436C46.3953 32.0362 46.18 31.6127 45.9116 31.2297C45.8503 31.1523 45.7746 31.088 45.6886 31.0407C45.6027 30.9935 45.5085 30.9641 45.4115 30.9545C44.6756 30.9242 43.9379 30.9367 43.2014 30.9461C43.0748 30.9461 42.9488 31.0093 42.8222 31.0427C42.8222 31.0921 42.8222 31.141 42.8222 31.1898C43.1087 31.2887 43.4145 31.3506 43.6777 31.4941C44.1089 31.7288 44.755 31.627 44.9219 32.2906C44.0804 32.1565 43.237 32.0338 42.3985 31.8849C41.2185 31.6752 40.0852 31.8014 39.0273 32.3817C37.7189 33.0963 37.0291 34.2841 36.6574 35.7136C36.3276 36.9811 35.8929 37.2193 34.6219 37.0383C34.218 36.9787 33.7903 37.0942 33.3736 37.1294C33.3503 37.1978 33.3264 37.2657 33.3024 37.3343C33.5633 37.6774 33.7547 38.1563 34.0973 38.3379C35.2061 38.9239 36.3229 38.8906 37.3652 38.0937C38.1682 37.4796 38.9817 36.8787 39.7952 36.2789C40.3881 35.8417 40.9892 35.4152 41.5908 34.981C41.693 35.0906 41.7554 35.153 41.8132 35.2192C42.6302 36.1603 43.4868 36.2841 44.5559 35.6159C46.0458 34.6819 48.1454 34.7862 49.5203 35.9C51.6871 37.6553 53.8544 39.4113 55.9863 41.2106C56.6866 41.7991 57.2957 42.3458 58.1565 41.5382C58.1863 41.5102 58.2557 41.5257 58.422 41.5096V44.4955C59.3189 44.0012 59.5956 43.1988 59.77 42.3209C59.8868 41.7253 60.0356 41.1296 60.1786 40.4958C61.3277 41.238 61.4893 42.6061 60.6344 43.7033C60.0969 44.393 59.5198 45.0506 58.9683 45.7285C58.3112 46.5378 58.2721 47.2675 58.8236 48.1395C59.2267 48.7774 59.4724 48.8001 60.133 48.4564C60.6583 48.1836 61.2331 47.85 61.791 47.8399C63.8871 47.8018 65.9874 47.8536 68.083 47.9393C68.855 47.971 69.6295 48.1741 69.9318 49.2497C69.4789 49.3504 69.0347 49.5291 68.5895 49.5333C66.2284 49.5554 63.8627 49.4737 61.5068 49.5524C60.2451 49.5947 59.0559 50.0372 58.2044 51.101C58.9665 52.0962 59.3026 52.3285 60.3315 52.3708C63.08 52.4846 65.831 52.5591 68.5796 52.6729C69.3966 52.7068 69.9318 52.3506 70.342 51.6526C71.962 48.8996 72.9621 45.9137 73.5066 42.7705C73.7634 41.2875 73.904 39.7817 74.0522 38.2814C74.1194 37.6041 73.9046 37.3879 73.2475 37.2544C73.0914 37.2272 72.9332 37.2131 72.7748 37.2121C69.989 37.1258 67.2024 37.0519 64.417 36.9477C63.7978 36.9251 63.2499 37.0394 62.7054 37.3516C60.3524 38.6995 57.3366 38.1258 55.7394 35.922C54.1212 33.6885 52.0046 32.6407 49.3137 32.6551C48.418 32.6604 47.5233 32.5186 46.6288 32.4436ZM30.4056 54.6557C30.4908 53.6782 30.5807 52.7538 30.6489 51.8282C30.6968 51.1921 30.7983 50.5947 31.2653 50.1056C32.374 48.9466 33.4506 47.7583 34.5641 46.6046C34.9525 46.2128 35.3717 45.8542 35.8176 45.5325C36.4717 45.0476 36.9719 45.097 37.5712 45.6516C37.7027 45.7713 37.8274 45.8985 37.9447 46.0328C38.5324 46.7172 39.1889 47.2634 40.0783 47.5356C41.0208 47.8245 41.5191 48.5803 41.5202 49.5678C41.5202 50.7591 42.0454 51.5089 43.0772 52.0099C43.987 52.4525 44.2215 53.119 43.9187 54.1041C43.8399 54.3603 43.7203 54.6027 43.6269 54.8546C43.2464 55.8904 42.8403 56.9184 42.5111 57.9716C42.4242 58.2484 42.4726 58.7566 42.6506 58.8882C42.919 59.0865 43.3695 59.1383 43.7185 59.0859C44.2274 59.0103 44.5146 58.5499 44.515 57.9674C44.515 57.5051 44.4649 57.043 44.448 56.7654C44.8419 56.3485 45.279 56.0757 45.4097 55.6933C45.5305 55.3406 45.4015 54.8362 45.2434 54.4597C44.7263 53.2274 44.1579 52.0176 43.5867 50.8103C42.9365 49.4362 43.0176 48.1419 43.9263 46.9174C44.5425 46.0834 45.1401 45.2395 45.7936 44.4371C46.1613 43.9845 46.62 43.6086 47.0372 43.1982L47.2648 43.3281C47.189 43.745 47.168 44.184 47.0268 44.5789C46.6912 45.5153 46.8271 46.3509 47.4563 47.0888C47.7624 47.4352 48.0972 47.7541 48.4571 48.0419C50.1587 49.454 50.9664 51.2361 50.6647 53.4895C50.5894 54.0553 50.4832 54.6212 50.45 55.1875C50.4255 55.6046 50.6437 55.7534 51.0686 55.617C52.2678 55.2316 52.8811 53.8587 52.315 52.6067C51.8949 51.6787 51.9649 50.9431 52.7417 50.251C53.2901 49.7602 53.3701 49.0991 52.9318 48.4475C52.5578 47.8929 52.1114 47.3509 51.5897 46.9465C49.972 45.6927 48.5411 44.2852 47.5724 42.4365C46.8792 41.1117 46.3556 40.8758 44.8804 41.0069C44.1521 41.0712 43.4028 41.0135 42.6745 40.9176C42.3069 40.8688 41.9649 40.6126 41.6107 40.4506C41.6107 40.3832 41.6066 40.316 41.6042 40.2493C41.9095 40.0705 42.21 39.7435 42.5199 39.7335C44.5828 39.6686 46.6474 39.6608 48.7109 39.6674C48.9169 39.6674 49.2536 39.8461 49.3021 40.0122C49.4247 40.4265 49.4681 40.8611 49.4299 41.2922C49.326 42.3107 49.5997 42.9052 50.5007 43.3442C50.8007 43.4901 51.1146 43.6074 51.4269 43.7254C54.4276 44.8611 55.8094 47.7089 54.6277 50.8431C54.3879 51.4786 54.312 52.1988 54.2723 52.8861C54.2344 53.5549 54.5769 53.9582 55.1261 54.0648C55.5218 54.1405 55.9261 54.1666 56.3165 54.2143C56.4093 53.9546 56.4093 53.9546 55.8275 52.8343C56.0732 52.6627 56.3318 52.5061 56.5634 52.3154C57.0834 51.889 57.1172 51.5894 56.8055 50.9705C56.7391 50.8395 56.7513 50.6339 56.7957 50.4839C57.0186 49.731 57.2777 48.9895 57.496 48.236C57.633 47.7643 57.6418 47.2145 57.1931 46.968C56.1374 46.3895 56.2062 45.5617 56.5394 44.62C56.5569 44.5699 56.5862 44.5074 56.5716 44.4639C56.47 44.1578 56.4456 43.7545 56.2371 43.5658C53.7862 41.3458 51.2885 39.1772 48.8416 36.9543C47.9015 36.0995 46.9456 36.0793 45.876 36.5802C44.6266 37.1645 43.348 37.1866 42.0944 36.6338C41.6958 36.4581 41.4636 36.5403 41.1608 36.7833C39.508 38.1264 37.6368 39.1624 35.6326 39.8443C34.4929 40.232 33.1273 39.6489 32.3308 38.4981C31.6043 37.4474 31.6417 36.7113 32.472 35.5069C32.699 35.1793 32.9097 34.8398 33.128 34.5056L33.0345 34.3454C32.6897 34.4163 32.2882 34.3942 32.0104 34.5729C29.8162 35.9834 27.7288 37.5433 25.8287 39.3535C25.5404 39.6275 25.2282 39.8764 24.8821 40.176C24.7754 39.6506 24.6814 39.217 24.6014 38.7804C24.553 38.5184 24.4398 38.357 24.1521 38.3856C23.5254 38.4452 22.8992 38.5381 22.2707 38.5594C21.6969 38.5718 21.1229 38.5471 20.5521 38.4856C20.4494 38.4761 20.3642 38.2706 20.2714 38.1557C20.3707 38.0728 20.4576 37.955 20.5714 37.9138C20.9496 37.7756 21.3388 37.669 21.7222 37.5433C22.3005 37.354 22.8776 37.1591 23.4553 36.9668L23.4431 36.8125C23.1221 36.7625 22.7976 36.6559 22.4802 36.6731C20.7027 36.7703 18.9257 36.8822 17.1505 37.021C16.3965 37.0697 15.6468 37.1731 14.9072 37.3307C14.246 37.4802 13.9484 37.9532 14.0231 38.5976C14.0693 38.9972 14.1982 39.3868 14.2829 39.7483C16.515 39.606 18.6205 39.7716 20.778 40.6584C19.9896 41.0087 19.3476 41.247 18.6188 41.1225C17.65 40.9557 16.6831 40.7413 15.7062 40.6686C14.5898 40.5852 14.1218 41.1492 14.3441 42.2685C15.0159 45.6534 16.0563 48.9085 17.7364 51.9271C17.9786 52.3614 18.3352 52.5822 18.8195 52.693C20.4961 53.0708 22.1376 52.8915 23.7699 52.4465C24.5285 52.2392 24.6844 52.0194 24.6942 51.1219C24.3996 51.1075 24.0984 51.051 23.8085 51.0861C22.7265 51.2183 21.6422 51.3451 20.5708 51.5424C19.818 51.6811 19.3616 51.2897 18.8522 50.7853C19.9149 50.5833 20.9104 50.391 21.9072 50.207C22.9254 50.0187 23.9432 49.8246 24.9656 49.6602C25.9712 49.4988 26.9789 49.323 27.9926 49.2432C28.8586 49.1748 29.2642 49.575 29.361 50.4458C29.4194 50.9627 29.4346 51.4846 29.4719 52.0039C29.5338 52.8741 29.5973 53.7438 29.661 54.6206L30.4056 54.6557ZM67.8577 55.5598C66.7222 55.5086 65.6647 55.4902 64.6125 55.4055C63.3509 55.3043 62.0968 55.1114 60.8345 55.022C59.1906 54.9028 57.9009 55.5729 56.9748 56.9792C56.4024 57.847 55.8205 57.9584 54.9807 57.3181C54.4555 56.9161 53.9887 56.9328 53.425 57.2287C51.6363 58.1723 49.8307 59.0818 48.0287 59.9996C47.9062 60.0592 47.7597 60.1289 47.6308 60.1188C46.732 60.0377 46.1036 60.4761 45.5299 61.1313C44.9854 61.7514 44.2927 62.1189 43.4559 61.7925C43.0428 61.6311 42.7352 61.6996 42.3863 61.9378C41.6066 62.4697 40.7452 62.6723 39.8291 62.3935C39.3114 62.2362 38.8265 61.9622 38.306 61.8216C37.9604 61.7281 37.4889 61.6299 37.2281 61.7919C36.4858 62.2511 35.8345 62.1921 35.1827 61.693C34.6237 61.2654 34.0226 60.8895 33.3211 60.902C32.5274 60.9157 31.8039 60.7234 31.0674 60.4667C30.2177 60.1688 29.3826 60.2224 28.5919 60.7334C28.4168 60.8466 28.1473 60.8824 27.9366 60.8525C25.6992 60.5119 24.1253 59.3039 23.3159 57.1145C23.1618 56.6975 23.0241 56.2567 22.7819 55.8964C22.5999 55.6265 22.2632 55.3049 21.986 55.2953C21.4024 55.2764 20.8188 55.4478 20.1506 55.5538C32.112 71.3111 55.8509 71.3981 67.856 55.5598H67.8577ZM47.919 53.5788C48.2919 53.4078 48.6368 53.2733 48.9601 53.0969C50.1232 52.4632 50.3099 51.6567 49.4065 50.6881C48.7209 49.9526 47.9184 49.3242 47.1306 48.7001C46.8074 48.4445 46.3913 48.295 45.9974 48.1573C45.8286 48.0979 45.4984 48.124 45.429 48.2342C45.0205 48.8823 44.5927 49.5648 44.958 50.382C45.2895 51.1301 45.6845 51.8515 46.0346 52.59C46.5885 53.7539 46.8214 54.9517 46.421 56.2287C46.3043 56.5986 46.2109 56.9965 46.215 57.3801C46.2231 58.1382 46.718 58.3992 47.3483 58.0055C48.0357 57.5766 48.4927 56.9744 48.6724 56.1495C48.8884 55.1542 48.4629 54.3697 47.919 53.5788ZM40.3379 52.0248C40.3081 51.9503 40.2796 51.8765 40.2499 51.802C40.0876 51.802 39.8688 51.7323 39.7719 51.8134C39.1807 52.3094 38.666 52.1462 38.1519 51.6942C38.0206 51.5787 37.8694 51.4525 37.7084 51.4137C37.4989 51.3636 37.2351 51.3196 37.0559 51.4059C36.3341 51.755 35.9991 52.478 35.5854 53.1172C35.4016 53.4024 35.4103 53.6467 35.6017 53.9469C35.7674 54.2077 35.8596 54.5311 35.9268 54.8404C36.1159 55.7094 35.8474 56.5265 35.4832 57.2753C34.9743 58.3223 35.758 59.2795 36.5867 59.5642C37.3909 59.8406 38.0457 59.2176 37.8607 58.3777C37.8345 58.2192 37.7896 58.0644 37.7271 57.9168C37.1762 56.8094 37.4452 55.8607 38.1817 54.9386C38.935 53.9957 39.6219 52.9981 40.3379 52.0248ZM25.4838 53.2125C25.607 54.6932 25.7173 56.137 25.8533 57.5772C25.9116 58.189 26.3201 58.535 26.8756 58.6595C27.7288 58.85 28.5598 58.744 29.3015 58.2556C29.8973 57.8632 30.0958 57.2568 30.0496 56.5015C29.9403 56.5273 29.8326 56.5595 29.727 56.598C29.2956 56.7933 28.8767 57.0215 28.4349 57.1883C27.9295 57.3789 27.6442 57.1757 27.636 56.6277C27.639 56.3048 27.6712 55.9828 27.7323 55.6658C27.8537 54.9362 27.9932 54.2101 28.128 53.4674L25.4838 53.2125ZM41.2915 60.2599C41.3621 59.6178 41.5424 59.0764 41.445 58.5922C41.3066 57.9066 41.2844 57.2859 41.6154 56.6731C41.8692 56.2031 42.1551 55.7505 42.3886 55.271C42.447 55.1459 42.4277 54.8725 42.3389 54.7944C41.9387 54.4538 41.501 54.1595 41.0843 53.854C40.1711 54.4954 39.6306 55.3346 39.6254 56.4336C39.6211 57.2386 39.6893 58.0423 39.8291 58.8346C39.8874 59.1509 40.1839 59.4469 40.4266 59.6971C40.6163 59.896 40.8905 60.008 41.2915 60.2599ZM33.8966 49.3564C33.3427 50.0544 32.7189 50.6811 32.2829 51.4226C31.5243 52.7097 31.7881 53.3811 33.2085 53.6669C33.4553 53.7169 33.8632 53.6109 34.0021 53.4251C34.7135 52.4762 35.3554 51.4786 36.019 50.4994C35.3257 49.9966 34.4141 50.1628 33.8966 49.3564ZM37.0478 46.6934C36.3306 46.8821 35.6035 46.9911 35.2906 47.7518C35.1915 47.9901 35.1809 48.3903 35.3152 48.5809C35.5176 48.8691 35.8812 48.9424 36.257 48.7548C37.0005 48.3819 37.2392 47.8203 37.0478 46.6934ZM40.3677 49.9348C40.0712 49.5428 39.832 49.2272 39.5934 48.9109C39.532 48.9459 39.4734 48.9857 39.4182 49.03C39.1807 49.2682 38.942 49.5064 38.7115 49.7537C38.2377 50.2588 38.2447 50.3415 38.8446 50.8669L40.3677 49.9348ZM28.2879 51.5197L27.4918 50.9294C26.4496 52.0123 26.4152 52.1416 27.0332 52.6567C27.2888 52.4184 27.5468 52.1803 27.8076 51.942C27.9511 51.808 28.0994 51.6847 28.289 51.5197H28.2879ZM47.3442 32.2721V32.3149H47.5007V32.2739L47.3442 32.2721Z" fill="#252223"/>
<path id="Vector_2" d="M33.9275 71.3671C34.605 71.7018 35.2791 72.0444 35.9613 72.369C36.9732 72.8502 37.2906 72.8156 37.9583 71.952C39.3879 70.1002 42.0467 70.9627 42.9186 72.8413C43.0533 73.1308 43.1432 73.4423 43.2488 73.7454C43.3072 73.914 43.3177 74.1129 43.4145 74.2517C43.5814 74.4899 43.8511 74.9068 43.9836 74.8717C44.2619 74.7985 44.553 74.5257 44.7037 74.2559C44.9166 73.8735 44.9803 73.4083 45.1548 72.9991C45.7728 71.5506 47.1102 70.7565 48.6404 70.9531C49.3647 71.046 49.8846 71.497 50.2657 72.1223C50.7815 72.9682 50.9542 73.0158 51.8266 72.5524C52.6507 72.1156 53.4743 71.6788 54.2975 71.2421L54.4382 71.3284C54.2246 71.8424 54.0716 72.3951 53.7863 72.864C52.5818 74.8474 50.778 75.9243 48.561 76.34C48.3206 76.3852 48.0686 76.4174 47.8485 76.5187C47.1324 76.8439 47.0315 77.3347 47.5328 77.941C48.7921 79.4658 48.8749 80.6333 47.9611 82.3844C47.7942 82.7042 47.8654 83.2129 47.9576 83.6025C48.1572 84.4482 47.8485 84.8574 47.0146 84.6322C46.4736 84.4803 45.9589 84.2441 45.4886 83.9318C44.8589 83.5191 44.6715 82.8067 44.8974 82.0217C45.0835 81.3665 45.3677 80.7351 45.4717 80.0704C45.5668 79.4575 45.4792 78.8154 45.4717 78.1125C45.1688 78.1835 45.0182 78.2102 44.8724 78.2544C44.4229 78.3895 44.0087 78.3895 43.5535 78.1775C42.7726 77.8148 42.3759 78.1006 42.5031 78.975C42.6145 79.7494 42.8451 80.51 43.1024 81.2479C43.4017 82.108 43.5441 82.9306 42.9104 83.6829C42.2556 84.4614 41.3843 84.6764 40.4214 84.5429C39.8753 84.4666 39.7591 84.2022 40.0713 83.7347C40.3981 83.2433 40.3801 82.7287 40.1332 82.2545C39.3664 80.7828 39.5292 79.4461 40.5324 78.1488C41.1842 77.3061 40.9408 76.7449 39.916 76.4103C38.8528 76.0618 37.7569 75.7605 36.7707 75.2404C35.3555 74.4923 34.4989 73.1843 33.9572 71.6667C33.924 71.5737 33.9415 71.4618 33.9357 71.3581L33.9275 71.3671ZM47.7242 75.1433C48.8079 75.0505 49.5595 74.4387 49.6926 73.4756C49.7632 72.9658 49.5351 72.6673 49.0459 72.6655C48.1975 72.6655 47.51 73.0152 47.0473 73.7377C46.8541 74.0403 46.759 74.4078 46.6196 74.7455L47.7242 75.1433ZM41.609 74.8086C41.3902 73.4541 40.4617 72.6102 39.2695 72.6644C38.8259 72.6835 38.638 72.8883 38.6549 73.3404C38.7093 74.7639 40.3077 75.5632 41.609 74.8086Z" fill="#2A8442"/>
<path id="Vector_3" d="M47.5245 5.74053C46.4928 5.54994 45.761 4.51949 44.6925 5.37899C44.8944 4.05253 45.6782 3.57484 46.8061 4.01798C47.9149 4.45458 49.0342 4.87866 50.1774 5.31884C50.1576 5.3629 50.1138 5.4725 50.0607 5.57734C49.6312 6.40704 49.6324 6.3975 48.7074 6.26349C48.4424 6.22537 48.1682 6.25753 47.8985 6.25753L47.8297 6.49162C48.0124 6.60122 48.1833 6.7656 48.3795 6.80968C48.8766 6.91988 49.3855 6.97348 49.8891 7.05568C50.0799 7.08665 50.3122 7.07593 50.4494 7.18433C50.9979 7.61736 51.4198 7.49405 51.8686 7.00564C52.1406 6.70783 52.4948 6.47733 52.8461 6.27839C53.6957 5.79712 54.2781 6.10506 54.3242 7.08189C54.3534 7.70729 54.3878 8.37558 54.2076 8.95334C54.0809 9.35301 53.5866 9.63116 53.1839 10.0368L51.4017 8.29934C51.0206 8.84374 50.4681 8.69841 49.8477 8.43336C49.469 8.27076 49.026 8.26777 48.614 8.1838C47.3751 7.93124 47.3757 7.92946 47.3255 6.7394C46.889 6.9574 46.4711 7.24926 46.0102 7.37434C45.5328 7.50359 45.0134 7.48036 44.5116 7.50597C44.1555 7.52384 43.795 7.48275 43.4412 7.51967C42.9032 7.57625 42.706 7.22186 42.5759 6.75488C42.2286 7.2701 41.924 7.60901 41.26 7.56315C40.6764 7.52265 40.2206 7.33146 39.7713 7.01637C39.6901 6.9568 39.6125 6.89724 39.5932 6.88175L39.0535 7.93363L37.8531 7.17003C37.4778 7.41305 37.0175 7.69538 36.5768 8.00391C36.4752 8.07539 36.365 8.25884 36.3854 8.36546C36.6095 9.5311 36.1169 10.2893 35.1378 10.8224C34.445 11.1994 33.7466 11.5235 32.9407 11.4776C32.2882 11.4425 31.791 11.1488 31.5401 10.5139C31.3504 10.0527 31.2726 9.55157 31.3132 9.05312C31.3539 8.55467 31.5118 8.07358 31.7735 7.6507C31.8029 7.77527 31.8248 7.90159 31.8388 8.02893C31.8476 8.29755 31.8115 8.57155 31.8512 8.83421C31.9994 9.8164 32.5928 10.309 33.516 10.0439C34.2618 9.82951 34.9499 9.39886 35.6565 9.04865C35.9594 8.89795 35.9775 8.64301 35.7925 8.38035C35.5357 8.01761 35.314 7.60604 34.9865 7.3249C34.6055 6.9973 34.5576 6.69055 34.7648 6.27303C34.8407 6.12054 34.8815 5.95138 34.9702 5.70956C35.2096 5.9895 35.4435 6.19023 35.5848 6.44457C35.7802 6.79718 36.0329 6.77454 36.3398 6.68282C37.1685 6.4404 37.6669 5.92339 37.7404 5.01506C37.7515 4.87687 37.8957 4.75061 38.0591 4.64696C38.2102 5.34445 37.9376 6.14854 38.9239 6.51782C38.9852 5.84417 39.0452 5.18541 39.1235 4.33486C39.3114 4.52188 39.4234 4.62136 39.5191 4.73571C39.546 4.76728 39.5244 4.83995 39.5267 4.89415C39.5623 5.86324 39.5629 5.86324 40.4972 5.85192C40.5661 5.85192 40.6782 5.83048 40.698 5.86382C41.1065 6.55357 41.742 6.00618 42.3348 6.26588C42.2666 5.34861 42.2106 4.53439 42.1441 3.72077C42.0968 3.14718 42.074 2.56763 41.969 2.00418C41.8265 1.23343 42.2239 0.721192 42.72 0.106506C42.7894 1.35315 42.8543 2.49794 42.916 3.64274C42.9541 4.34379 42.9716 5.04663 43.0369 5.74471C43.0485 5.8686 43.2394 6.05086 43.3695 6.07349C43.8866 6.16343 44.4135 6.19262 44.9346 6.25992C45.7942 6.37845 46.6107 6.27957 47.5245 5.74053ZM52.336 7.15217L52.3098 7.34336L53.411 8.59418C53.4611 7.93899 53.6537 7.39102 53.1653 7.05746C52.9884 6.93476 52.6179 7.11166 52.3372 7.15217H52.336Z" fill="#4A4A4A"/>
<path id="Vector_4" d="M65.765 6.67864C63.1483 6.94429 59.6241 5.81022 57.8156 3.1573C60.2444 2.47413 65.2293 4.6821 65.765 6.67864Z" fill="#2B8544"/>
<path id="Vector_5" d="M21.8056 6.68279C22.5718 4.6112 26.6492 2.73796 29.6254 3.09057C29.0098 5.04482 24.511 7.11045 21.8056 6.68279Z" fill="#2B8544"/>
<path id="Vector_6" d="M49.6604 16.6596C49.0903 16.5446 48.5627 16.4808 48.0609 16.326C47.594 16.1831 46.958 16.4844 46.6679 15.7721C46.4444 16.1622 46.1474 16.1223 45.7891 16.0794C45.2352 16.0127 44.6685 16.0508 44.1072 16.0568C43.879 16.0568 43.6515 16.1039 43.4227 16.1163C42.4125 16.1634 42.4125 16.1616 41.7268 16.961C41.7717 16.6512 41.7986 16.4636 41.8225 16.2986C41.3009 15.9222 40.8632 16.3046 40.4074 16.4666C39.892 16.6494 39.6284 16.4952 39.4965 15.946C39.3214 15.2158 39.0576 14.5082 38.8825 13.778C38.8107 13.4801 38.8703 13.1501 38.8703 12.8345L39.0827 12.8167C39.3027 13.6421 39.5332 14.4653 39.7386 15.2949C39.8477 15.7345 39.972 16.0443 40.4553 15.6309C40.5157 15.5935 40.5852 15.5743 40.656 15.5755C41.2494 15.5183 41.7746 15.3623 41.91 14.6005L42.0682 14.7005C42.0425 14.9388 42.0168 15.1771 41.9784 15.5344C42.1978 15.4362 42.4008 15.3832 42.562 15.267C42.9616 14.9733 43.3457 14.6559 43.729 14.339C44.4205 13.7654 45.4646 14.2228 45.3905 15.2217L46.525 15.4659C46.7834 15.1086 46.5745 14.4749 47.2252 14.4927C47.2357 14.5183 47.2648 14.5522 47.259 14.5821C47.0734 15.4862 47.074 15.4755 47.9593 15.5994C48.4116 15.6652 48.8597 15.7577 49.3015 15.8764C49.7532 15.9955 49.8303 15.8096 49.7432 15.4087C49.5449 15.4623 49.3633 15.5667 49.1959 15.5464C48.6252 15.4778 48.4373 15.0418 48.7547 14.5439C48.8688 14.3656 49.0151 14.2112 49.186 14.0889C49.6283 13.7786 49.9447 13.8946 50.1145 14.4069C50.3893 15.2367 50.0754 15.946 49.6604 16.6596ZM44.9172 15.3224C44.3249 14.4516 43.6783 14.5076 43.0982 15.3224H44.9172ZM49.717 15.152C49.5711 14.4039 49.4252 14.3366 48.8937 14.7292L49.717 15.152Z" fill="#4F4F4F"/>
<path id="Vector_7" d="M81.0235 18.1437C82.3308 20.5661 82.5508 22.941 81.2138 25.368C79.5932 24.1143 79.4876 20.4875 81.0235 18.1437Z" fill="#2B8544"/>
<path id="Vector_8" d="M76.4327 12.2756C78.2499 13.2078 79.5735 17.0943 78.656 18.8019C76.6242 17.5899 75.4576 14.1484 76.4327 12.2756Z" fill="#2C8544"/>
<path id="Vector_9" d="M1.01491 34.757C3.00954 35.1281 4.67853 38.6023 4.08913 41.095C2.34661 40.3964 0.788483 37.2074 1.01491 34.757Z" fill="#2D8645"/>
<path id="Vector_10" d="M17.537 9.20467C17.1867 6.55771 18.5768 3.70228 20.5848 2.88687C21.0862 5.13417 19.8817 7.8943 17.537 9.20467Z" fill="#2D8645"/>
<path id="Vector_11" d="M6.00206 25.7398C4.53381 24.1763 4.56533 20.699 6.03124 18.7305C7.46097 20.5114 7.48548 23.4288 6.00206 25.7398Z" fill="#2D8645"/>
<path id="Vector_12" d="M10.4412 12.6445C11.5057 14.6725 10.3543 18.0932 8.24469 19.2588C7.42127 17.7543 8.62284 14.0924 10.4412 12.6445Z" fill="#2B8544"/>
<path id="Vector_13" d="M74.5028 13.5045C73.0392 13.0149 71.0632 10.4495 71.7653 7.31952C73.4091 7.65903 75.1062 11.1619 74.5028 13.5045Z" fill="#2B8544"/>
<path id="Vector_14" d="M66.3667 2.28885C68.247 3.12272 69.7964 6.1902 69.5921 8.61141C67.8939 8.43035 66.0838 5.43911 66.3667 2.28885Z" fill="#2C8544"/>
<path id="Vector_15" d="M79.6125 25.8518C77.1142 25.4998 74.9515 23.4442 74.5198 21.0523C76.4168 20.8491 79.0225 23.2894 79.6125 25.8518Z" fill="#2C8544"/>
<path id="Vector_16" d="M83.0433 32.7944C81.8225 31.0611 82.4702 27.7399 84.3465 25.987C85.3776 26.9489 84.9189 31.1236 83.0433 32.7944Z" fill="#2E8646"/>
<path id="Vector_17" d="M66.8231 12.1583C68.6479 11.2769 71.6142 12.4335 73.2908 14.6505C71.4088 15.2062 68.1916 14.4283 66.8231 12.1583Z" fill="#2D8645"/>
<path id="Vector_18" d="M5.7447 40.6757C5.00999 38.7025 6.41054 35.3204 8.30538 34.4282C9.27001 36.4408 7.65062 39.5982 5.7447 40.6757Z" fill="#2C8544"/>
<path id="Vector_19" d="M7.57774 26.2831C7.72305 24.1465 9.88399 21.7277 12.4552 21.3895C12.1261 23.9411 10.0982 25.6476 7.57774 26.2831Z" fill="#2C8544"/>
<path id="Vector_20" d="M12.4634 13.975C12.0986 11.2875 13.1052 9.22845 15.083 7.56903C15.9916 9.40951 14.6826 13.1263 12.4634 13.975Z" fill="#2B8544"/>
<path id="Vector_21" d="M2.63901 26.5373C4.63071 27.8233 4.88865 30.9449 4.13702 33.275C2.64951 32.3572 1.46196 28.4374 2.63901 26.5373Z" fill="#2C8544"/>
<path id="Vector_22" d="M4.53618 55.9464C6.99008 55.9559 9.41304 57.9638 10.076 60.2945C7.81465 60.2856 5.47689 58.5224 4.53618 55.9464Z" fill="#318849"/>
<path id="Vector_23" d="M9.46561 27.5243C9.7574 30.0498 7.5982 32.9064 5.78915 33.1911C5.39407 30.9372 7.72483 27.899 9.46561 27.5243Z" fill="#2B8544"/>
<path id="Vector_24" d="M84.5886 48.4725C84.2204 51.0932 82.4592 53.387 80.3823 53.9951C79.8815 52.0182 82.1301 49.0454 84.5886 48.4725Z" fill="#33894B"/>
<path id="Vector_25" d="M13.6964 15.1568C15.0053 13.1549 17.5894 11.8808 20.2225 12.5092C18.9064 14.6725 16.0453 15.6077 13.6964 15.1568Z" fill="#2C8544"/>
<path id="Vector_26" d="M14.4241 65.6253C12.7545 66.3043 9.20586 64.3828 8.33051 62.3255C10.6298 61.9176 13.3667 63.3887 14.4241 65.6253Z" fill="#2F8747"/>
<path id="Vector_27" d="M20.069 70.7762C18.4746 71.6399 14.7585 70.4326 13.516 68.6719C14.8139 67.4724 18.8405 68.8363 20.069 70.7762Z" fill="#368B4D"/>
<path id="Vector_28" d="M85.9594 41.1064C86.4846 43.4246 85.0303 46.651 83.1758 47.2711C82.4562 45.3413 84.1649 41.5579 85.9594 41.1064Z" fill="#33894B"/>
<path id="Vector_29" d="M55.6173 75.9654C57.8887 74.4931 60.9191 74.4591 62.8227 75.8588C60.7667 77.2455 58.031 77.3717 55.6173 75.9654Z" fill="#2D8645"/>
<path id="Vector_30" d="M1.04998 41.5561C2.77967 42.2059 4.26776 44.7284 3.90946 47.7149C2.22703 47.2223 0.454158 44.1678 1.04998 41.5561Z" fill="#2D8645"/>
<path id="Vector_31" d="M77.5952 27.2765C79.2029 27.2539 81.4188 30.3535 81.3241 32.9522C79.4574 32.7063 77.3051 29.4315 77.5952 27.2765Z" fill="#2C8544"/>
<path id="Vector_32" d="M2.47148 49.0574C4.67853 49.3004 6.93052 52.1666 6.75311 54.4628C4.68203 53.8945 2.53452 51.2034 2.47148 49.0574Z" fill="#2E8646"/>
<path id="Vector_33" d="M15.5638 64.5646C13.7454 63.3048 12.8334 59.4947 13.9298 57.8626C15.5842 59.1033 16.3213 61.4793 15.5638 64.5646Z" fill="#2F8747"/>
<path id="Vector_34" d="M25.8189 74.4007C23.4099 75.284 20.6992 74.9636 18.8347 73.599C20.1763 72.1546 23.8878 72.4916 25.8189 74.4007Z" fill="#2F8747"/>
<path id="Vector_35" d="M81.5237 47.043C79.595 46.1066 78.0036 42.7902 78.8948 40.8926C80.7435 41.7259 82.0407 44.7332 81.5237 47.043Z" fill="#33894B"/>
<path id="Vector_36" d="M72.573 65.2292C73.5978 63.0213 76.1783 61.5787 78.4811 61.8973C78.0813 63.8754 74.699 65.6545 72.573 65.2292Z" fill="#318849"/>
<path id="Vector_37" d="M82.4067 55.5372C81.945 57.5766 79.1544 59.8853 77.0886 59.9645C77.1008 58.0132 79.9399 55.5444 82.4067 55.5372Z" fill="#308748"/>
<path id="Vector_38" d="M20.8246 69.5499C18.9754 68.4743 17.5934 65.4056 17.9436 63.2148C20.0334 63.6652 21.1847 66.8655 20.8246 69.5499Z" fill="#2E8646"/>
<path id="Vector_39" d="M77.6272 46.6177C79.326 47.7101 79.9031 50.8276 78.8417 53.1696C77.2339 51.8569 76.3994 48.8167 77.6272 46.6177Z" fill="#318849"/>
<path id="Vector_40" d="M71.1772 16.7517C73.5365 16.3509 76.648 17.9085 77.1243 19.6978C74.7737 20.244 72.2532 18.9788 71.1772 16.7517Z" fill="#2C8544"/>
<path id="Vector_41" d="M15.8299 17.0282C15.2966 19.2678 12.3286 20.3214 9.64415 20.2785C10.2662 18.4928 13.5534 16.7649 15.8299 17.0282Z" fill="#2C8544"/>
<path id="Vector_42" d="M61.8592 7.91278C64.0184 7.05984 67.0886 7.97233 68.2825 9.79495C66.0645 10.5192 62.9108 9.88668 61.8592 7.91278Z" fill="#2C8544"/>
<path id="Vector_43" d="M11.2542 59.4845C9.81223 57.7148 9.58523 54.5158 10.7366 52.5115C12.3437 53.5693 12.5778 56.557 11.2542 59.4845Z" fill="#2D8645"/>
<path id="Vector_44" d="M83.2078 40.5197C82.3436 38.4946 83.6111 35.3973 85.8339 34.1381C86.3036 36.2735 85.0169 39.3963 83.2078 40.5197Z" fill="#33894B"/>
<path id="Vector_45" d="M55.6787 74.3752C55.3402 72.3113 57.371 70.0455 59.9388 69.2528C60.0444 71.1075 57.842 74.047 55.6787 74.3752Z" fill="#2C8544"/>
<path id="Vector_46" d="M26.1414 72.6568C23.8818 72.291 22.3343 69.4266 22.2146 67.3063C24.179 67.3651 26.1998 70.2767 26.1414 72.6568Z" fill="#2D8645"/>
<path id="Vector_47" d="M18.5616 10.2035C20.4635 8.17838 23.2249 7.53749 25.331 8.26118C24.3412 10.0171 21.5326 10.8331 18.5616 10.2035Z" fill="#2D8645"/>
<path id="Vector_48" d="M78.666 34.0731C80.1424 34.5663 81.9707 37.6571 81.3183 40.3166C79.5524 39.6911 78.1308 36.3699 78.666 34.0731Z" fill="#318849"/>
<path id="Vector_49" d="M49.5858 77.2782C51.5267 76.0273 54.6045 76.4514 56.1894 78.2907C54.4545 79.2753 50.9053 78.9162 49.5858 77.2782Z" fill="#2B8544"/>
<path id="Vector_50" d="M64.5998 66.8076C65.1093 68.6493 63.0824 71.6656 60.82 72.422C60.8515 69.7798 62.4593 67.5533 64.5998 66.8076Z" fill="#308748"/>
<path id="Vector_51" d="M61.2611 73.9158C62.8011 72.2392 66.1952 71.8312 68.1413 73.0611C66.6259 74.5067 63.6619 75.063 61.2611 73.9158Z" fill="#308748"/>
<path id="Vector_52" d="M69.0056 62.6199C69.2617 65.0024 68.3782 67.6082 66.3837 68.9775C65.4184 67.265 66.896 63.636 69.0056 62.6199Z" fill="#318849"/>
<path id="Vector_53" d="M30.7453 78.8274C32.0397 77.0572 35.5668 76.4836 37.5264 77.6957C36.0395 79.23 32.9046 79.7643 30.7453 78.8274Z" fill="#2A8442"/>
<path id="Vector_54" d="M7.99444 41.2494C8.78693 43.5383 7.49199 46.6588 5.42676 47.4439C4.95173 45.2341 6.05584 42.6312 7.99444 41.2494Z" fill="#2C8544"/>
<path id="Vector_55" d="M8.08073 53.7575C7.41896 51.2296 7.6057 48.9174 9.2391 46.8417C10.5189 48.4278 9.86936 52.3977 8.08073 53.7575Z" fill="#2E8646"/>
<path id="Vector_56" d="M71.55 63.9921C70.7581 61.7002 71.166 59.0484 73.048 57.3479C73.9986 58.6272 73.5207 62.6322 71.55 63.9921Z" fill="#318849"/>
<path id="Vector_57" d="M76.1369 52.0414C77.4417 53.7617 77.2859 56.7726 75.8101 58.8584C74.6144 57.6117 74.4632 54.3025 76.1369 52.0414Z" fill="#308748"/>
<path id="Vector_58" d="M27.0595 69.8626C29.0483 69.8745 31.1741 72.1891 31.5448 74.6938C29.731 74.8331 27.5969 72.546 27.0595 69.8626Z" fill="#2D8645"/>
<path id="Vector_59" d="M31.2764 76.3002C29.7719 77.6445 26.3131 77.7779 24.259 76.2882C25.8807 75.0214 29.0326 75.0023 31.2764 76.3002Z" fill="#2E8646"/>
<path id="Vector_60" d="M28.3679 21.9004L29.7532 20.7294C29.1639 20.1587 28.6491 19.5607 28.0335 19.1039C27.6874 18.8465 27.6361 18.6191 27.7031 18.2563L28.5172 18.3159L28.3946 18.4195C28.6631 18.8275 28.9251 19.2397 29.2018 19.6418C29.5006 20.0766 29.8355 20.4881 30.1034 20.9414C30.1681 21.051 30.0858 21.3757 29.9751 21.4489C29.3915 21.8307 29.0413 22.5484 28.2716 22.6616C28.1975 22.6729 28.1548 22.8629 28.086 22.9594C27.744 23.4276 27.3974 23.8921 27.0309 24.3889C27.8304 25.5605 28.0842 26.4349 26.1794 27.0365C26.9796 26.5367 26.969 25.8554 26.965 25.1661C26.965 24.7283 26.8156 24.5187 26.3475 24.5181C25.7639 24.5181 25.7639 24.4842 25.6099 23.9434C26.0068 23.8136 26.4538 23.7646 26.7771 23.5336C27.116 23.2953 27.3379 22.8868 27.6109 22.552L27.5118 22.3966L26.8558 22.5621C26.4076 21.9271 26.3657 21.7396 27.0256 21.2958C27.6372 20.8831 27.9547 21.0397 28.3679 21.9004Z" fill="#4D4D4D"/>
<path id="Vector_61" d="M70.8753 70.064C69.6849 70.569 68.4553 70.6846 67.1049 70.4809C67.9073 68.8245 69.2975 68.2843 70.8771 68.0484C71.0447 68.4748 71.212 68.9019 71.3824 69.3349L70.8753 69.5094V70.064Z" fill="#33894B"/>
<path id="Vector_62" d="M61.3627 21.7908C61.9387 21.4572 62.248 21.5477 62.5012 22.2422C62.7143 22.8272 62.9022 23.4216 63.117 24.0595C62.8041 24.2429 62.5083 24.4312 62.2288 23.8969C62.1283 23.7051 61.8594 23.5496 61.6381 23.4883C60.7868 23.2501 60.2516 22.5907 59.6721 21.9992C59.5449 21.8699 59.5963 21.5579 59.5625 21.3125C58.9013 21.7854 58.4985 21.1934 58.0358 20.8301C57.8141 20.6561 57.7848 20.4435 58.0189 20.2446C58.194 20.0986 58.369 19.9622 58.5885 19.7889C58.515 20.3112 59.165 21.0677 59.6063 20.9885C59.7813 20.9575 59.9511 20.7163 60.055 20.5304C60.4291 19.8592 60.4179 19.8526 60.9466 19.7626C60.6905 20.2123 60.4489 20.6167 60.23 21.0331C60.1629 21.1617 60.0824 21.4042 60.1378 21.4602C60.7021 22.0272 61.2927 22.5662 61.8763 23.1136L62.0916 22.9255L61.3627 21.7908Z" fill="#4F4F4F"/>
<path id="Vector_63" d="M64.8787 27.7882C65.8707 27.3474 66.5522 26.3973 67.7188 26.0948C67.6179 26.5272 67.5543 26.8 67.5263 26.9209C67.0402 27.1037 66.6416 27.2235 66.2699 27.401C65.7662 27.6392 65.2883 27.9371 64.7875 28.1854C64.5086 28.323 64.2747 28.245 64.165 27.9168C64.1382 27.851 64.1054 27.7879 64.0669 27.7286C63.9093 27.4504 63.809 27.0686 63.572 26.9275C63.3794 26.8125 63.0218 26.9871 62.7364 27.0293C62.06 27.1252 61.5791 26.8239 61.355 26.1561C61.2743 25.9149 61.2224 25.6648 61.2004 25.411C61.7041 26.1287 62.3512 26.529 63.2656 26.5135C63.2376 26.4066 63.2025 26.3018 63.1606 26.1996C62.7708 25.4146 63.0515 24.9154 63.9321 24.9172C64.186 24.9172 64.5308 25.0406 64.6627 25.2311C64.7625 25.374 64.6715 25.8006 64.5215 25.9507C64.155 26.3175 64.1906 26.6255 64.4532 27.009C64.623 27.2521 64.7421 27.5326 64.8787 27.7882ZM63.8539 26.1293C64.2122 25.4236 64.1381 25.262 63.5089 25.2632C63.617 25.5342 63.7103 25.7696 63.8539 26.1299V26.1293Z" fill="#4F4F4F"/>
<path id="Vector_64" d="M24.3196 27.7214C24.5362 28.5887 23.9363 29.2528 23.0359 29.1956C23.005 29.4482 23.0446 29.7412 22.9256 29.9288C22.7896 30.1444 22.3939 30.4495 22.3169 30.3976C22.0438 30.2124 21.7223 29.9176 21.6698 29.6185C21.5758 29.0825 21.7449 28.497 21.1538 28.1026L21.2706 28.0211C21.7374 28.1997 22.2107 28.3671 22.6676 28.5691C23.0948 28.7578 23.4017 28.7239 23.585 28.2301C23.6579 28.0335 23.7997 27.8633 23.9072 27.6863C23.7163 27.3194 23.0801 27.23 23.3667 26.5957L24.1289 27.1866L25.1355 25.7321C24.727 25.5957 24.196 25.7707 24.2398 25.143C24.9167 25.0489 25.2592 25.2419 25.7494 26.0049C25.0101 27.3671 24.786 27.6363 24.3196 27.7214ZM22.6962 29.0438L22.1085 28.7656V29.9252L22.6962 29.0438Z" fill="#4F4F4F"/>
<path id="Vector_65" d="M53.1193 15.7167C53.5336 15.5052 53.6264 15.0615 53.627 14.6516C53.6274 14.2419 53.823 14.0811 54.1573 13.9416C54.2577 14.196 54.3517 14.4324 54.4282 14.6237C54.008 15.1567 53.6007 15.6535 53.2225 16.1723C53.1543 16.2665 53.2319 16.4588 53.1962 16.5928C53.1028 16.9442 52.9844 17.289 52.8624 17.6816L51.1474 17.0722C51.2267 16.0925 52.2012 16.4297 52.7311 15.8727C52.4347 15.557 52.1581 15.1913 51.8132 14.9132C51.32 14.5147 51.2436 14.0894 51.7338 13.3252C52.2147 14.1554 52.6599 14.9226 53.1193 15.7167Z" fill="#505050"/>
<path id="Vector_66" d="M35.8585 17.1009C35.6362 16.7501 34.9913 16.6041 35.5294 16.024C35.7044 16.2307 35.9326 16.4321 36.0768 16.6846C36.4381 17.3195 36.3074 17.6756 35.6625 17.9472C35.5656 17.9878 35.4634 18.0182 35.3707 18.0664C34.8455 18.3362 34.3342 18.4833 34.0366 17.8936C33.8084 18.0903 33.6445 18.3231 33.4304 18.3904C33.1969 18.4649 32.7149 18.45 32.6898 18.3625C32.5947 18.0414 32.5072 17.5881 32.6623 17.3468C32.9646 16.8805 33.3341 16.4839 33.2792 15.8435C33.5488 16.2795 33.8318 16.7072 34.0834 17.1539C34.2951 17.5303 34.5146 17.7282 34.9547 17.4564C35.2173 17.2938 35.5347 17.2242 35.8585 17.1009ZM32.8736 17.7304C32.8934 17.7656 32.9133 17.8013 32.932 17.8366L33.8178 17.5387L33.4933 16.958L32.8736 17.7304Z" fill="#4F4F4F"/>
<path id="Vector_67" d="M70.8753 70.064V69.5124L71.3824 69.3379C71.212 68.9049 71.0445 68.4778 70.8771 68.0514C71.7828 67.8911 72.6826 67.9197 73.6817 68.1199C72.8303 69.0085 71.9567 69.6888 70.8753 70.064Z" fill="#3D8F54"/>
<path id="Vector_68" d="M57.6478 17.5697C57.7807 17.9074 57.8485 18.1451 57.9629 18.3571C58.2768 18.9396 58.1934 19.2196 57.5363 19.7545C57.1949 20.0326 56.5787 19.9546 56.2524 19.5572C56.1473 19.4298 56.1182 19.0694 56.2127 18.9652C56.6556 18.4756 57.1534 18.0385 57.6478 17.5697ZM57.1937 18.3827C57.011 18.4863 56.8354 18.5328 56.7531 18.6483C56.6819 18.7484 56.658 19.017 56.7146 19.0558C56.9736 19.2314 57.269 19.3536 57.5514 19.4942L57.6682 19.3649L57.1937 18.3827Z" fill="#4F4F4F"/>
<path id="Vector_69" d="M36.8522 16.756L38.3899 16.3094C38.4005 16.2259 38.4115 16.1432 38.4221 16.0597L37.2088 15.4547C37.1983 15.3307 37.1785 15.1074 37.1592 14.8816C38.0375 14.8405 38.9216 15.9353 38.6642 16.7024C38.6216 16.8293 38.4612 16.93 38.3345 17.0092C38.1541 17.1209 37.964 17.2157 37.7666 17.2922C37.0309 17.578 36.9094 17.4911 36.8522 16.756Z" fill="#505050"/>
<path id="Vector_70" d="M29.3033 17.1557C30.031 18.2069 31.0318 19.0725 31.4194 20.356L31.2927 20.4531C30.6094 19.6192 29.9085 18.8015 29.2585 17.9431C29.1294 17.7728 29.1954 17.4494 29.172 17.1962L29.3033 17.1557Z" fill="#535353"/>
<path id="Vector_71" d="M55.831 14.8185C55.6303 15.3951 55.4483 15.9794 55.223 16.5458C55.0397 17.0057 54.8109 17.4476 54.5874 17.8901C54.5011 18.0605 54.3739 18.2093 54.2654 18.3667L54.0978 18.2428C54.2688 17.7579 54.4386 17.2725 54.6108 16.7882C54.748 16.4041 54.9026 16.0258 55.0228 15.6357C55.1529 15.2056 55.4133 14.937 55.8398 14.828L55.831 14.8185Z" fill="#535353"/>
<path id="Vector_72" d="M64.9632 29.4673C65.8245 28.9669 66.6748 28.4434 67.556 27.9817C67.7895 27.8626 68.115 27.9317 68.4191 28.0038C67.3034 28.5994 66.3212 29.4755 65.021 29.5947L64.9632 29.4673Z" fill="#505050"/>
<path id="Vector_73" d="M45.2132 9.2279L45.9799 8.42679L46.9101 9.22969L46.117 10.0004L45.2132 9.2279Z" fill="#4D4D4D"/>
<path id="Vector_74" d="M35.5416 19.0921C35.6525 18.7425 35.6992 18.5947 35.7383 18.4727L36.9212 18.1665C36.832 18.4787 36.787 18.6389 36.752 18.7621L35.5416 19.0921Z" fill="#535353"/>
<path id="Vector_75" d="M47.6803 13.5271C47.2514 14.0298 46.6614 14.0167 46.2016 13.6088L46.4963 13.2662L47.6803 13.5271Z" fill="#535353"/>
<path id="Vector_76" d="M32.7476 15.5589C32.7254 15.9788 32.1909 16.3475 31.6616 16.3076C31.5722 15.7679 32.1168 15.3927 32.7476 15.5589Z" fill="#535353"/>
<path id="Vector_77" d="M57.5818 16.7583C58.1653 16.4939 58.7063 16.781 58.928 17.3456L58.54 17.5464L57.5818 16.7583Z" fill="#535353"/>
<path id="Vector_78" d="M48.9835 13.1567L49.3208 12.8344C49.577 12.8773 49.769 12.888 49.9457 12.9452C50.1127 12.9994 50.2639 13.1036 50.5136 13.2328L50.1792 13.5658C49.87 13.5062 49.6762 13.4932 49.4982 13.4318C49.333 13.3741 49.186 13.2674 48.9835 13.1567Z" fill="#535353"/>
<path id="Vector_79" d="M25.4675 27.5279C25.7279 28.0741 25.453 28.6668 24.9138 28.889L24.7346 28.4922L25.4675 27.5279Z" fill="#535353"/>
<path id="Vector_80" d="M20.8959 28.4303L20.2451 29.5245C20.1034 29.2802 20.0199 29.1367 19.986 29.0777C20.0841 28.8067 20.1278 28.6012 20.2323 28.4291C20.3169 28.2903 20.4745 28.1985 20.5999 28.0861L20.8959 28.4303Z" fill="#535353"/>
<path id="Vector_81" d="M27.1995 27.1467C27.2456 27.3253 27.2836 27.4767 27.3278 27.6517L26.8062 27.8846C26.5149 27.3117 26.5149 27.3117 27.1995 27.1467Z" fill="#535353"/>
<path id="Vector_82" d="M33.9339 71.3577H33.8931L33.9269 71.3689L33.9339 71.3577Z" fill="#2A8442"/>
<path id="Vector_83" d="M55.8387 14.8298C55.8502 14.819 55.8627 14.8094 55.876 14.8011C55.8801 14.8011 55.89 14.8083 55.8976 14.8131L55.8328 14.819L55.8387 14.8298Z" fill="#535353"/>
<path id="Vector_84" d="M46.6288 32.4437L44.926 32.2905C44.7591 31.6271 44.113 31.7289 43.6818 31.4942C43.4186 31.3507 43.1128 31.2887 42.8262 31.1899C42.8262 31.141 42.8262 31.0922 42.8262 31.0428C42.9529 31.0094 43.0789 30.948 43.2055 30.9462C43.942 30.9368 44.6797 30.9242 45.4156 30.9546C45.5126 30.9642 45.6068 30.9935 45.6927 31.0407C45.7786 31.088 45.8544 31.1522 45.9156 31.2297C46.18 31.6127 46.3935 32.0362 46.6288 32.4437Z" fill="#272324"/>
<path id="Vector_85" d="M47.3454 32.2721H47.5019V32.315H47.3454V32.2721Z" fill="#272324"/>
<path id="Vector_86" d="M43.6724 43.2894C43.1688 44.2091 42.3886 44.1935 41.6598 44.2264C39.3196 44.333 36.979 44.4211 34.6376 44.4759C34.148 44.4872 33.655 44.3282 33.1642 44.2406C33.1233 44.2334 33.0917 44.1744 33.0608 44.1441C33.2487 43.2715 33.9222 43.1178 34.6166 43.0619C35.492 42.9909 36.375 42.9588 37.2544 42.9499C38.9467 42.9321 40.6391 42.9183 42.3314 42.9558C42.7725 42.966 43.2102 43.1691 43.6724 43.2894Z" fill="#272324"/>
<path id="Vector_87" d="M72.9208 41.7223C72.7054 42.3584 72.3494 42.4186 71.9052 42.4138C69.8097 42.3923 67.7136 42.4138 65.6179 42.3869C65.2386 42.3822 64.8594 42.2345 64.484 42.1523L64.4456 41.9021C64.8459 41.7425 65.2427 41.4543 65.646 41.4441C67.7748 41.3911 69.906 41.3953 72.0361 41.4155C72.3331 41.4185 72.6283 41.6163 72.9208 41.7223Z" fill="#272324"/>
<path id="Vector_88" d="M4.49343 93.052C3.87406 93.052 3.41056 92.9439 3.10296 92.7278C2.79535 92.5116 2.64155 92.1769 2.64155 91.7239C2.64155 91.6242 2.64778 91.516 2.66025 91.3997C2.67688 91.2833 2.69559 91.171 2.71637 91.063C2.73715 90.9508 2.75586 90.8551 2.77249 90.7762C2.78912 90.6929 2.7995 90.6368 2.80366 90.6078L3.27755 90.6951C3.26508 90.7615 3.24637 90.853 3.22143 90.9695C3.20065 91.0858 3.17986 91.2105 3.15908 91.3436C3.1383 91.4766 3.1279 91.6033 3.1279 91.7239C3.1279 91.9317 3.17155 92.1021 3.25884 92.2352C3.34613 92.364 3.48955 92.4597 3.68908 92.522C3.8886 92.5802 4.15672 92.6093 4.49343 92.6093H6.3266V89.9344H6.81296V93.052H4.49343ZM4.06319 89.978V89.4169H4.54955V89.978H4.06319ZM4.91743 89.978V89.4169H5.40378V89.978H4.91743ZM8.39696 93.052V92.6093H9.15767V93.052H8.39696ZM7.91684 93.052V88.5813H8.39696V93.052H7.91684ZM9.15767 93.052V92.6093C9.21171 92.6093 9.24496 92.6301 9.25743 92.6717C9.27406 92.7091 9.28237 92.761 9.28237 92.8276C9.28237 92.894 9.27406 92.9481 9.25743 92.9897C9.24496 93.0312 9.21171 93.052 9.15767 93.052ZM12.437 93.052C12.2956 93.052 12.1564 93.0249 12.0192 92.971C11.8862 92.9169 11.7573 92.8317 11.6326 92.7153L11.9506 92.3849C12.0462 92.4638 12.1314 92.522 12.2062 92.5595C12.2811 92.5927 12.358 92.6093 12.437 92.6093H13.5468L13.3598 92.8089V91.3186C13.3598 91.2438 13.3515 91.1378 13.3348 91.0006C13.3224 90.8635 13.3016 90.7096 13.2725 90.5392C13.2476 90.3646 13.2164 90.19 13.179 90.0155L13.6528 89.9344C13.682 90.0798 13.711 90.242 13.7401 90.4208C13.7693 90.5994 13.7942 90.7699 13.815 90.932C13.8357 91.09 13.8461 91.2189 13.8461 91.3186V93.052H12.437ZM9.15719 93.052V92.6093H10.0675L9.94284 92.734V90.5579H10.423V93.052H9.15719ZM10.423 93.052V92.6093H11.1275C11.2689 92.6093 11.3749 92.5885 11.4455 92.547C11.5204 92.5054 11.5723 92.4223 11.6014 92.2976C11.6305 92.1729 11.6451 91.9899 11.6451 91.7489V90.2462H12.1314V91.7489C12.1314 92.0731 12.0961 92.3308 12.0254 92.522C11.9589 92.7132 11.8529 92.8504 11.7074 92.9336C11.5619 93.0125 11.3686 93.052 11.1275 93.052H10.423ZM9.15719 93.052C9.10315 93.052 9.06989 93.0312 9.05742 92.9897C9.04079 92.9481 9.03248 92.894 9.03248 92.8276C9.03248 92.761 9.04079 92.7091 9.05742 92.6717C9.06989 92.6301 9.10315 92.6093 9.15719 92.6093V93.052ZM14.9133 93.052V88.5813H15.3935V93.052H14.9133ZM16.0453 94.43C15.9913 94.43 15.9352 94.4258 15.8769 94.4176C15.8146 94.4134 15.7544 94.4092 15.6961 94.4051L15.7522 93.9624C15.8105 93.9665 15.8645 93.9707 15.9143 93.9749C15.9642 93.9831 16.0079 93.9873 16.0453 93.9873C16.2407 93.9873 16.3987 93.9125 16.5192 93.7629C16.6398 93.6173 16.7 93.4137 16.7 93.1518V89.9344H17.1863V93.1518C17.1863 93.4053 17.1365 93.6277 17.0367 93.819C16.9411 94.0143 16.8081 94.164 16.6376 94.2679C16.4672 94.376 16.2698 94.43 16.0453 94.43ZM20.2897 93.052V92.6093H20.9631V93.052H20.2897ZM17.8767 93.052V92.6093H20.2024L19.8034 92.9648V91.6055C19.8034 91.2978 19.768 91.0546 19.6974 90.8759C19.6266 90.6971 19.5103 90.5704 19.3482 90.4956C19.1901 90.4166 18.9761 90.3771 18.706 90.3771H18.2009V89.9344H18.706C19.0385 89.9344 19.3232 89.9863 19.5602 90.0903C19.7971 90.1941 19.978 90.3687 20.1027 90.614C20.2274 90.8551 20.2897 91.1855 20.2897 91.6055V93.052H17.8767ZM20.9631 93.052V92.6093C21.0171 92.6093 21.0504 92.6301 21.0629 92.6717C21.0794 92.7091 21.0878 92.761 21.0878 92.8276C21.0878 92.894 21.0794 92.9481 21.0629 92.9897C21.0504 93.0312 21.0171 93.052 20.9631 93.052ZM21.7186 93.052V88.5813H22.2049V93.052H21.7186ZM20.9641 93.052V92.6093H21.7186V93.052H20.9641ZM20.9641 93.052C20.91 93.052 20.8768 93.0312 20.8643 92.9897C20.8477 92.9481 20.8394 92.894 20.8394 92.8276C20.8394 92.761 20.8477 92.7091 20.8643 92.6717C20.8768 92.6301 20.91 92.6093 20.9641 92.6093V93.052ZM23.2798 93.052V88.5813H23.7599V93.052H23.2798ZM27.1786 94.43C27.0331 94.43 26.8772 94.4176 26.711 94.3926C26.5489 94.3718 26.3701 94.3406 26.1748 94.2991L26.2496 93.9063C26.4699 93.9353 26.6527 93.9562 26.7983 93.9686C26.9479 93.9811 27.0747 93.9873 27.1786 93.9873C27.5236 93.9873 27.7751 93.9208 27.9331 93.7878C28.091 93.6589 28.1701 93.4698 28.1701 93.2204V90.215L28.4195 90.3771H27.3657C27.1246 90.3771 26.9375 90.4061 26.8045 90.4644C26.6756 90.5226 26.5863 90.6328 26.5364 90.7949C26.4865 90.9528 26.4616 91.1855 26.4616 91.4932C26.4616 91.8008 26.4865 92.0357 26.5364 92.1978C26.5863 92.3557 26.6756 92.4638 26.8045 92.522C26.9375 92.5802 27.1246 92.6093 27.3657 92.6093H28.1701V93.052H27.3657C27.0041 93.052 26.7213 92.998 26.5177 92.8899C26.3182 92.7777 26.1768 92.6072 26.0937 92.3786C26.0147 92.1458 25.9752 91.8507 25.9752 91.4932C25.9752 91.1356 26.0147 90.8426 26.0937 90.614C26.1768 90.3812 26.3182 90.2108 26.5177 90.1027C26.7213 89.9905 27.0041 89.9344 27.3657 89.9344H28.6564V93.2142C28.6564 93.4718 28.5961 93.6921 28.4756 93.8751C28.3591 94.058 28.1908 94.1951 27.9705 94.2866C27.7501 94.3822 27.4862 94.43 27.1786 94.43ZM32.5948 93.052C31.9755 93.052 31.512 92.9439 31.2044 92.7278C30.8968 92.5116 30.7429 92.1769 30.7429 91.7239C30.7429 91.6242 30.7492 91.516 30.7617 91.3997C30.7783 91.2833 30.797 91.171 30.8178 91.063C30.8386 90.9508 30.8573 90.8551 30.8739 90.7762C30.8906 90.6929 30.901 90.6368 30.9051 90.6078L31.3789 90.6951C31.3665 90.7615 31.3478 90.853 31.3228 90.9695C31.3021 91.0858 31.2813 91.2105 31.2605 91.3436C31.2397 91.4766 31.2293 91.6033 31.2293 91.7239C31.2293 91.9317 31.2729 92.1021 31.3602 92.2352C31.4475 92.364 31.5909 92.4597 31.7905 92.522C31.99 92.5802 32.2581 92.6093 32.5948 92.6093H34.428V89.9344H34.9144V93.052H32.5948ZM32.6073 89.155V88.625H33.0562V89.155H32.6073ZM32.1584 89.978V89.4169H32.6447V89.978H32.1584ZM33.0126 89.978V89.4169H33.499V89.978H33.0126ZM38.3503 93.052V92.6093H39.0237V93.052H38.3503ZM36.8725 94.43C36.727 94.43 36.5712 94.4176 36.4048 94.3926C36.2427 94.3718 36.0641 94.3406 35.8686 94.2991L35.9434 93.9063C36.1638 93.9353 36.3467 93.9562 36.4921 93.9686C36.6418 93.9811 36.7686 93.9873 36.8725 93.9873C37.2176 93.9873 37.469 93.9208 37.627 93.7878C37.785 93.6589 37.8639 93.4698 37.8639 93.2204V90.215L38.1133 90.3771H37.0595C36.8185 90.3771 36.6315 90.4061 36.4984 90.4644C36.3696 90.5226 36.2801 90.6328 36.2302 90.7949C36.1804 90.9528 36.1554 91.1855 36.1554 91.4932C36.1554 91.8008 36.1804 92.0357 36.2302 92.1978C36.2801 92.3557 36.3696 92.4638 36.4984 92.522C36.6315 92.5802 36.8185 92.6093 37.0595 92.6093H37.8639V93.052H37.0595C36.6979 93.052 36.4153 92.998 36.2115 92.8899C36.012 92.7777 35.8708 92.6072 35.7875 92.3786C35.7086 92.1458 35.6691 91.8507 35.6691 91.4932C35.6691 91.1356 35.7086 90.8426 35.7875 90.614C35.8708 90.3812 36.012 90.2108 36.2115 90.1027C36.4153 89.9905 36.6979 89.9344 37.0595 89.9344H38.3503V93.2142C38.3503 93.4718 38.2901 93.6921 38.1694 93.8751C38.0531 94.058 37.8848 94.1951 37.6644 94.2866C37.4441 94.3822 37.1802 94.43 36.8725 94.43ZM39.0237 93.052V92.6093C39.0777 92.6093 39.111 92.6301 39.1234 92.6717C39.1401 92.7091 39.1484 92.761 39.1484 92.8276C39.1484 92.894 39.1401 92.9481 39.1234 92.9897C39.111 93.0312 39.0777 93.052 39.0237 93.052ZM42.111 93.052V92.6093H42.7844V93.052H42.111ZM39.0245 93.052V92.6093H41.7743L41.6246 92.7403V91.1939C41.6246 90.9237 41.5394 90.7221 41.369 90.5891C41.2027 90.4519 40.947 90.3833 40.602 90.3833C40.494 90.3833 40.3381 90.3937 40.1344 90.4145C39.9307 90.4311 39.7166 90.456 39.4921 90.4893L39.436 90.0903C39.6064 90.0487 39.7935 90.0133 39.9972 89.9843C40.2009 89.9509 40.3983 89.9344 40.5896 89.9344C40.9055 89.9344 41.1757 89.9843 41.4001 90.084C41.6288 90.1796 41.8034 90.321 41.9239 90.508C42.0486 90.6951 42.111 90.9237 42.111 91.1939V93.052H39.0245ZM39.0245 93.052C38.9704 93.052 38.9372 93.0312 38.9247 92.9897C38.9081 92.9481 38.8998 92.894 38.8998 92.8276C38.8998 92.761 38.9081 92.7091 38.9247 92.6717C38.9372 92.6301 38.9704 92.6093 39.0245 92.6093V93.052ZM42.7844 93.052V92.6093C42.8385 92.6093 42.8717 92.6301 42.8841 92.6717C42.9008 92.7091 42.9091 92.761 42.9091 92.8276C42.9091 92.894 42.9008 92.9481 42.8841 92.9897C42.8717 93.0312 42.8385 93.052 42.7844 93.052ZM43.9413 93.052V92.6093H44.6147V93.052H43.9413ZM42.7815 93.052V92.6093H43.6794L43.4549 92.7902V89.9344H43.9413V93.052H42.7815ZM42.7815 93.052C42.7274 93.052 42.6942 93.0312 42.6817 92.9897C42.6651 92.9481 42.6568 92.894 42.6568 92.8276C42.6568 92.761 42.6651 92.7091 42.6817 92.6717C42.6942 92.6301 42.7274 92.6093 42.7815 92.6093V93.052ZM44.6147 93.052V92.6093C44.6688 92.6093 44.702 92.6301 44.7144 92.6717C44.7311 92.7091 44.7394 92.761 44.7394 92.8276C44.7394 92.894 44.7311 92.9481 44.7144 92.9897C44.702 93.0312 44.6688 93.052 44.6147 93.052ZM43.4549 94.1744V93.6132H43.9413V94.1744H43.4549ZM45.3688 93.052V88.5813H45.8551V93.052H45.3688ZM44.6143 93.052V92.6093H45.3688V93.052H44.6143ZM44.6143 93.052C44.5602 93.052 44.527 93.0312 44.5146 92.9897C44.4979 92.9481 44.4896 92.894 44.4896 92.8276C44.4896 92.761 44.4979 92.7091 44.5146 92.6717C44.527 92.6301 44.5602 92.6093 44.6143 92.6093V93.052ZM46.93 93.052V88.5813H47.4101V93.052H46.93ZM50.8289 94.43C50.6834 94.43 50.5275 94.4176 50.3612 94.3926C50.1991 94.3718 50.0203 94.3406 49.825 94.2991L49.8998 93.9063C50.1201 93.9353 50.3031 93.9562 50.4485 93.9686C50.5982 93.9811 50.7249 93.9873 50.8289 93.9873C51.1738 93.9873 51.4254 93.9208 51.5833 93.7878C51.7413 93.6589 51.8203 93.4698 51.8203 93.2204V90.215L52.0697 90.3771H51.0159C50.7748 90.3771 50.5877 90.4061 50.4548 90.4644C50.3258 90.5226 50.2365 90.6328 50.1866 90.7949C50.1368 90.9528 50.1118 91.1855 50.1118 91.4932C50.1118 91.8008 50.1368 92.0357 50.1866 92.1978C50.2365 92.3557 50.3258 92.4638 50.4548 92.522C50.5877 92.5802 50.7748 92.6093 51.0159 92.6093H51.8203V93.052H51.0159C50.6543 93.052 50.3717 92.998 50.1679 92.8899C49.9684 92.7777 49.827 92.6072 49.7439 92.3786C49.6649 92.1458 49.6255 91.8507 49.6255 91.4932C49.6255 91.1356 49.6649 90.8426 49.7439 90.614C49.827 90.3812 49.9684 90.2108 50.1679 90.1027C50.3717 89.9905 50.6543 89.9344 51.0159 89.9344H52.3066V93.2142C52.3066 93.4718 52.2463 93.6921 52.1258 93.8751C52.0094 94.058 51.841 94.1951 51.6208 94.2866C51.4005 94.3822 51.1364 94.43 50.8289 94.43ZM58.5647 93.052V92.6093H59.2381V93.052H58.5647ZM56.2452 93.052C55.6257 93.052 55.1623 92.9439 54.8547 92.7278C54.547 92.5116 54.3933 92.1769 54.3933 91.7239C54.3933 91.6242 54.3995 91.516 54.412 91.3997C54.4286 91.2833 54.4473 91.171 54.4681 91.063C54.4889 90.9508 54.5076 90.8551 54.5242 90.7762C54.5408 90.6929 54.5512 90.6368 54.5554 90.6078L55.0293 90.6951C55.0168 90.7615 54.9981 90.853 54.9732 90.9695C54.9523 91.0858 54.9316 91.2105 54.9108 91.3436C54.89 91.4766 54.8797 91.6033 54.8797 91.7239C54.8797 91.9317 54.9233 92.1021 55.0106 92.2352C55.0979 92.364 55.2413 92.4597 55.4408 92.522C55.6404 92.5802 55.9085 92.6093 56.2452 92.6093H58.0784V89.9344H58.5647V93.052H56.2452ZM59.2381 93.052V92.6093C59.2921 92.6093 59.3254 92.6301 59.3379 92.6717C59.3544 92.7091 59.3628 92.761 59.3628 92.8276C59.3628 92.894 59.3544 92.9481 59.3379 92.9897C59.3254 93.0312 59.2921 93.052 59.2381 93.052ZM56.239 94.1744V93.6132H56.7253V94.1744H56.239ZM59.2405 93.052V92.6093H60.1384L59.9139 92.7902V89.9344H60.4003V93.052H59.2405ZM59.2405 93.052C59.1864 93.052 59.1532 93.0312 59.1408 92.9897C59.1241 92.9481 59.1158 92.894 59.1158 92.8276C59.1158 92.761 59.1241 92.7091 59.1408 92.6717C59.1532 92.6301 59.1864 92.6093 59.2405 92.6093V93.052ZM59.4899 94.1744V93.6132H59.9763V94.1744H59.4899ZM60.3442 94.1744V93.6132H60.8305V94.1744H60.3442ZM61.4583 94.43C61.4042 94.43 61.3481 94.4258 61.2899 94.4176C61.2275 94.4134 61.1672 94.4092 61.1091 94.4051L61.1652 93.9624C61.2233 93.9665 61.2774 93.9707 61.3273 93.9749C61.3772 93.9831 61.4208 93.9873 61.4583 93.9873C61.6536 93.9873 61.8116 93.9125 61.9321 93.7629C62.0526 93.6173 62.113 93.4137 62.113 93.1518V89.9344H62.5993V93.1518C62.5993 93.4053 62.5494 93.6277 62.4497 93.819C62.3541 94.0143 62.221 94.164 62.0506 94.2679C61.8802 94.376 61.6827 94.43 61.4583 94.43ZM65.7026 93.052V92.6093H66.376V93.052H65.7026ZM63.2895 93.052V92.6093H65.6153L65.2162 92.9648V91.6055C65.2162 91.2978 65.1808 91.0546 65.1102 90.8759C65.0396 90.6971 64.9232 90.5704 64.761 90.4956C64.6031 90.4166 64.389 90.3771 64.1188 90.3771H63.6137V89.9344H64.1188C64.4513 89.9344 64.7361 89.9863 64.973 90.0903C65.21 90.1941 65.3908 90.3687 65.5155 90.614C65.6402 90.8551 65.7026 91.1855 65.7026 91.6055V93.052H63.2895ZM66.376 93.052V92.6093C66.4301 92.6093 66.4633 92.6301 66.4757 92.6717C66.4924 92.7091 66.5007 92.761 66.5007 92.8276C66.5007 92.894 66.4924 92.9481 66.4757 92.9897C66.4633 93.0312 66.4301 93.052 66.376 93.052ZM67.5367 93.052V92.6093H68.2101V93.052H67.5367ZM68.2101 93.052V92.6093C68.2642 92.6093 68.2974 92.6301 68.3099 92.6717C68.3265 92.7091 68.3348 92.761 68.3348 92.8276C68.3348 92.894 68.3265 92.9481 68.3099 92.9897C68.2974 93.0312 68.2642 93.052 68.2101 93.052ZM66.3769 93.052V92.6093H67.2748L67.0503 92.7902V89.9344H67.5367V93.052H66.3769ZM66.3769 93.052C66.323 93.052 66.2896 93.0312 66.2772 92.9897C66.2606 92.9481 66.2522 92.894 66.2522 92.8276C66.2522 92.761 66.2606 92.7091 66.2772 92.6717C66.2896 92.6301 66.323 92.6093 66.3769 92.6093V93.052ZM66.6263 89.3732V88.812H67.1127V89.3732H66.6263ZM67.4806 89.3732V88.812H67.9669V89.3732H67.4806ZM68.9642 93.052V88.5813H69.4506V93.052H68.9642ZM68.2098 93.052V92.6093H68.9642V93.052H68.2098ZM68.2098 93.052C68.1558 93.052 68.1224 93.0312 68.11 92.9897C68.0934 92.9481 68.0851 92.894 68.0851 92.8276C68.0851 92.761 68.0934 92.7091 68.11 92.6717C68.1224 92.6301 68.1558 92.6093 68.2098 92.6093V93.052ZM70.5256 93.052V88.5813H71.0057V93.052H70.5256ZM74.0439 93.052V92.6093H74.8421V93.052H74.0439ZM73.0276 94.43C72.9736 94.43 72.9175 94.4258 72.8592 94.4176C72.7969 94.4134 72.7367 94.4092 72.6784 94.4051L72.7345 93.9624C72.7928 93.9665 72.8468 93.9707 72.8967 93.9749C72.9465 93.9831 72.9902 93.9873 73.0276 93.9873C73.2231 93.9873 73.381 93.9125 73.5015 93.7629C73.6221 93.6173 73.6823 93.4137 73.6823 93.1518V89.9344H74.1687V93.1518C74.1687 93.4053 74.1188 93.6277 74.019 93.819C73.9234 94.0143 73.7905 94.164 73.6199 94.2679C73.4496 94.376 73.2521 94.43 73.0276 94.43ZM74.8421 93.052V92.6093C74.8961 92.6093 74.9294 92.6301 74.9418 92.6717C74.9585 92.7091 74.9668 92.761 74.9668 92.8276C74.9668 92.894 74.9585 92.9481 74.9418 92.9897C74.9294 93.0312 74.8961 93.052 74.8421 93.052ZM73.6823 89.3732V88.812H74.1687V89.3732H73.6823ZM74.8409 93.052V92.6093H77.9585L77.7839 92.7652V91.6553C77.7839 91.4309 77.7528 91.2458 77.6904 91.1004C77.6322 90.9507 77.5429 90.8406 77.4223 90.7699C77.306 90.6951 77.1584 90.6577 76.9796 90.6577H75.6203L75.2649 90.1215L75.533 89.6039C75.5829 89.5124 75.6349 89.4189 75.6889 89.3233C75.7429 89.2276 75.8095 89.1176 75.8884 88.9929C75.9674 88.8682 76.0672 88.7164 76.1877 88.5377L76.593 88.7809C76.4725 88.9637 76.3747 89.1154 76.2999 89.236C76.2251 89.3566 76.1607 89.4605 76.1066 89.5478C76.0567 89.6351 76.009 89.7224 75.9632 89.8097L75.6514 90.4083L75.5267 90.215H76.9796C77.2415 90.215 77.4556 90.2607 77.6218 90.3522C77.7923 90.4395 77.9233 90.5558 78.0146 90.7013C78.1103 90.8468 78.1767 91.0047 78.2142 91.1752C78.2516 91.3414 78.2703 91.5015 78.2703 91.6553V93.052H74.8409ZM74.8409 93.052C74.7869 93.052 74.7536 93.0312 74.7411 92.9897C74.7246 92.9481 74.7162 92.894 74.7162 92.8276C74.7162 92.761 74.7246 92.7091 74.7411 92.6717C74.7536 92.6301 74.7869 92.6093 74.8409 92.6093V93.052ZM79.8104 93.052V92.6093H80.6085V93.052H79.8104ZM78.794 94.43C78.7401 94.43 78.684 94.4258 78.6257 94.4176C78.5633 94.4134 78.5031 94.4092 78.4449 94.4051L78.501 93.9624C78.5593 93.9665 78.6132 93.9707 78.6631 93.9749C78.713 93.9831 78.7566 93.9873 78.794 93.9873C78.9895 93.9873 79.1474 93.9125 79.2679 93.7629C79.3886 93.6173 79.4488 93.4137 79.4488 93.1518V89.9344H79.9351V93.1518C79.9351 93.4053 79.8852 93.6277 79.7855 93.819C79.6899 94.0143 79.5569 94.164 79.3864 94.2679C79.216 94.376 79.0185 94.43 78.794 94.43ZM80.6085 93.052V92.6093C80.6626 92.6093 80.6958 92.6301 80.7083 92.6717C80.7249 92.7091 80.7332 92.761 80.7332 92.8276C80.7332 92.894 80.7249 92.9481 80.7083 92.9897C80.6958 93.0312 80.6626 93.052 80.6085 93.052ZM80.6073 93.052V92.6093H84.018L83.6564 92.865V91.5244C83.6564 91.2334 83.6232 91.0047 83.5566 90.8385C83.4901 90.6722 83.3758 90.5537 83.2137 90.4831C83.0557 90.4124 82.8396 90.3771 82.5652 90.3771C82.3906 90.3771 82.216 90.3896 82.0414 90.4145C81.871 90.4395 81.7379 90.4727 81.6424 90.5143L81.9354 90.215C81.9105 90.3148 81.8855 90.4415 81.8606 90.5953C81.8357 90.745 81.8149 90.9071 81.7983 91.0817C81.7816 91.2563 81.7733 91.4309 81.7733 91.6055C81.7733 91.7841 81.7816 91.9587 81.7983 92.1292C81.8149 92.2996 81.8336 92.4472 81.8544 92.5719C81.8751 92.6966 81.8918 92.7839 81.9042 92.8338L81.4428 92.9648C81.4262 92.9107 81.4054 92.8171 81.3805 92.6842C81.3597 92.5511 81.3389 92.3911 81.3181 92.204C81.3015 92.017 81.2932 91.8175 81.2932 91.6055C81.2932 91.4017 81.3015 91.2042 81.3181 91.0131C81.3389 90.8177 81.3618 90.641 81.3867 90.4831C81.4159 90.3251 81.4428 90.1983 81.4678 90.1027C81.5593 90.0653 81.7047 90.0279 81.9042 89.9905C82.1038 89.9531 82.3241 89.9344 82.5652 89.9344C82.9144 89.9344 83.2054 89.9863 83.4381 90.0903C83.6751 90.1941 83.8517 90.3625 83.9681 90.5953C84.0846 90.8239 84.1427 91.1336 84.1427 91.5244V93.052H80.6073ZM80.6073 93.052C80.5532 93.052 80.52 93.0312 80.5076 92.9897C80.4909 92.9481 80.4826 92.894 80.4826 92.8276C80.4826 92.761 80.4909 92.7091 80.5076 92.6717C80.52 92.6301 80.5532 92.6093 80.6073 92.6093V93.052Z" fill="#252223"/>
<path id="Vector_89" d="M2.97089 103.288V100.022H1.85765V99.6423H4.49566V100.022H3.39297V103.288H2.97089ZM4.50295 103.288V100.65H4.9092V101.003C4.97604 100.958 5.06046 100.909 5.16245 100.856C5.26446 100.8 5.37702 100.747 5.50012 100.697C5.62323 100.648 5.74634 100.613 5.86944 100.592V101.009C5.74985 101.033 5.62851 101.067 5.50539 101.109C5.3823 101.148 5.26797 101.19 5.16245 101.236C5.06046 101.281 4.97604 101.322 4.9092 101.357V103.288H4.50295ZM6.90712 103.341C6.66443 103.341 6.47977 103.272 6.35314 103.135C6.22652 102.998 6.16321 102.797 6.16321 102.534C6.16321 102.361 6.19311 102.221 6.2529 102.111C6.3127 102.002 6.40239 101.92 6.52198 101.863C6.64509 101.804 6.79633 101.767 6.97571 101.753L7.78822 101.674V101.447C7.78822 101.267 7.74777 101.141 7.66687 101.067C7.58949 100.993 7.47342 100.956 7.31865 100.956C7.23072 100.956 7.1252 100.96 7.00209 100.967C6.88251 100.974 6.76292 100.982 6.64332 100.993C6.52374 101.003 6.41822 101.014 6.32676 101.025L6.30566 100.713C6.39007 100.696 6.49208 100.678 6.61167 100.661C6.73127 100.643 6.85613 100.629 6.98626 100.618C7.11641 100.604 7.236 100.597 7.34503 100.597C7.54552 100.597 7.70908 100.629 7.8357 100.692C7.96233 100.752 8.05378 100.845 8.11006 100.972C8.16986 101.095 8.19975 101.253 8.19975 101.447V102.782C8.20679 102.859 8.23668 102.915 8.28944 102.95C8.34573 102.986 8.41607 103.008 8.50048 103.019L8.48465 103.341C8.40728 103.341 8.33693 103.335 8.27361 103.325C8.2103 103.318 8.15051 103.306 8.09423 103.288C8.04851 103.27 8.00454 103.249 7.96233 103.225C7.92365 103.2 7.88495 103.17 7.84626 103.135C7.77943 103.163 7.69325 103.193 7.58773 103.225C7.48574 103.256 7.37494 103.283 7.25534 103.304C7.13927 103.329 7.0232 103.341 6.90712 103.341ZM6.97571 102.998C7.07068 102.998 7.16917 102.989 7.27117 102.971C7.37318 102.954 7.46991 102.933 7.56135 102.908C7.65281 102.884 7.72843 102.861 7.78822 102.84V101.98L7.0232 102.053C6.86492 102.068 6.75061 102.113 6.68026 102.191C6.61343 102.268 6.58001 102.379 6.58001 102.523C6.58001 102.671 6.61343 102.787 6.68026 102.871C6.74709 102.956 6.84557 102.998 6.97571 102.998ZM8.98036 103.288V100.65H9.38661V103.288H8.98036ZM8.98036 100.07V99.5948H9.38661V100.07H8.98036ZM10.1448 103.288V100.65H10.551V100.835C10.6108 100.8 10.6847 100.764 10.7726 100.729C10.8641 100.694 10.9608 100.664 11.0628 100.639C11.1648 100.611 11.2633 100.597 11.3583 100.597C11.601 100.597 11.7856 100.641 11.9123 100.729C12.0424 100.814 12.1321 100.951 12.1813 101.141C12.2306 101.331 12.2552 101.58 12.2552 101.89V103.288H11.8437V101.906C11.8437 101.677 11.8296 101.494 11.8015 101.357C11.7768 101.22 11.7241 101.121 11.6432 101.062C11.5658 100.998 11.4462 100.967 11.2844 100.967C11.1965 100.967 11.105 100.977 11.0101 100.998C10.9186 101.016 10.8324 101.04 10.7515 101.072C10.6706 101.1 10.6038 101.128 10.551 101.156V103.288H10.1448ZM12.9838 103.288V100.65H13.39V103.288H12.9838ZM12.9838 100.07V99.5948H13.39V100.07H12.9838ZM14.1482 103.288V100.65H14.5544V100.835C14.6142 100.8 14.688 100.764 14.776 100.729C14.8674 100.694 14.9642 100.664 15.0662 100.639C15.1681 100.611 15.2667 100.597 15.3617 100.597C15.6044 100.597 15.789 100.641 15.9157 100.729C16.0458 100.814 16.1355 100.951 16.1847 101.141C16.2339 101.331 16.2586 101.58 16.2586 101.89V103.288H15.8471V101.906C15.8471 101.677 15.8329 101.494 15.8049 101.357C15.7802 101.22 15.7274 101.121 15.6466 101.062C15.5691 100.998 15.4496 100.967 15.2878 100.967C15.1998 100.967 15.1084 100.977 15.0135 100.998C14.922 101.016 14.8358 101.04 14.7549 101.072C14.674 101.1 14.6072 101.128 14.5544 101.156V103.288H14.1482ZM18.0054 104.528C17.7311 104.528 17.5095 104.503 17.3407 104.454C17.1753 104.408 17.054 104.327 16.9766 104.211C16.9028 104.095 16.8658 103.937 16.8658 103.736C16.8658 103.635 16.8817 103.547 16.9133 103.473C16.945 103.402 16.9907 103.337 17.0505 103.277C17.1138 103.214 17.1911 103.149 17.2826 103.082C17.2368 103.047 17.1999 102.998 17.1718 102.935C17.1471 102.868 17.1349 102.794 17.1349 102.713C17.1349 102.674 17.1542 102.613 17.1929 102.528C17.2351 102.44 17.2756 102.363 17.3143 102.296C17.2404 102.261 17.1718 102.213 17.1085 102.154C17.0487 102.09 16.9994 102.006 16.9608 101.9C16.9221 101.795 16.9028 101.661 16.9028 101.499C16.9028 101.176 16.9941 100.945 17.1771 100.808C17.36 100.668 17.5974 100.597 17.8894 100.597C17.9843 100.597 18.0846 100.604 18.1901 100.618C18.2956 100.632 18.3782 100.648 18.4381 100.666L19.2242 100.645V100.993L18.7283 100.982C18.7774 101.032 18.818 101.097 18.8496 101.178C18.8847 101.259 18.9024 101.366 18.9024 101.499C18.9024 101.728 18.8636 101.907 18.7863 102.038C18.7088 102.168 18.5946 102.259 18.4434 102.312C18.292 102.365 18.1021 102.391 17.8735 102.391C17.8488 102.391 17.8066 102.389 17.7469 102.386C17.6906 102.379 17.6484 102.374 17.6203 102.37C17.5992 102.419 17.5781 102.475 17.557 102.539C17.5359 102.602 17.5253 102.646 17.5253 102.671C17.5253 102.738 17.5376 102.789 17.5623 102.824C17.5868 102.859 17.6431 102.882 17.7311 102.892C17.8225 102.903 17.9649 102.908 18.1584 102.908C18.4117 102.908 18.6139 102.929 18.7652 102.971C18.9164 103.014 19.0237 103.091 19.087 103.204C19.1538 103.313 19.1873 103.473 19.1873 103.684C19.1873 103.983 19.0834 104.197 18.876 104.327C18.6684 104.461 18.3782 104.528 18.0054 104.528ZM18.0107 104.18C18.2709 104.18 18.4627 104.143 18.5858 104.069C18.7088 103.995 18.7705 103.874 18.7705 103.705C18.7705 103.575 18.7494 103.478 18.7072 103.415C18.6684 103.355 18.6016 103.314 18.5067 103.293C18.4117 103.276 18.2851 103.267 18.1268 103.267C18.0951 103.267 18.0511 103.267 17.9949 103.267C17.9385 103.263 17.8805 103.262 17.8208 103.262C17.7609 103.258 17.7064 103.255 17.6572 103.251C17.6114 103.248 17.5798 103.246 17.5623 103.246C17.4531 103.323 17.3776 103.392 17.3354 103.452C17.2932 103.515 17.2721 103.598 17.2721 103.7C17.2721 103.816 17.2932 103.909 17.3354 103.979C17.3776 104.05 17.4515 104.101 17.557 104.132C17.666 104.164 17.8172 104.18 18.0107 104.18ZM17.8894 102.064C18.1074 102.064 18.2622 102.022 18.3537 101.937C18.445 101.849 18.4908 101.704 18.4908 101.499C18.4908 101.295 18.445 101.15 18.3537 101.062C18.2622 100.974 18.1074 100.93 17.8894 100.93C17.6853 100.93 17.5376 100.974 17.4462 101.062C17.3582 101.15 17.3143 101.295 17.3143 101.499C17.3143 101.704 17.3582 101.849 17.4462 101.937C17.5376 102.022 17.6853 102.064 17.8894 102.064ZM19.5019 103.937L19.7393 102.713H20.1984L19.8396 103.937H19.5019ZM22.1101 103.288V99.6423H23.466C23.7227 99.6423 23.9374 99.681 24.1097 99.7583C24.2856 99.8358 24.4175 99.9571 24.5054 100.122C24.5933 100.284 24.6373 100.494 24.6373 100.75C24.6373 101.018 24.5827 101.243 24.4737 101.426C24.3682 101.609 24.2012 101.737 23.9725 101.811L24.6689 103.288H24.1994L23.5557 101.9H22.5321V103.288H22.1101ZM22.5321 101.531H23.4713C23.6507 101.531 23.7931 101.498 23.8986 101.431C24.0076 101.364 24.0851 101.273 24.1308 101.156C24.1765 101.037 24.1994 100.903 24.1994 100.756C24.1994 100.506 24.1395 100.319 24.02 100.196C23.9004 100.073 23.7158 100.012 23.466 100.012H22.5321V101.531ZM26.2059 103.341C25.9421 103.341 25.7329 103.29 25.5781 103.188C25.4269 103.086 25.3179 102.935 25.251 102.734C25.1842 102.534 25.1507 102.284 25.1507 101.985C25.1507 101.651 25.1965 101.383 25.2879 101.183C25.3794 100.979 25.5078 100.831 25.6731 100.74C25.8384 100.645 26.0336 100.597 26.2587 100.597C26.6105 100.597 26.876 100.696 27.0554 100.893C27.2348 101.086 27.3245 101.399 27.3245 101.832L27.3033 102.143H25.5675C25.5711 102.417 25.6221 102.625 25.7205 102.766C25.8191 102.906 25.9967 102.977 26.2534 102.977C26.352 102.977 26.4592 102.975 26.5753 102.971C26.6949 102.964 26.8127 102.957 26.9288 102.95C27.0448 102.943 27.1434 102.936 27.2242 102.929L27.2348 103.251C27.1503 103.265 27.0466 103.279 26.9235 103.293C26.8039 103.307 26.6808 103.318 26.5542 103.325C26.4275 103.335 26.3115 103.341 26.2059 103.341ZM25.5675 101.811H26.9129C26.9129 101.487 26.8602 101.262 26.7546 101.135C26.6527 101.005 26.4874 100.94 26.2587 100.94C26.0371 100.94 25.8666 101.007 25.7469 101.141C25.6274 101.274 25.5675 101.498 25.5675 101.811ZM28.7589 103.341C28.6781 103.341 28.5795 103.335 28.4635 103.325C28.351 103.314 28.2384 103.302 28.1258 103.288C28.0133 103.27 27.9131 103.255 27.8251 103.241L27.8462 102.887C27.9342 102.898 28.0326 102.91 28.1416 102.924C28.2542 102.938 28.3632 102.95 28.4687 102.961C28.5743 102.968 28.6587 102.971 28.722 102.971C28.8662 102.971 28.9858 102.959 29.0808 102.935C29.1757 102.906 29.2479 102.861 29.2971 102.797C29.3464 102.734 29.3709 102.644 29.3709 102.528C29.3709 102.44 29.3516 102.372 29.3129 102.322C29.2778 102.273 29.2092 102.233 29.1071 102.201C29.0087 102.169 28.8644 102.14 28.6745 102.111C28.4776 102.08 28.3123 102.041 28.1786 101.995C28.0485 101.946 27.9517 101.874 27.8884 101.779C27.8251 101.684 27.7934 101.549 27.7934 101.373C27.7934 101.176 27.8392 101.021 27.9306 100.909C28.0221 100.796 28.14 100.717 28.2841 100.671C28.4318 100.622 28.5848 100.597 28.7431 100.597C28.8417 100.597 28.9489 100.603 29.0649 100.613C29.1846 100.624 29.3007 100.638 29.4132 100.655C29.5257 100.669 29.6225 100.683 29.7033 100.697L29.6928 101.051C29.6084 101.037 29.5099 101.025 29.3973 101.014C29.2849 101 29.1723 100.989 29.0597 100.982C28.9472 100.972 28.8486 100.967 28.7642 100.967C28.6587 100.967 28.5637 100.979 28.4793 101.003C28.3949 101.025 28.3281 101.063 28.2788 101.12C28.2296 101.176 28.2049 101.255 28.2049 101.357C28.2049 101.434 28.2226 101.498 28.2577 101.547C28.293 101.593 28.3598 101.631 28.4582 101.663C28.5568 101.695 28.6992 101.726 28.8856 101.758C29.1037 101.793 29.2778 101.837 29.4079 101.89C29.5416 101.943 29.6383 102.016 29.6981 102.111C29.7579 102.206 29.7878 102.34 29.7878 102.512C29.7878 102.822 29.6964 103.038 29.5134 103.161C29.3305 103.281 29.0791 103.341 28.7589 103.341ZM31.3274 103.341C31.0636 103.341 30.8543 103.29 30.6995 103.188C30.5483 103.086 30.4393 102.935 30.3724 102.734C30.3056 102.534 30.2722 102.284 30.2722 101.985C30.2722 101.651 30.318 101.383 30.4094 101.183C30.5009 100.979 30.6293 100.831 30.7945 100.74C30.9599 100.645 31.1551 100.597 31.3802 100.597C31.732 100.597 31.9974 100.696 32.1768 100.893C32.3562 101.086 32.4459 101.399 32.4459 101.832L32.4248 102.143H30.689C30.6926 102.417 30.7436 102.625 30.842 102.766C30.9406 102.906 31.1181 102.977 31.3749 102.977C31.4734 102.977 31.5806 102.975 31.6967 102.971C31.8164 102.964 31.9341 102.957 32.0502 102.95C32.1663 102.943 32.2648 102.936 32.3457 102.929L32.3562 103.251C32.2718 103.265 32.1681 103.279 32.0449 103.293C31.9254 103.307 31.8022 103.318 31.6756 103.325C31.549 103.335 31.4329 103.341 31.3274 103.341ZM30.689 101.811H32.0344C32.0344 101.487 31.9816 101.262 31.8761 101.135C31.7742 101.005 31.6088 100.94 31.3802 100.94C31.1586 100.94 30.988 101.007 30.8684 101.141C30.7488 101.274 30.689 101.498 30.689 101.811ZM33.6324 103.341C33.3897 103.341 33.2051 103.272 33.0784 103.135C32.9518 102.998 32.8885 102.797 32.8885 102.534C32.8885 102.361 32.9184 102.221 32.9782 102.111C33.038 102.002 33.1277 101.92 33.2473 101.863C33.3704 101.804 33.5216 101.767 33.701 101.753L34.5135 101.674V101.447C34.5135 101.267 34.4731 101.141 34.3922 101.067C34.3148 100.993 34.1987 100.956 34.0439 100.956C33.956 100.956 33.8505 100.96 33.7274 100.967C33.6078 100.974 33.4882 100.982 33.3686 100.993C33.2491 101.003 33.1435 101.014 33.052 101.025L33.0309 100.713C33.1154 100.696 33.2174 100.678 33.337 100.661C33.4565 100.643 33.5815 100.629 33.7116 100.618C33.8417 100.604 33.9613 100.597 34.0703 100.597C34.2708 100.597 34.4344 100.629 34.561 100.692C34.6876 100.752 34.7791 100.845 34.8353 100.972C34.8952 101.095 34.925 101.253 34.925 101.447V102.782C34.9321 102.859 34.962 102.915 35.0147 102.95C35.071 102.986 35.1414 103.008 35.2258 103.019L35.2099 103.341C35.1326 103.341 35.0622 103.335 34.9989 103.325C34.9356 103.318 34.8758 103.306 34.8195 103.288C34.7738 103.27 34.7298 103.249 34.6876 103.225C34.6489 103.2 34.6103 103.17 34.5715 103.135C34.5048 103.163 34.4185 103.193 34.313 103.225C34.211 103.256 34.1002 103.283 33.9806 103.304C33.8646 103.329 33.7485 103.341 33.6324 103.341ZM33.701 102.998C33.796 102.998 33.8944 102.989 33.9965 102.971C34.0985 102.954 34.1951 102.933 34.2866 102.908C34.3781 102.884 34.4537 102.861 34.5135 102.84V101.98L33.7485 102.053C33.5902 102.068 33.4759 102.113 33.4055 102.191C33.3388 102.268 33.3053 102.379 33.3053 102.523C33.3053 102.671 33.3388 102.787 33.4055 102.871C33.4723 102.956 33.5709 102.998 33.701 102.998ZM35.7056 103.288V100.65H36.1119V101.003C36.1787 100.958 36.2631 100.909 36.3651 100.856C36.4672 100.8 36.5797 100.747 36.7028 100.697C36.826 100.648 36.949 100.613 37.0721 100.592V101.009C36.9526 101.033 36.8312 101.067 36.7081 101.109C36.5849 101.148 36.4707 101.19 36.3651 101.236C36.2631 101.281 36.1787 101.322 36.1119 101.357V103.288H35.7056ZM38.4592 103.341C38.1814 103.341 37.9633 103.295 37.805 103.204C37.6467 103.109 37.5343 102.957 37.4674 102.75C37.404 102.542 37.3724 102.268 37.3724 101.927C37.3724 101.607 37.4076 101.35 37.4779 101.156C37.5518 100.96 37.6696 100.817 37.8314 100.729C37.9933 100.641 38.2043 100.597 38.4645 100.597C38.5244 100.597 38.5964 100.603 38.6808 100.613C38.7689 100.62 38.8585 100.631 38.9499 100.645C39.0414 100.655 39.1206 100.666 39.1873 100.676L39.1715 101.014C39.1118 101.007 39.0432 101 38.9657 100.993C38.8884 100.986 38.8127 100.981 38.7389 100.977C38.665 100.97 38.6035 100.967 38.5542 100.967C38.3537 100.967 38.1972 100.998 38.0847 101.062C37.9757 101.125 37.8983 101.227 37.8525 101.368C37.8103 101.505 37.7892 101.691 37.7892 101.927C37.7892 102.184 37.8086 102.389 37.8472 102.544C37.886 102.695 37.9598 102.804 38.0688 102.871C38.1779 102.938 38.3397 102.971 38.5542 102.971C38.6035 102.971 38.665 102.97 38.7389 102.966C38.8163 102.959 38.8937 102.952 38.971 102.945C39.052 102.938 39.1223 102.933 39.1821 102.929L39.1926 103.267C39.1223 103.277 39.0414 103.288 38.9499 103.299C38.8585 103.309 38.7689 103.318 38.6808 103.325C38.5929 103.335 38.5191 103.341 38.4592 103.341ZM39.7811 103.288V99.5051H40.1874V100.792C40.2789 100.75 40.4002 100.708 40.5514 100.666C40.7062 100.62 40.854 100.597 40.9946 100.597C41.2373 100.597 41.422 100.641 41.5486 100.729C41.6788 100.814 41.7667 100.951 41.8124 101.141C41.8617 101.331 41.8863 101.58 41.8863 101.89V103.288H41.4747V101.906C41.4747 101.677 41.4607 101.494 41.4325 101.357C41.4079 101.22 41.357 101.121 41.2795 101.062C41.2022 100.998 41.0826 100.967 40.9207 100.967C40.7872 100.967 40.6517 100.984 40.5145 101.019C40.3773 101.055 40.2683 101.088 40.1874 101.12V103.288H39.7811ZM44.3545 103.341C44.1118 103.341 43.9271 103.272 43.8005 103.135C43.6739 102.998 43.6106 102.797 43.6106 102.534C43.6106 102.361 43.6404 102.221 43.7003 102.111C43.7601 102.002 43.8498 101.92 43.9693 101.863C44.0925 101.804 44.2437 101.767 44.4231 101.753L45.2356 101.674V101.447C45.2356 101.267 45.1952 101.141 45.1142 101.067C45.0369 100.993 44.9208 100.956 44.766 100.956C44.6781 100.956 44.5726 100.96 44.4494 100.967C44.3299 100.974 44.2102 100.982 44.0907 100.993C43.9711 101.003 43.8656 101.014 43.7741 101.025L43.753 100.713C43.8374 100.696 43.9395 100.678 44.059 100.661C44.1786 100.643 44.3035 100.629 44.4336 100.618C44.5637 100.604 44.6834 100.597 44.7924 100.597C44.9929 100.597 45.1564 100.629 45.2831 100.692C45.4097 100.752 45.5012 100.845 45.5574 100.972C45.6172 101.095 45.6471 101.253 45.6471 101.447V102.782C45.6542 102.859 45.684 102.915 45.7368 102.95C45.793 102.986 45.8634 103.008 45.9478 103.019L45.932 103.341C45.8547 103.341 45.7843 103.335 45.721 103.325C45.6577 103.318 45.5978 103.306 45.5416 103.288C45.4959 103.27 45.4519 103.249 45.4097 103.225C45.371 103.2 45.3323 103.17 45.2936 103.135C45.2268 103.163 45.1406 103.193 45.0351 103.225C44.933 103.256 44.8222 103.283 44.7027 103.304C44.5866 103.329 44.4706 103.341 44.3545 103.341ZM44.4231 102.998C44.518 102.998 44.6165 102.989 44.7185 102.971C44.8206 102.954 44.9172 102.933 45.0087 102.908C45.1002 102.884 45.1757 102.861 45.2356 102.84V101.98L44.4705 102.053C44.3123 102.068 44.198 102.113 44.1276 102.191C44.0608 102.268 44.0274 102.379 44.0274 102.523C44.0274 102.671 44.0608 102.787 44.1276 102.871C44.1944 102.956 44.293 102.998 44.4231 102.998ZM46.4277 103.288V100.65H46.834V100.835C46.8938 100.8 46.9677 100.764 47.0556 100.729C47.1471 100.694 47.2437 100.664 47.3457 100.639C47.4478 100.611 47.5462 100.597 47.6412 100.597C47.8839 100.597 48.0686 100.641 48.1952 100.729C48.3253 100.814 48.415 100.951 48.4643 101.141C48.5135 101.331 48.5381 101.58 48.5381 101.89V103.288H48.1266V101.906C48.1266 101.677 48.1126 101.494 48.0844 101.357C48.0598 101.22 48.007 101.121 47.9261 101.062C47.8488 100.998 47.7291 100.967 47.5673 100.967C47.4794 100.967 47.3879 100.977 47.293 100.998C47.2015 101.016 47.1154 101.04 47.0345 101.072C46.9535 101.1 46.8867 101.128 46.834 101.156V103.288H46.4277ZM50.1003 103.341C49.9948 103.341 49.8945 103.329 49.7996 103.304C49.7046 103.283 49.6166 103.244 49.5358 103.188C49.4583 103.132 49.3897 103.054 49.33 102.956C49.2702 102.854 49.2245 102.723 49.1928 102.565C49.1612 102.407 49.1453 102.215 49.1453 101.99C49.1453 101.677 49.1823 101.419 49.2561 101.215C49.33 101.007 49.4478 100.852 49.6096 100.75C49.7714 100.648 49.9859 100.597 50.2533 100.597C50.3552 100.597 50.4696 100.606 50.5962 100.624C50.7229 100.638 50.8213 100.652 50.8917 100.666V99.5051H51.3032V103.288H50.897V103.114C50.8406 103.146 50.7668 103.179 50.6754 103.214C50.5874 103.249 50.4924 103.279 50.3905 103.304C50.2919 103.329 50.1953 103.341 50.1003 103.341ZM50.1531 102.971C50.2444 102.971 50.3359 102.961 50.4274 102.94C50.5224 102.919 50.6103 102.894 50.6912 102.866C50.772 102.834 50.8389 102.806 50.8917 102.782V101.014C50.8495 101.007 50.7915 101 50.7176 100.993C50.6437 100.982 50.5663 100.974 50.4855 100.967C50.408 100.96 50.3377 100.956 50.2744 100.956C50.095 100.956 49.9543 100.995 49.8523 101.072C49.7503 101.15 49.6764 101.266 49.6307 101.42C49.5885 101.572 49.5674 101.762 49.5674 101.99C49.5674 102.201 49.5833 102.372 49.6149 102.502C49.6466 102.628 49.6888 102.727 49.7415 102.797C49.7978 102.864 49.8611 102.91 49.9315 102.935C50.0017 102.959 50.0756 102.971 50.1531 102.971ZM54.2842 103.335C54.1787 103.335 54.0555 103.329 53.9149 103.314C53.7741 103.304 53.6334 103.29 53.4928 103.272C53.3556 103.251 53.2343 103.234 53.1287 103.219L53.1709 102.871C53.2729 102.882 53.3907 102.894 53.5244 102.908C53.6616 102.922 53.7952 102.935 53.9254 102.945C54.059 102.956 54.1716 102.961 54.2631 102.961C54.5198 102.961 54.7115 102.903 54.8382 102.787C54.9648 102.671 55.0281 102.49 55.0281 102.243C55.0281 102.11 55.0017 102.004 54.949 101.927C54.8997 101.846 54.8153 101.783 54.6957 101.737C54.5796 101.688 54.423 101.644 54.2261 101.605C53.9729 101.552 53.7619 101.491 53.593 101.42C53.4277 101.346 53.3028 101.243 53.2184 101.109C53.1375 100.975 53.0971 100.794 53.0971 100.566C53.0971 100.33 53.1446 100.14 53.2395 99.9958C53.338 99.8516 53.4752 99.7461 53.6511 99.6792C53.8304 99.6124 54.0379 99.579 54.2736 99.579C54.3792 99.579 54.4987 99.586 54.6324 99.6001C54.7696 99.6106 54.9032 99.6248 55.0334 99.6423C55.167 99.6564 55.2814 99.6722 55.3763 99.6898L55.3394 100.043C55.2373 100.029 55.1195 100.017 54.9859 100.006C54.8522 99.9923 54.7238 99.9799 54.6007 99.9694C54.4776 99.9588 54.3792 99.9536 54.3053 99.9536C54.0484 99.9536 53.8532 100.001 53.7197 100.096C53.5894 100.191 53.5244 100.339 53.5244 100.539C53.5244 100.694 53.5525 100.812 53.6089 100.893C53.6686 100.974 53.7635 101.037 53.8938 101.083C54.0239 101.128 54.1945 101.176 54.4055 101.225C54.5884 101.267 54.7449 101.313 54.8751 101.362C55.0087 101.412 55.1178 101.473 55.2022 101.547C55.2901 101.617 55.3534 101.707 55.3921 101.816C55.4344 101.922 55.4555 102.053 55.4555 102.212C55.4555 102.479 55.408 102.695 55.313 102.861C55.218 103.026 55.0825 103.147 54.9068 103.225C54.7308 103.299 54.5233 103.335 54.2842 103.335ZM56.9073 103.346C56.7243 103.346 56.5784 103.318 56.4694 103.262C56.3639 103.205 56.2882 103.109 56.2425 102.971C56.1967 102.831 56.174 102.634 56.174 102.381V101.003H55.7994V100.65H56.174V99.8428H56.5802V100.65H57.4085V101.003H56.5802V102.259C56.5802 102.446 56.5872 102.592 56.6013 102.697C56.6188 102.799 56.6541 102.871 56.7068 102.913C56.7596 102.956 56.8422 102.977 56.9548 102.977C56.9899 102.977 57.0356 102.975 57.092 102.971C57.1482 102.968 57.2045 102.964 57.2608 102.961C57.3205 102.954 57.3733 102.949 57.4191 102.945L57.4455 103.288C57.368 103.299 57.2766 103.311 57.1711 103.325C57.0656 103.339 56.9776 103.346 56.9073 103.346ZM58.6937 103.341C58.4685 103.341 58.2962 103.295 58.1767 103.204C58.057 103.112 57.9744 102.97 57.9287 102.776C57.8865 102.583 57.8654 102.333 57.8654 102.027V100.65H58.2717V102.027C58.2717 102.259 58.2822 102.444 58.3033 102.581C58.3279 102.718 58.3789 102.818 58.4563 102.882C58.5337 102.942 58.6497 102.971 58.8045 102.971C58.9592 102.971 59.1 102.95 59.2266 102.908C59.3532 102.866 59.4552 102.824 59.5326 102.782V100.65H59.9389V103.288H59.5326V103.103C59.42 103.167 59.2969 103.223 59.1633 103.272C59.0331 103.318 58.8766 103.341 58.6937 103.341ZM61.5333 103.341C61.4278 103.341 61.3275 103.329 61.2326 103.304C61.1376 103.283 61.0497 103.244 60.9688 103.188C60.8914 103.132 60.8229 103.054 60.763 102.956C60.7033 102.854 60.6575 102.723 60.6258 102.565C60.5942 102.407 60.5784 102.215 60.5784 101.99C60.5784 101.677 60.6153 101.419 60.6892 101.215C60.763 101.007 60.8809 100.852 61.0426 100.75C61.2045 100.648 61.419 100.597 61.6863 100.597C61.7884 100.597 61.9026 100.606 62.0293 100.624C62.1559 100.638 62.2544 100.652 62.3247 100.666V99.5051H62.7362V103.288H62.33V103.114C62.2738 103.146 62.1999 103.179 62.1084 103.214C62.0205 103.249 61.9255 103.279 61.8235 103.304C61.725 103.329 61.6283 103.341 61.5333 103.341ZM61.5861 102.971C61.6776 102.971 61.7691 102.961 61.8604 102.94C61.9554 102.919 62.0434 102.894 62.1242 102.866C62.2052 102.834 62.272 102.806 62.3247 102.782V101.014C62.2825 101.007 62.2245 101 62.1506 100.993C62.0767 100.982 61.9994 100.974 61.9185 100.967C61.8411 100.96 61.7707 100.956 61.7074 100.956C61.528 100.956 61.3874 100.995 61.2853 101.072C61.1834 101.15 61.1096 101.266 61.0637 101.42C61.0215 101.572 61.0004 101.762 61.0004 101.99C61.0004 102.201 61.0163 102.372 61.0479 102.502C61.0796 102.628 61.1218 102.727 61.1745 102.797C61.2309 102.864 61.2942 102.91 61.3645 102.935C61.4349 102.959 61.5087 102.971 61.5861 102.971ZM63.4975 103.288V100.65H63.9038V103.288H63.4975ZM63.4975 100.07V99.5948H63.9038V100.07H63.4975ZM65.5957 103.341C65.3319 103.341 65.1227 103.29 64.9679 103.188C64.8167 103.086 64.7077 102.935 64.6408 102.734C64.574 102.534 64.5405 102.284 64.5405 101.985C64.5405 101.651 64.5863 101.383 64.6777 101.183C64.7692 100.979 64.8976 100.831 65.0628 100.74C65.2282 100.645 65.4234 100.597 65.6485 100.597C66.0003 100.597 66.2658 100.696 66.4452 100.893C66.6245 101.086 66.7142 101.399 66.7142 101.832L66.6931 102.143H64.9573C64.9609 102.417 65.0119 102.625 65.1103 102.766C65.2089 102.906 65.3865 102.977 65.6432 102.977C65.7418 102.977 65.849 102.975 65.965 102.971C66.0847 102.964 66.2025 102.957 66.3185 102.95C66.4346 102.943 66.5332 102.936 66.614 102.929L66.6245 103.251C66.5401 103.265 66.4364 103.279 66.3133 103.293C66.1937 103.307 66.0706 103.318 65.9439 103.325C65.8173 103.335 65.7012 103.341 65.5957 103.341ZM64.9573 101.811H66.3027C66.3027 101.487 66.25 101.262 66.1444 101.135C66.0425 101.005 65.8772 100.94 65.6485 100.94C65.4269 100.94 65.2564 101.007 65.1367 101.141C65.0172 101.274 64.9573 101.498 64.9573 101.811ZM68.1487 103.341C68.0679 103.341 67.9693 103.335 67.8533 103.325C67.7408 103.314 67.6282 103.302 67.5156 103.288C67.4031 103.27 67.3029 103.255 67.2149 103.241L67.236 102.887C67.324 102.898 67.4224 102.91 67.5314 102.924C67.644 102.938 67.753 102.95 67.8585 102.961C67.9641 102.968 68.0485 102.971 68.1118 102.971C68.256 102.971 68.3756 102.959 68.4706 102.935C68.5655 102.906 68.6377 102.861 68.6869 102.797C68.7362 102.734 68.7607 102.644 68.7607 102.528C68.7607 102.44 68.7414 102.372 68.7027 102.322C68.6676 102.273 68.599 102.233 68.4969 102.201C68.3985 102.169 68.2542 102.14 68.0643 102.111C67.8674 102.08 67.7021 102.041 67.5684 101.995C67.4383 101.946 67.3415 101.874 67.2782 101.779C67.2149 101.684 67.1832 101.549 67.1832 101.373C67.1832 101.176 67.229 101.021 67.3204 100.909C67.4119 100.796 67.5297 100.717 67.6739 100.671C67.8216 100.622 67.9746 100.597 68.1329 100.597C68.2315 100.597 68.3387 100.603 68.4547 100.613C68.5744 100.624 68.6905 100.638 68.8029 100.655C68.9155 100.669 69.0123 100.683 69.0931 100.697L69.0826 101.051C68.9982 101.037 68.8997 101.025 68.7871 101.014C68.6746 101 68.562 100.989 68.4494 100.982C68.337 100.972 68.2384 100.967 68.154 100.967C68.0485 100.967 67.9535 100.979 67.8691 101.003C67.7847 101.025 67.7179 101.063 67.6686 101.12C67.6194 101.176 67.5947 101.255 67.5947 101.357C67.5947 101.434 67.6124 101.498 67.6475 101.547C67.6827 101.593 67.7495 101.631 67.848 101.663C67.9465 101.695 68.089 101.726 68.2753 101.758C68.4935 101.793 68.6676 101.837 68.7977 101.89C68.9314 101.943 69.0281 102.016 69.0879 102.111C69.1477 102.206 69.1775 102.34 69.1775 102.512C69.1775 102.822 69.0862 103.038 68.9032 103.161C68.7203 103.281 68.4689 103.341 68.1487 103.341ZM72.2089 103.341C71.9345 103.341 71.7094 103.3 71.5335 103.219C71.3612 103.139 71.2258 103.019 71.1273 102.861C71.0288 102.702 70.9602 102.507 70.9215 102.275C70.8864 102.043 70.8687 101.776 70.8687 101.473C70.8687 101.164 70.8864 100.891 70.9215 100.655C70.9602 100.42 71.0288 100.223 71.1273 100.064C71.2258 99.9061 71.3612 99.7865 71.5335 99.7056C71.7094 99.6248 71.9345 99.5842 72.2089 99.5842C72.3355 99.5842 72.4604 99.5913 72.5834 99.6053C72.7101 99.6159 72.8279 99.6317 72.9369 99.6528C73.0461 99.6705 73.1392 99.6881 73.2166 99.7056L73.2007 100.059C73.1234 100.045 73.0284 100.031 72.9158 100.017C72.8034 100.003 72.689 99.9905 72.5729 99.9799C72.4568 99.9694 72.3513 99.9641 72.2563 99.9641C72.0559 99.9641 71.8923 99.9941 71.7657 100.054C71.6426 100.114 71.5477 100.207 71.4808 100.333C71.414 100.457 71.3683 100.613 71.3436 100.803C71.319 100.989 71.3067 101.213 71.3067 101.473C71.3067 101.726 71.319 101.948 71.3436 102.138C71.3683 102.324 71.4122 102.479 71.4755 102.602C71.5424 102.722 71.639 102.811 71.7657 102.871C71.8923 102.931 72.0577 102.961 72.2616 102.961C72.4093 102.961 72.5712 102.952 72.747 102.935C72.9264 102.913 73.0777 102.892 73.2007 102.871L73.2166 103.23C73.1322 103.248 73.0337 103.265 72.9211 103.283C72.8086 103.3 72.6908 103.314 72.5676 103.325C72.4446 103.335 72.3249 103.341 72.2089 103.341ZM74.6948 103.341C74.431 103.341 74.2218 103.29 74.067 103.188C73.9158 103.086 73.8068 102.935 73.7399 102.734C73.6731 102.534 73.6396 102.284 73.6396 101.985C73.6396 101.651 73.6854 101.383 73.7768 101.183C73.8683 100.979 73.9967 100.831 74.1619 100.74C74.3273 100.645 74.5225 100.597 74.7476 100.597C75.0994 100.597 75.3649 100.696 75.5443 100.893C75.7236 101.086 75.8133 101.399 75.8133 101.832L75.7922 102.143H74.0564C74.06 102.417 74.111 102.625 74.2094 102.766C74.308 102.906 74.4856 102.977 74.7423 102.977C74.8409 102.977 74.9481 102.975 75.0641 102.971C75.1838 102.964 75.3016 102.957 75.4176 102.95C75.5337 102.943 75.6323 102.936 75.7131 102.929L75.7236 103.251C75.6392 103.265 75.5355 103.279 75.4124 103.293C75.2928 103.307 75.1697 103.318 75.043 103.325C74.9164 103.335 74.8003 103.341 74.6948 103.341ZM74.0564 101.811H75.4018C75.4018 101.487 75.349 101.262 75.2435 101.135C75.1416 101.005 74.9762 100.94 74.7476 100.94C74.526 100.94 74.3555 101.007 74.2358 101.141C74.1163 101.274 74.0564 101.498 74.0564 101.811ZM76.4248 103.288V100.65H76.831V100.835C76.8908 100.8 76.9647 100.764 77.0526 100.729C77.1441 100.694 77.2407 100.664 77.3428 100.639C77.4448 100.611 77.5433 100.597 77.6382 100.597C77.8809 100.597 78.0656 100.641 78.1922 100.729C78.3223 100.814 78.412 100.951 78.4613 101.141C78.5106 101.331 78.5352 101.58 78.5352 101.89V103.288H78.1236V101.906C78.1236 101.677 78.1096 101.494 78.0814 101.357C78.0568 101.22 78.0041 101.121 77.9231 101.062C77.8458 100.998 77.7261 100.967 77.5644 100.967C77.4765 100.967 77.385 100.977 77.29 100.998C77.1985 101.016 77.1124 101.04 77.0315 101.072C76.9506 101.1 76.8838 101.128 76.831 101.156V103.288H76.4248ZM80.1135 103.346C79.9307 103.346 79.7846 103.318 79.6756 103.262C79.5701 103.205 79.4944 103.109 79.4488 102.971C79.4031 102.831 79.3802 102.634 79.3802 102.381V101.003H79.0056V100.65H79.3802V99.8428H79.7864V100.65H80.6148V101.003H79.7864V102.259C79.7864 102.446 79.7935 102.592 79.8075 102.697C79.8251 102.799 79.8603 102.871 79.913 102.913C79.9658 102.956 80.0484 102.977 80.161 102.977C80.1961 102.977 80.2419 102.975 80.2982 102.971C80.3544 102.968 80.4108 102.964 80.467 102.961C80.5269 102.954 80.5796 102.949 80.6253 102.945L80.6517 103.288C80.5743 103.299 80.4829 103.311 80.3773 103.325C80.2718 103.339 80.1839 103.346 80.1135 103.346ZM82.0318 103.341C81.768 103.341 81.5587 103.29 81.404 103.188C81.2527 103.086 81.1437 102.935 81.0769 102.734C81.01 102.534 80.9766 102.284 80.9766 101.985C80.9766 101.651 81.0223 101.383 81.1138 101.183C81.2052 100.979 81.3336 100.831 81.499 100.74C81.6642 100.645 81.8594 100.597 82.0846 100.597C82.4363 100.597 82.7019 100.696 82.8813 100.893C83.0607 101.086 83.1504 101.399 83.1504 101.832L83.1292 102.143H81.3934C81.3969 102.417 81.4479 102.625 81.5464 102.766C81.6449 102.906 81.8225 102.977 82.0793 102.977C82.1778 102.977 82.2851 102.975 82.4012 102.971C82.5207 102.964 82.6386 102.957 82.7547 102.95C82.8707 102.943 82.9692 102.936 83.0501 102.929L83.0607 103.251C82.9762 103.265 82.8724 103.279 82.7494 103.293C82.6297 103.307 82.5067 103.318 82.3801 103.325C82.2534 103.335 82.1374 103.341 82.0318 103.341ZM81.3934 101.811H82.7388C82.7388 101.487 82.6861 101.262 82.5805 101.135C82.4785 101.005 82.3131 100.94 82.0846 100.94C81.863 100.94 81.6924 101.007 81.5728 101.141C81.4532 101.274 81.3934 101.498 81.3934 101.811ZM83.7618 103.288V100.65H84.168V101.003C84.2348 100.958 84.3192 100.909 84.4213 100.856C84.5232 100.8 84.6358 100.747 84.7589 100.697C84.882 100.648 85.0051 100.613 85.1283 100.592V101.009C85.0086 101.033 84.8872 101.067 84.7642 101.109C84.6411 101.148 84.5268 101.19 84.4213 101.236C84.3192 101.281 84.2348 101.322 84.168 101.357V103.288H83.7618Z" fill="#2A8442"/>
</g>
<defs>
<clipPath id="clip0_142_5815">
<rect width="85.1357" height="106" fill="white" transform="translate(0.932129)"/>
</clipPath>
</defs>
</svg>
