<svg width="87" height="86" viewBox="0 0 87 86" fill="none" xmlns="http://www.w3.org/2000/svg">
<g id="Group 3675">
<path id="Vector" d="M13.8919 34.273C13.9503 34.2968 14.0113 34.3137 14.0735 34.3234C17.5746 34.3342 21.0751 34.3594 24.5756 34.3456C26.3458 34.339 27.9527 33.6708 29.5448 32.9569C30.6256 32.4728 31.7123 31.9887 32.829 31.6102C33.3439 31.4362 33.9457 31.4698 34.4999 31.4938C34.9795 31.5154 35.4009 31.4602 35.807 31.1813C37.7136 29.8718 39.8153 29.2857 42.1045 29.5472C42.9103 29.639 43.7084 29.8472 44.4931 30.0691C45.625 30.3877 46.7787 30.3733 47.933 30.4068C49.7779 30.4608 51.6134 30.5868 53.393 31.1549C54.5798 31.5317 55.6727 32.1661 56.5967 33.0145C57.262 33.6192 58.0413 34.0859 58.9212 34.0943C63.9122 34.1315 68.9031 34.1123 73.9729 34.1123C72.9679 25.4183 68.7709 18.5755 61.9991 13.2163C62.2653 12.8516 62.5175 12.5084 62.7678 12.1641C63.0182 11.8198 63.2709 11.47 63.536 11.1041C65.2724 12.4212 66.8852 13.9 68.3536 15.5216C72.4883 20.0662 75.079 25.4195 76.2756 31.4782C77.4546 37.4512 76.858 43.2735 74.7628 48.9603C72.8468 54.1612 69.9187 58.6537 65.7276 62.2175C61.1628 66.0975 55.9614 68.6734 50.1059 69.8161C46.6383 70.4922 43.166 70.5264 39.6749 70.0381C34.7597 69.35 30.1325 67.8185 25.9867 65.0069C18.5731 59.9812 13.7485 53.0958 11.8813 44.1427C11.4216 41.9394 11.1284 39.7139 11.1554 37.4632C11.263 28.6378 14.3209 21.0446 20.3898 14.7448C21.3466 13.7514 22.3992 12.8516 23.4289 11.9338C24.0443 11.3855 24.3898 11.4455 24.8894 12.0957C25.0356 12.2998 25.1926 12.4957 25.3596 12.6824C25.8298 13.1713 25.8386 13.3021 25.3302 13.7676C24.5773 14.4574 23.791 15.1107 23.0545 15.8185C18.529 20.167 15.6027 25.4249 14.4232 31.6738C14.2604 32.5424 14.0705 33.4038 13.8919 34.273ZM46.6512 32.5676C46.4161 32.1573 46.1992 31.7308 45.9289 31.345C45.8672 31.267 45.7909 31.2023 45.7044 31.1547C45.6179 31.1071 45.523 31.0776 45.4252 31.0679C44.6841 31.0373 43.9412 31.0499 43.1995 31.0595C43.0719 31.0595 42.945 31.1231 42.8174 31.1567C42.8174 31.2065 42.8174 31.2557 42.8174 31.3049C43.106 31.4044 43.414 31.4668 43.6791 31.6114C44.1134 31.8477 44.764 31.7452 44.9321 32.4134C44.0846 32.2785 43.2353 32.1549 42.3908 32.0049C41.2024 31.7938 40.061 31.9209 38.9955 32.5052C37.6778 33.225 36.9831 34.4212 36.6087 35.8609C36.2766 37.1374 35.8388 37.3774 34.5587 37.195C34.152 37.135 33.7212 37.2514 33.3016 37.2868C33.278 37.3558 33.254 37.4242 33.2299 37.4931C33.4926 37.8387 33.6853 38.321 34.0303 38.5039C35.147 39.0942 36.2719 39.0606 37.3216 38.258C38.1303 37.6395 38.9496 37.0342 39.7689 36.4302C40.366 35.9899 40.9714 35.5604 41.5773 35.123C41.6802 35.2334 41.7431 35.2964 41.8013 35.363C42.6241 36.3108 43.4869 36.4356 44.5636 35.7625C46.0641 34.8219 48.1787 34.9269 49.5634 36.0487C51.7456 37.8165 53.9284 39.5849 56.0754 41.3971C56.7807 41.9898 57.3943 42.5405 58.2612 41.7271C58.2911 41.6989 58.3611 41.7145 58.5286 41.6983V44.7054C59.4319 44.2075 59.7105 43.3995 59.8862 42.5153C60.0038 41.9154 60.1536 41.3155 60.2976 40.6773C61.4549 41.4247 61.6177 42.8026 60.7566 43.9076C60.2154 44.6022 59.6341 45.2645 59.0787 45.9472C58.4169 46.7624 58.3775 47.4972 58.9329 48.3754C59.3391 49.0179 59.5865 49.0407 60.2518 48.6946C60.7807 48.4198 61.3597 48.0839 61.9215 48.0737C64.0326 48.0353 66.1479 48.0875 68.2584 48.1739C69.036 48.2057 69.8159 48.4102 70.1203 49.4936C69.6642 49.595 69.217 49.775 68.7685 49.7792C66.3906 49.8013 64.008 49.7192 61.6353 49.7983C60.3646 49.8409 59.1668 50.2866 58.3094 51.358C59.0769 52.3604 59.4155 52.5944 60.4516 52.6369C63.2198 52.7515 65.9904 52.8265 68.7585 52.9411C69.5814 52.9753 70.1203 52.6166 70.5335 51.9135C72.165 49.1409 73.1724 46.1337 73.7207 42.9682C73.9793 41.4745 74.121 39.958 74.2703 38.4469C74.3378 37.7649 74.1216 37.5471 73.4598 37.4128C73.3025 37.3853 73.1433 37.3711 72.9837 37.3702C70.1779 37.2832 67.3715 37.2088 64.5663 37.1038C63.9427 37.081 63.3908 37.1962 62.8425 37.5105C60.4728 38.8681 57.4354 38.2904 55.8268 36.0708C54.197 33.8213 52.0653 32.7661 49.3553 32.7805C48.4532 32.7859 47.5522 32.6432 46.6512 32.5676ZM30.3124 54.9381C30.3982 53.9537 30.4887 53.0227 30.5575 52.0905C30.6057 51.4498 30.7079 50.8481 31.1781 50.3556C32.2948 49.1883 33.3791 47.9915 34.5005 46.8296C34.8916 46.4349 35.3139 46.0738 35.763 45.7498C36.4218 45.2615 36.9255 45.3113 37.5291 45.8698C37.6616 45.9903 37.7871 46.1185 37.9052 46.2537C38.4971 46.943 39.1583 47.493 40.054 47.7672C41.0031 48.0581 41.5051 48.8194 41.5062 49.8139C41.5062 51.0137 42.0352 51.7689 43.0743 52.2734C43.9906 52.7191 44.2268 53.3904 43.9218 54.3826C43.8424 54.6405 43.722 54.8847 43.6279 55.1384C43.2447 56.1816 42.8357 57.217 42.5042 58.2776C42.4166 58.5565 42.4654 59.0682 42.6447 59.2008C42.915 59.4005 43.3687 59.4527 43.7202 59.3999C44.2327 59.3237 44.5219 58.86 44.5224 58.2734C44.5224 57.8079 44.4719 57.3424 44.4549 57.0628C44.8516 56.6429 45.2918 56.3682 45.4234 55.983C45.5451 55.6279 45.4152 55.1198 45.2559 54.7407C44.7352 53.4996 44.1628 52.2812 43.5874 51.0653C42.9326 49.6814 43.0143 48.3778 43.9294 47.1445C44.5501 46.3047 45.1519 45.4547 45.8102 44.6466C46.1804 44.1907 46.6424 43.8122 47.0626 43.3989L47.2918 43.5297C47.2154 43.9496 47.1943 44.3917 47.052 44.7894C46.7141 45.7324 46.851 46.574 47.4846 47.3173C47.7929 47.6662 48.1302 47.9873 48.4925 48.2771C50.2064 49.6994 51.0198 51.4942 50.7159 53.7635C50.6401 54.3334 50.5331 54.9033 50.4996 55.4737C50.4749 55.8937 50.6948 56.0436 51.1226 55.9063C52.3304 55.5181 52.9481 54.1354 52.378 52.8745C51.9548 51.9399 52.0254 51.1991 52.8076 50.502C53.3601 50.0077 53.4406 49.3418 52.9992 48.6856C52.6225 48.1271 52.1729 47.5812 51.6475 47.1739C50.0183 45.9112 48.5772 44.4937 47.6015 42.6317C46.9033 41.2975 46.3761 41.06 44.8904 41.192C44.1569 41.2568 43.4022 41.1986 42.6688 41.102C42.2985 41.0528 41.9541 40.7949 41.5973 40.6317C41.5973 40.5639 41.5932 40.4961 41.5909 40.4289C41.8982 40.249 42.2009 39.9196 42.513 39.9094C44.5906 39.844 46.67 39.8363 48.7482 39.8429C48.9557 39.8429 49.2948 40.0228 49.3436 40.1902C49.4671 40.6075 49.5108 41.0451 49.4723 41.4793C49.3677 42.5051 49.6433 43.1038 50.5508 43.5459C50.8529 43.6928 51.1691 43.811 51.4835 43.9298C54.5056 45.0737 55.8973 47.9417 54.7072 51.0983C54.4656 51.7383 54.3892 52.4636 54.3492 53.1558C54.311 53.8295 54.656 54.2356 55.2091 54.343C55.6076 54.4192 56.0149 54.4456 56.4081 54.4936C56.5015 54.232 56.5015 54.232 55.9155 53.1036C56.163 52.9309 56.4233 52.7731 56.6567 52.5812C57.1803 52.1516 57.2144 51.8499 56.9006 51.2266C56.8336 51.0947 56.8459 50.8877 56.8906 50.7365C57.1151 49.9783 57.376 49.2315 57.5959 48.4726C57.734 47.9975 57.7428 47.4438 57.2908 47.1955C56.2276 46.613 56.297 45.7792 56.6326 44.8308C56.6502 44.7804 56.6796 44.7174 56.6649 44.6736C56.5626 44.3653 56.5379 43.9592 56.3281 43.769C53.8597 41.5333 51.3442 39.3492 48.8799 37.1104C47.933 36.2496 46.9703 36.2292 45.893 36.7337C44.6347 37.3222 43.347 37.3444 42.0846 36.7877C41.6831 36.6107 41.4492 36.6935 41.1442 36.9383C39.4797 38.2909 37.5951 39.3344 35.5767 40.021C34.4288 40.4115 33.0535 39.8243 32.2513 38.6653C31.5196 37.6071 31.5572 36.8657 32.3935 35.6527C32.6221 35.3228 32.8343 34.9809 33.0541 34.6444L32.9601 34.483C32.6127 34.5544 32.2084 34.5322 31.9286 34.7121C29.7188 36.1326 27.6165 37.7037 25.7028 39.5267C25.4125 39.8027 25.0981 40.0534 24.7495 40.3551C24.642 39.8261 24.5474 39.3893 24.4668 38.9496C24.4181 38.6857 24.304 38.5231 24.0143 38.5519C23.3831 38.6119 22.7524 38.7055 22.1195 38.7271C21.5416 38.7395 20.9634 38.7146 20.3886 38.6527C20.2852 38.6431 20.1994 38.4361 20.1059 38.3204C20.2058 38.237 20.2934 38.1182 20.408 38.0768C20.7888 37.9377 21.1809 37.8303 21.567 37.7037C22.1494 37.5129 22.7307 37.3168 23.3125 37.123L23.3002 36.9677C22.977 36.9173 22.6502 36.8099 22.3305 36.8273C20.5402 36.9251 18.7506 37.0378 16.9627 37.1776C16.2034 37.2267 15.4484 37.3309 14.7035 37.4895C14.0376 37.6401 13.7379 38.1164 13.8131 38.7655C13.8595 39.168 13.9894 39.5603 14.0747 39.9244C16.3227 39.7811 18.4432 39.9478 20.6161 40.841C19.822 41.1938 19.1755 41.4337 18.4415 41.3083C17.4658 41.1404 16.492 40.9244 15.5081 40.8512C14.3838 40.7673 13.9124 41.3353 14.1364 42.4625C14.8128 45.8716 15.8608 49.1499 17.5528 52.19C17.7967 52.6273 18.1558 52.8499 18.6436 52.9615C20.3322 53.3418 21.9855 53.1612 23.6293 52.7131C24.3934 52.5044 24.5503 52.283 24.5603 51.379C24.2635 51.3646 23.9602 51.3076 23.6681 51.343C22.5785 51.4762 21.4865 51.604 20.4074 51.8025C19.6492 51.9423 19.1896 51.5482 18.6766 51.0401C19.7468 50.8367 20.7495 50.643 21.7533 50.4576C22.7789 50.268 23.8039 50.0725 24.8336 49.9069C25.8462 49.7444 26.8612 49.5674 27.8821 49.487C28.7543 49.418 29.1628 49.8211 29.2603 50.6982C29.3191 51.2188 29.3344 51.7443 29.372 52.2674C29.4343 53.1438 29.4984 54.0197 29.5624 54.9027L30.3124 54.9381ZM68.0315 55.8487C66.8878 55.7971 65.8229 55.7785 64.7632 55.6933C63.4925 55.5913 62.2295 55.397 60.9582 55.307C59.3026 55.187 58.0037 55.8619 57.071 57.2782C56.4944 58.1522 55.9085 58.2644 55.0627 57.6195C54.5338 57.2146 54.0636 57.2314 53.4959 57.5295C51.6945 58.4797 49.8761 59.3957 48.0612 60.3201C47.9377 60.3801 47.7902 60.4503 47.6603 60.4401C46.7552 60.3585 46.1222 60.8 45.5445 61.4599C44.9962 62.0844 44.2985 62.4545 43.4557 62.1257C43.0396 61.9632 42.7299 62.0322 42.3784 62.2721C41.5932 62.8078 40.7257 63.0118 39.803 62.731C39.2817 62.5726 38.7933 62.2967 38.269 62.1551C37.9211 62.061 37.4462 61.962 37.1835 62.1251C36.4359 62.5876 35.78 62.5283 35.1235 62.0256C34.5605 61.5949 33.9551 61.2163 33.2487 61.2289C32.4494 61.2427 31.7206 61.049 30.9789 60.7904C30.1231 60.4905 29.2821 60.5445 28.4857 61.0592C28.3094 61.1731 28.0379 61.2091 27.8257 61.1791C25.5724 60.836 23.9873 59.6195 23.1721 57.4143C23.0169 56.9944 22.8782 56.5505 22.6343 56.1876C22.4509 55.9159 22.1118 55.5919 21.8327 55.5823C21.2449 55.5631 20.6572 55.7359 19.9842 55.8427C32.0309 71.7123 55.939 71.7999 68.0298 55.8487H68.0315ZM47.9507 53.8535C48.3262 53.6813 48.6736 53.5458 48.9992 53.3682C50.1705 52.7299 50.3586 51.9177 49.4488 50.9423C48.7582 50.2015 47.9501 49.5686 47.1566 48.9399C46.831 48.6826 46.412 48.532 46.0153 48.3934C45.8454 48.3335 45.5128 48.3599 45.4428 48.4708C45.0314 49.1235 44.6006 49.8109 44.9685 50.634C45.3024 51.3874 45.7003 52.1139 46.0529 52.8577C46.6106 54.0299 46.8451 55.2362 46.442 56.5223C46.3244 56.8948 46.2304 57.2956 46.2345 57.6819C46.2427 58.4455 46.7411 58.7083 47.3759 58.3117C48.0682 57.8798 48.5284 57.2734 48.7094 56.4425C48.9269 55.4402 48.4984 54.6501 47.9507 53.8535ZM40.3155 52.2884C40.2855 52.2134 40.2567 52.139 40.2267 52.0641C40.0634 52.0641 39.843 51.9939 39.7454 52.0755C39.15 52.5752 38.6317 52.4108 38.1139 51.9555C37.9816 51.8391 37.8294 51.7119 37.6672 51.673C37.4562 51.6226 37.1905 51.5782 37.0101 51.6652C36.2831 52.0167 35.9457 52.7449 35.529 53.3886C35.3439 53.6759 35.3527 53.9219 35.5455 54.2242C35.7124 54.487 35.8053 54.8127 35.8729 55.124C36.0633 55.9992 35.7929 56.8223 35.4262 57.5763C34.9137 58.6309 35.703 59.5949 36.5376 59.8816C37.3475 60.16 38.0069 59.5325 37.8206 58.6867C37.7942 58.5269 37.749 58.371 37.686 58.2224C37.1312 57.1072 37.4021 56.1516 38.1438 55.223C38.9026 54.2734 39.5944 53.2686 40.3155 52.2884ZM25.3555 53.4846C25.4795 54.9758 25.5906 56.4299 25.7275 57.8804C25.7863 58.4965 26.1977 58.845 26.7572 58.9704C27.6165 59.1624 28.4534 59.0556 29.2004 58.5637C29.8005 58.1684 30.0003 57.5577 29.9539 56.7971C29.8438 56.823 29.7352 56.8554 29.6289 56.8942C29.1945 57.091 28.7725 57.3208 28.3276 57.4887C27.8186 57.6807 27.5312 57.4761 27.523 56.9242C27.526 56.5989 27.5585 56.2746 27.62 55.9554C27.7422 55.2206 27.8827 54.4894 28.0185 53.7413L25.3555 53.4846ZM41.2758 60.5823C41.347 59.9356 41.5286 59.3903 41.4304 58.9026C41.2911 58.2122 41.2688 57.5871 41.602 56.9698C41.8577 56.4965 42.1457 56.0406 42.3808 55.5577C42.4395 55.4318 42.4201 55.1564 42.3308 55.0778C41.9276 54.7347 41.4868 54.4384 41.0672 54.1306C40.1474 54.7767 39.6032 55.6219 39.5979 56.7287C39.5935 57.5394 39.6622 58.3489 39.803 59.1468C39.8618 59.4653 40.1603 59.7634 40.4048 60.0154C40.5958 60.2157 40.8721 60.3285 41.2758 60.5823ZM33.8282 49.601C33.2704 50.304 32.6421 50.9351 32.2031 51.6819C31.439 52.9783 31.7047 53.6543 33.1352 53.9423C33.3838 53.9927 33.7947 53.8859 33.9345 53.6987C34.651 52.7431 35.2975 51.7383 35.9657 50.7521C35.2675 50.2458 34.3495 50.4132 33.8282 49.601ZM37.0019 46.919C36.2796 47.1091 35.5473 47.2189 35.2322 47.9849C35.1323 48.2249 35.1217 48.628 35.2569 48.82C35.4609 49.1103 35.827 49.1841 36.2055 48.9951C36.9543 48.6196 37.1947 48.0539 37.0019 46.919ZM40.3455 50.1835C40.0469 49.7887 39.8059 49.4708 39.5656 49.1523C39.5038 49.1875 39.4449 49.2277 39.3892 49.2723C39.15 49.5122 38.9097 49.7522 38.6775 50.0011C38.2003 50.5098 38.2073 50.5932 38.8115 51.1223L40.3455 50.1835ZM28.1795 51.7797L27.3779 51.1853C26.3282 52.2758 26.2935 52.406 26.9159 52.9249C27.1733 52.6849 27.4331 52.445 27.6958 52.205C27.8404 52.0701 27.9897 51.9459 28.1807 51.7797H28.1795ZM47.3717 32.3948V32.438H47.5293V32.3966L47.3717 32.3948Z" fill="#252223"/>
<path id="Vector_2" d="M33.8593 71.7688C34.5417 72.1059 35.2205 72.4508 35.9075 72.7777C36.9267 73.2624 37.2464 73.2276 37.9187 72.3578C39.3587 70.4928 42.0364 71.3614 42.9144 73.2534C43.0502 73.545 43.1407 73.8587 43.2471 74.164C43.3059 74.3338 43.3164 74.5342 43.414 74.6739C43.5821 74.9139 43.8536 75.3338 43.987 75.2984C44.2674 75.2246 44.5606 74.9499 44.7123 74.6781C44.9268 74.293 44.9909 73.8245 45.1666 73.4124C45.789 71.9535 47.1361 71.1539 48.6771 71.3518C49.4065 71.4454 49.9301 71.8995 50.3139 72.5294C50.8335 73.3812 51.0074 73.4292 51.8861 72.9625C52.716 72.5226 53.5454 72.0827 54.3745 71.6428L54.5162 71.7298C54.3011 72.2475 54.1471 72.8041 53.8597 73.2762C52.6466 75.2738 50.8299 76.3584 48.5972 76.7771C48.355 76.8227 48.1011 76.8551 47.8795 76.9571C47.1584 77.2846 47.0567 77.7789 47.5616 78.3896C48.8299 79.9252 48.9134 81.101 47.993 82.8646C47.8249 83.1867 47.8966 83.699 47.9894 84.0913C48.1905 84.9432 47.8795 85.3553 47.0397 85.1285C46.4949 84.9755 45.9765 84.7376 45.5028 84.4231C44.8686 84.0074 44.68 83.2899 44.9074 82.4993C45.0949 81.8394 45.3811 81.2036 45.4857 80.5341C45.5815 79.9168 45.4934 79.2702 45.4857 78.5623C45.1807 78.6337 45.0291 78.6607 44.8821 78.7051C44.4296 78.8413 44.0123 78.8413 43.5539 78.6277C42.7675 78.2624 42.3678 78.5503 42.496 79.4309C42.6082 80.2108 42.8404 80.9768 43.0996 81.7201C43.4011 82.5863 43.5445 83.4147 42.9062 84.1723C42.2468 84.9564 41.3693 85.1729 40.3995 85.0385C39.8494 84.9618 39.7325 84.6954 40.0469 84.2245C40.376 83.7296 40.3578 83.2113 40.1092 82.7338C39.3369 81.2515 39.5009 79.9054 40.5112 78.5989C41.1677 77.7501 40.9226 77.185 39.8906 76.8479C38.8197 76.497 37.716 76.1934 36.7227 75.6697C35.2975 74.9163 34.4347 73.599 33.8893 72.0705C33.8558 71.9769 33.8734 71.8641 33.8675 71.7598L33.8593 71.7688ZM47.7544 75.572C48.8458 75.4784 49.6028 74.8623 49.7368 73.8923C49.8079 73.3788 49.5781 73.0783 49.0856 73.0765C48.231 73.0765 47.5387 73.4286 47.0726 74.1562C46.8781 74.461 46.7823 74.8311 46.6418 75.1712L47.7544 75.572ZM41.5956 75.2348C41.3752 73.8707 40.4401 73.0207 39.2394 73.0753C38.7927 73.0945 38.6034 73.3008 38.6205 73.7561C38.6751 75.1898 40.2849 75.9949 41.5956 75.2348Z" fill="#2A8442"/>
<path id="Vector_3" d="M47.5532 5.6742C46.5141 5.48224 45.7771 4.44446 44.7009 5.31008C44.9043 3.97416 45.6936 3.49306 46.8297 3.93937C47.9464 4.37907 49.0736 4.80618 50.225 5.24949C50.205 5.29388 50.1609 5.40426 50.1075 5.50984C49.6749 6.34546 49.6761 6.33586 48.7445 6.20089C48.4777 6.1625 48.2015 6.19489 47.9299 6.19489L47.8606 6.43064C48.0445 6.54102 48.2167 6.70658 48.4142 6.75097C48.915 6.86195 49.4275 6.91594 49.9347 6.99872C50.1269 7.02991 50.3608 7.01912 50.4989 7.12829C51.0513 7.5644 51.4763 7.44023 51.9282 6.94833C52.2021 6.64839 52.5589 6.41624 52.9127 6.21589C53.7684 5.73119 54.355 6.04132 54.4014 7.02512C54.4308 7.65498 54.4655 8.32804 54.2838 8.90992C54.1563 9.31243 53.6585 9.59257 53.253 10.0011L51.458 8.25126C51.0743 8.79954 50.5177 8.65317 49.8929 8.38623C49.5115 8.22246 49.0654 8.21946 48.6505 8.13488C47.4027 7.88053 47.4033 7.87873 47.3528 6.68019C46.9132 6.89974 46.4923 7.19368 46.028 7.31965C45.5473 7.44983 45.0242 7.42643 44.5188 7.45222C44.1602 7.47022 43.797 7.42883 43.4409 7.46602C42.899 7.52301 42.7003 7.16608 42.5693 6.69578C42.2196 7.21467 41.9128 7.556 41.2439 7.50981C40.6562 7.46902 40.1972 7.27646 39.7446 6.95913C39.663 6.89914 39.5848 6.83915 39.5654 6.82356L39.0217 7.88293L37.8128 7.1139C37.4349 7.35864 36.9712 7.64298 36.5274 7.95372C36.4252 8.0257 36.3141 8.21046 36.3347 8.31784C36.5603 9.49179 36.0643 10.2554 35.0781 10.7923C34.3805 11.172 33.677 11.4984 32.8653 11.4522C32.2082 11.4168 31.7075 11.121 31.4548 10.4816C31.2638 10.0171 31.1854 9.51241 31.2263 9.0104C31.2673 8.5084 31.4263 8.02388 31.6898 7.59799C31.7195 7.72344 31.7415 7.85067 31.7557 7.97891C31.7645 8.24946 31.728 8.5254 31.768 8.78994C31.9173 9.77913 32.515 10.2752 33.4448 10.0083C34.1959 9.79233 34.8888 9.35862 35.6006 9.0059C35.9056 8.85413 35.9238 8.59738 35.7375 8.33284C35.4789 7.96752 35.2556 7.553 34.9259 7.26986C34.5421 6.93993 34.4939 6.631 34.7025 6.21049C34.7789 6.05692 34.8201 5.88656 34.9094 5.64301C35.1504 5.92495 35.3861 6.1271 35.5283 6.38325C35.7252 6.73838 35.9797 6.71558 36.2888 6.6232C37.1234 6.37905 37.6253 5.85836 37.6994 4.94355C37.7105 4.80438 37.8557 4.67721 38.0203 4.57283C38.1725 5.27528 37.898 6.08511 38.8913 6.45704C38.953 5.77858 39.0135 5.11512 39.0923 4.2585C39.2815 4.44686 39.3944 4.54704 39.4907 4.66221C39.5178 4.69401 39.496 4.76719 39.4984 4.82178C39.5342 5.79777 39.5348 5.79777 40.4758 5.78638C40.5451 5.78638 40.658 5.76478 40.678 5.79837C41.0894 6.49303 41.7294 5.94174 42.3265 6.20329C42.2578 5.27948 42.2013 4.45946 42.1343 3.64003C42.0867 3.06235 42.0638 2.47868 41.958 1.9112C41.8146 1.13496 42.2149 0.619069 42.7144 0C42.7844 1.25553 42.8496 2.40849 42.9119 3.56145C42.9501 4.2675 42.9677 4.97535 43.0336 5.6784C43.0453 5.80317 43.2375 5.98673 43.3686 6.00953C43.8893 6.10011 44.42 6.1295 44.9449 6.19729C45.8106 6.31666 46.6328 6.21709 47.5532 5.6742ZM52.399 7.0959L52.3726 7.28846L53.4816 8.54819C53.5321 7.88833 53.7261 7.33645 53.2342 7.00052C53.0561 6.87695 52.6829 7.05511 52.4002 7.0959H52.399Z" fill="#4A4A4A"/>
<path id="Vector_4" d="M65.9239 6.61899C63.2885 6.88654 59.7392 5.74438 57.9178 3.07254C60.364 2.38449 65.3843 4.60822 65.9239 6.61899Z" fill="#2B8544"/>
<path id="Vector_5" d="M21.6509 6.62311C22.4226 4.53675 26.5291 2.65015 29.5265 3.00527C28.9064 4.97346 24.3756 7.05382 21.6509 6.62311Z" fill="#2B8544"/>
<path id="Vector_6" d="M49.7043 16.6711C49.1301 16.5553 48.5988 16.4911 48.0933 16.3352C47.6232 16.1912 46.9825 16.4947 46.6904 15.7773C46.4653 16.1702 46.1662 16.13 45.8053 16.0868C45.2476 16.0196 44.6769 16.058 44.1115 16.064C43.8817 16.064 43.6525 16.1114 43.4221 16.124C42.4047 16.1714 42.4047 16.1696 41.7142 16.9746C41.7594 16.6627 41.7865 16.4737 41.8105 16.3076C41.2851 15.9285 40.8443 16.3136 40.3853 16.4767C39.8663 16.6609 39.6007 16.5055 39.4679 15.9525C39.2915 15.217 39.0259 14.5044 38.8496 13.7689C38.7773 13.469 38.8372 13.1366 38.8372 12.8187L39.0512 12.8007C39.2727 13.6321 39.5049 14.4612 39.7118 15.2968C39.8217 15.7395 39.9469 16.0514 40.4335 15.6351C40.4944 15.5975 40.5645 15.5781 40.6357 15.5793C41.2334 15.5217 41.7624 15.3646 41.8987 14.5973L42.058 14.6981C42.0321 14.9381 42.0063 15.178 41.9675 15.5379C42.1885 15.439 42.393 15.3856 42.5552 15.2686C42.9578 14.9729 43.3445 14.6531 43.7307 14.334C44.4271 13.7563 45.4786 14.217 45.4039 15.223L46.5465 15.469C46.8068 15.109 46.5964 14.4708 47.2517 14.4888C47.2623 14.5146 47.2917 14.5487 47.2858 14.5787C47.0989 15.4894 47.0995 15.4786 47.9911 15.6033C48.4466 15.6696 48.8979 15.7628 49.3429 15.8823C49.7978 16.0022 49.8753 15.8151 49.7878 15.4114C49.5879 15.4654 49.4052 15.5703 49.2365 15.5499C48.6617 15.481 48.4724 15.0418 48.7922 14.5404C48.9071 14.3608 49.0545 14.2052 49.2265 14.082C49.672 13.7695 49.9905 13.8865 50.1616 14.4024C50.4384 15.238 50.1222 15.9525 49.7043 16.6711ZM44.9273 15.3244C44.3307 14.4474 43.6795 14.5038 43.0953 15.3244H44.9273ZM49.7613 15.1528C49.6144 14.3994 49.4675 14.3316 48.932 14.7269L49.7613 15.1528Z" fill="#4F4F4F"/>
<path id="Vector_7" d="M81.2912 18.1659C82.6077 20.6055 82.8293 22.9972 81.4828 25.4417C79.8507 24.179 79.7443 20.5264 81.2912 18.1659Z" fill="#2B8544"/>
<path id="Vector_8" d="M76.6676 12.256C78.4978 13.1948 79.8307 17.1089 78.9068 18.8288C76.8603 17.608 75.6855 14.142 76.6676 12.256Z" fill="#2C8544"/>
<path id="Vector_9" d="M0.712011 34.8976C2.72086 35.2713 4.40176 38.7704 3.80816 41.2808C2.0532 40.5772 0.483972 37.3655 0.712011 34.8976Z" fill="#2D8645"/>
<path id="Vector_10" d="M17.3518 9.16312C16.9992 6.49728 18.3991 3.62149 20.4215 2.80026C20.9263 5.06358 19.7133 7.8434 17.3518 9.16312Z" fill="#2D8645"/>
<path id="Vector_11" d="M5.73476 25.8161C4.25604 24.2414 4.28777 20.7393 5.76415 18.7567C7.20408 20.5504 7.22876 23.4885 5.73476 25.8161Z" fill="#2D8645"/>
<path id="Vector_12" d="M10.2056 12.6273C11.2776 14.6699 10.118 18.115 7.99336 19.2889C7.16407 17.7737 8.3742 14.0856 10.2056 12.6273Z" fill="#2B8544"/>
<path id="Vector_13" d="M74.7239 13.4935C73.2499 13.0004 71.2599 10.4167 71.9669 7.2644C73.6225 7.60633 75.3316 11.1342 74.7239 13.4935Z" fill="#2B8544"/>
<path id="Vector_14" d="M66.5298 2.19788C68.4235 3.0377 69.9839 6.12705 69.7782 8.56553C68.0679 8.38317 66.2448 5.37061 66.5298 2.19788Z" fill="#2C8544"/>
<path id="Vector_15" d="M79.87 25.9288C77.3539 25.5743 75.1758 23.5041 74.7409 21.095C76.6516 20.8905 79.2758 23.3482 79.87 25.9288Z" fill="#2C8544"/>
<path id="Vector_16" d="M83.3253 32.9209C82.0958 31.1753 82.7482 27.8304 84.6377 26.0649C85.6762 27.0337 85.2143 31.2382 83.3253 32.9209Z" fill="#2E8646"/>
<path id="Vector_17" d="M66.9895 12.1378C68.8273 11.25 71.8147 12.4149 73.5033 14.6477C71.6079 15.2073 68.3677 14.4239 66.9895 12.1378Z" fill="#2D8645"/>
<path id="Vector_18" d="M5.47554 40.8585C4.73559 38.8711 6.14614 35.465 8.05449 34.5664C9.026 36.5934 7.39506 39.7733 5.47554 40.8585Z" fill="#2C8544"/>
<path id="Vector_19" d="M7.32166 26.3632C7.468 24.2115 9.64435 21.7754 12.2339 21.4347C11.9024 24.0045 9.86005 25.7232 7.32166 26.3632Z" fill="#2C8544"/>
<path id="Vector_20" d="M12.2422 13.9674C11.8748 11.2608 12.8887 9.18702 14.8805 7.51578C15.7956 9.36939 14.4773 13.1126 12.2422 13.9674Z" fill="#2B8544"/>
<path id="Vector_21" d="M2.34772 26.6193C4.35364 27.9144 4.61341 31.0584 3.85642 33.4051C2.3583 32.4807 1.16228 28.5329 2.34772 26.6193Z" fill="#2C8544"/>
<path id="Vector_22" d="M4.25842 56.2379C6.72982 56.2475 9.17006 58.2697 9.83772 60.617C7.56027 60.608 5.20584 58.8324 4.25842 56.2379Z" fill="#318849"/>
<path id="Vector_23" d="M9.223 27.6133C9.51687 30.1568 7.34228 33.0338 5.52032 33.3205C5.12243 31.0506 7.46981 27.9907 9.223 27.6133Z" fill="#2B8544"/>
<path id="Vector_24" d="M84.8817 48.7108C84.5108 51.3503 82.7371 53.6604 80.6453 54.2728C80.1411 52.2819 82.4056 49.2879 84.8817 48.7108Z" fill="#33894B"/>
<path id="Vector_25" d="M13.4839 15.1576C14.8022 13.1414 17.4046 11.8583 20.0564 12.4912C18.7311 14.6699 15.8495 15.6117 13.4839 15.1576Z" fill="#2C8544"/>
<path id="Vector_26" d="M14.2168 65.986C12.5353 66.6698 8.96136 64.7346 8.07977 62.6627C10.3954 62.2517 13.1519 63.7334 14.2168 65.986Z" fill="#2F8747"/>
<path id="Vector_27" d="M19.9019 71.1738C18.2962 72.0436 14.5536 70.8277 13.3023 69.0544C14.6094 67.8463 18.6647 69.22 19.9019 71.1738Z" fill="#368B4D"/>
<path id="Vector_28" d="M86.2622 41.2922C86.7911 43.6269 85.3265 46.8764 83.4587 47.5009C82.734 45.5573 84.4549 41.7469 86.2622 41.2922Z" fill="#33894B"/>
<path id="Vector_29" d="M55.7039 76.3999C57.9913 74.917 61.0434 74.8828 62.9605 76.2925C60.89 77.6891 58.1347 77.8162 55.7039 76.3999Z" fill="#2D8645"/>
<path id="Vector_30" d="M0.747352 41.7451C2.48938 42.3996 3.98808 44.9401 3.62722 47.9478C1.9328 47.4517 0.147283 44.3756 0.747352 41.7451Z" fill="#2D8645"/>
<path id="Vector_31" d="M77.8383 27.3639C79.4575 27.3411 81.6891 30.4628 81.5939 33.0801C79.7138 32.8323 77.5462 29.5342 77.8383 27.3639Z" fill="#2C8544"/>
<path id="Vector_32" d="M2.17896 49.2999C4.40174 49.5447 6.66978 52.4313 6.49111 54.7438C4.40527 54.1715 2.24243 51.4613 2.17896 49.2999Z" fill="#2E8646"/>
<path id="Vector_33" d="M15.3647 64.9176C13.5333 63.6489 12.6147 59.8115 13.7191 58.1679C15.3853 59.4174 16.1276 61.8103 15.3647 64.9176Z" fill="#2F8747"/>
<path id="Vector_34" d="M25.6928 74.8239C23.2667 75.7135 20.5367 75.3908 18.6589 74.0165C20.0101 72.5618 23.748 72.9013 25.6928 74.8239Z" fill="#2F8747"/>
<path id="Vector_35" d="M81.7949 47.2711C79.8525 46.3281 78.2497 42.988 79.1472 41.0768C81.0091 41.916 82.3156 44.9448 81.7949 47.2711Z" fill="#33894B"/>
<path id="Vector_36" d="M72.7804 65.5871C73.8124 63.3634 76.4114 61.9105 78.7305 62.2315C78.328 64.2236 74.9215 66.0155 72.7804 65.5871Z" fill="#318849"/>
<path id="Vector_37" d="M82.6841 55.8259C82.2193 57.8799 79.4087 60.205 77.3282 60.2848C77.3405 58.3196 80.1998 55.8331 82.6841 55.8259Z" fill="#308748"/>
<path id="Vector_38" d="M20.663 69.9386C18.8005 68.8552 17.4088 65.7647 17.7614 63.5583C19.8661 64.0118 21.0256 67.2349 20.663 69.9386Z" fill="#2E8646"/>
<path id="Vector_39" d="M77.8707 46.8429C79.5816 47.9431 80.1628 51.0828 79.0938 53.4415C77.4746 52.1194 76.6341 49.0576 77.8707 46.8429Z" fill="#318849"/>
<path id="Vector_40" d="M71.3745 16.764C73.7507 16.3602 76.8845 17.9289 77.364 19.7309C74.9967 20.281 72.4583 19.0069 71.3745 16.764Z" fill="#2C8544"/>
<path id="Vector_41" d="M15.6327 17.0423C15.0955 19.2978 12.1063 20.359 9.40277 20.3158C10.0293 18.5174 13.34 16.7772 15.6327 17.0423Z" fill="#2C8544"/>
<path id="Vector_42" d="M61.9902 7.86188C64.1648 7.00286 67.2569 7.92187 68.4593 9.75748C66.2254 10.4869 63.0493 9.84986 61.9902 7.86188Z" fill="#2C8544"/>
<path id="Vector_43" d="M11.0244 59.8014C9.57212 58.0191 9.34349 54.7972 10.5031 52.7787C12.1217 53.844 12.3574 56.853 11.0244 59.8014Z" fill="#2D8645"/>
<path id="Vector_44" d="M83.491 40.7013C82.6206 38.6617 83.8972 35.5424 86.1358 34.2742C86.6089 36.4248 85.313 39.5699 83.491 40.7013Z" fill="#33894B"/>
<path id="Vector_45" d="M55.7656 74.7982C55.4247 72.7196 57.47 70.4377 60.056 69.6393C60.1623 71.5073 57.9443 74.4677 55.7656 74.7982Z" fill="#2C8544"/>
<path id="Vector_46" d="M26.0178 73.0675C23.7421 72.6992 22.1835 69.8144 22.063 67.6788C24.0413 67.7382 26.0766 70.6704 26.0178 73.0675Z" fill="#2D8645"/>
<path id="Vector_47" d="M18.3839 10.1689C20.2993 8.12931 23.0804 7.48384 25.2015 8.21269C24.2048 9.98112 21.376 10.8029 18.3839 10.1689Z" fill="#2D8645"/>
<path id="Vector_48" d="M78.9167 34.209C80.4037 34.7057 82.245 37.8184 81.5879 40.4969C79.8095 39.867 78.3778 36.5221 78.9167 34.209Z" fill="#318849"/>
<path id="Vector_49" d="M49.6292 77.722C51.584 76.4623 54.6837 76.8894 56.2799 78.7418C54.5326 79.7334 50.9581 79.3717 49.6292 77.722Z" fill="#2B8544"/>
<path id="Vector_50" d="M64.7503 67.1766C65.2633 69.0314 63.2222 72.0692 60.9435 72.831C60.9753 70.17 62.5945 67.9277 64.7503 67.1766Z" fill="#308748"/>
<path id="Vector_51" d="M61.3878 74.3357C62.9388 72.6471 66.357 72.2361 68.3171 73.4749C66.7908 74.9308 63.8057 75.4911 61.3878 74.3357Z" fill="#308748"/>
<path id="Vector_52" d="M69.1875 62.9589C69.4455 65.3584 68.5557 67.9829 66.5468 69.362C65.5747 67.6373 67.0628 63.9823 69.1875 62.9589Z" fill="#318849"/>
<path id="Vector_53" d="M30.6544 79.2822C31.958 77.4993 35.5102 76.9217 37.4838 78.1424C35.9863 79.6877 32.829 80.2258 30.6544 79.2822Z" fill="#2A8442"/>
<path id="Vector_54" d="M7.74125 41.4362C8.53938 43.7415 7.23521 46.8842 5.15525 47.6748C4.67684 45.4493 5.78882 42.8279 7.74125 41.4362Z" fill="#2C8544"/>
<path id="Vector_55" d="M7.82815 54.0335C7.16167 51.4877 7.34974 49.1589 8.99479 47.0684C10.2837 48.6659 9.62953 52.664 7.82815 54.0335Z" fill="#2E8646"/>
<path id="Vector_56" d="M71.75 64.3412C70.9525 62.0329 71.3633 59.3623 73.2587 57.6496C74.2161 58.9382 73.7348 62.9717 71.75 64.3412Z" fill="#318849"/>
<path id="Vector_57" d="M76.3696 52.3053C77.6837 54.0377 77.5268 57.0701 76.0405 59.1708C74.8362 57.9153 74.684 54.5824 76.3696 52.3053Z" fill="#308748"/>
<path id="Vector_58" d="M26.9423 70.2536C28.9452 70.2656 31.0863 72.5967 31.4595 75.1191C29.6329 75.2595 27.4836 72.956 26.9423 70.2536Z" fill="#2D8645"/>
<path id="Vector_59" d="M31.1893 76.737C29.6741 78.0909 26.1907 78.2253 24.1219 76.725C25.7552 75.4491 28.9295 75.4299 31.1893 76.737Z" fill="#2E8646"/>
<path id="Vector_60" d="M28.26 21.9493L29.6552 20.77C29.0616 20.1953 28.5432 19.593 27.9232 19.1329C27.5747 18.8738 27.5229 18.6446 27.5905 18.2793L28.4104 18.3393L28.287 18.4437C28.5573 18.8546 28.8212 19.2697 29.0998 19.6746C29.4007 20.1125 29.7381 20.527 30.0079 20.9835C30.0731 21.0939 29.9902 21.4208 29.8786 21.4946C29.2908 21.8791 28.9382 22.602 28.163 22.716C28.0883 22.7274 28.0454 22.9187 27.9761 23.0159C27.6317 23.4874 27.2826 23.9553 26.9135 24.4556C27.7187 25.6355 27.9743 26.5162 26.056 27.122C26.8618 26.6187 26.8512 25.9325 26.8471 25.2384C26.8471 24.7975 26.6966 24.5864 26.2252 24.5858C25.6375 24.5858 25.6375 24.5516 25.4824 24.0069C25.882 23.8761 26.3322 23.8269 26.6578 23.5942C26.9993 23.3542 27.2226 22.9427 27.4977 22.6056L27.3978 22.449L26.7372 22.6158C26.2858 21.9763 26.2435 21.7874 26.9082 21.3404C27.5241 20.9247 27.8438 21.0825 28.26 21.9493Z" fill="#4D4D4D"/>
<path id="Vector_61" d="M71.0707 70.4563C69.8717 70.965 68.6334 71.0813 67.2734 70.8762C68.0815 69.2079 69.4815 68.6638 71.0724 68.4263C71.2411 68.8558 71.4098 69.2859 71.5814 69.722L71.0707 69.8978V70.4563Z" fill="#33894B"/>
<path id="Vector_62" d="M61.4902 21.8389C62.0702 21.503 62.3817 21.5942 62.6368 22.2936C62.8513 22.8827 63.0406 23.4814 63.2569 24.1238C62.9418 24.3086 62.6439 24.4982 62.3623 23.9601C62.2613 23.7669 61.9903 23.6103 61.7676 23.5486C60.9101 23.3086 60.3711 22.6446 59.7875 22.0489C59.6594 21.9187 59.7111 21.6044 59.677 21.3572C59.0111 21.8335 58.6056 21.2373 58.1395 20.8713C57.9162 20.6962 57.8868 20.482 58.1225 20.2817C58.2988 20.1347 58.4751 19.9973 58.6961 19.8228C58.6221 20.3488 59.2768 21.1107 59.7211 21.0309C59.8974 20.9997 60.0684 20.7568 60.1731 20.5696C60.5498 19.8935 60.5386 19.8869 61.0711 19.7964C60.8131 20.2493 60.5698 20.6566 60.3494 21.0759C60.2818 21.2055 60.2007 21.4496 60.2565 21.506C60.8249 22.0771 61.4196 22.62 62.0074 23.1712L62.2242 22.9817L61.4902 21.8389Z" fill="#4F4F4F"/>
<path id="Vector_63" d="M65.0311 27.8791C66.0302 27.4352 66.7167 26.4784 67.8916 26.1737C67.7899 26.6092 67.7258 26.8839 67.6976 27.0057C67.208 27.1898 66.8066 27.3104 66.4322 27.4892C65.925 27.7291 65.4437 28.0291 64.9394 28.2792C64.6585 28.4178 64.4228 28.3392 64.3123 28.0087C64.2854 27.9424 64.2524 27.8789 64.2136 27.8191C64.0549 27.539 63.9538 27.1544 63.7152 27.0123C63.5212 26.8965 63.161 27.0723 62.8736 27.1149C62.1924 27.2114 61.7081 26.9079 61.4824 26.2354C61.4011 25.9926 61.3488 25.7406 61.3267 25.485C61.8339 26.2079 62.4857 26.611 63.4066 26.5954C63.3783 26.4877 63.343 26.3821 63.3008 26.2792C62.9082 25.4886 63.1909 24.9859 64.0778 24.9877C64.3335 24.9877 64.6808 25.1119 64.8136 25.3038C64.9141 25.4478 64.8225 25.8773 64.6714 26.0285C64.3023 26.398 64.3382 26.7081 64.6027 27.0945C64.7737 27.3392 64.8936 27.6218 65.0311 27.8791ZM63.9991 26.2085C64.3599 25.4976 64.2853 25.335 63.6517 25.3362C63.7604 25.6092 63.8545 25.8461 63.9991 26.209V26.2085Z" fill="#4F4F4F"/>
<path id="Vector_64" d="M24.183 27.8118C24.401 28.6853 23.7969 29.3541 22.89 29.2965C22.8588 29.5509 22.8988 29.846 22.7789 30.035C22.642 30.2521 22.2435 30.5593 22.1659 30.5071C21.8909 30.3205 21.567 30.0236 21.5141 29.7224C21.4195 29.1825 21.5899 28.5929 20.9946 28.1958L21.1121 28.1136C21.5823 28.2935 22.0589 28.4621 22.5191 28.6655C22.9493 28.8556 23.2585 28.8214 23.443 28.3241C23.5165 28.1262 23.6593 27.9546 23.7675 27.7764C23.5753 27.4069 22.9347 27.3169 23.2232 26.6781L23.9908 27.2732L25.0046 25.8083C24.5932 25.6709 24.0584 25.8473 24.1025 25.215C24.7842 25.1202 25.1292 25.3146 25.6229 26.083C24.8783 27.4549 24.6526 27.7261 24.183 27.8118ZM22.5479 29.1436L21.9561 28.8634V30.0314L22.5479 29.1436Z" fill="#4F4F4F"/>
<path id="Vector_65" d="M53.1878 15.7214C53.6051 15.5085 53.6986 15.0616 53.6992 14.6488C53.6997 14.2361 53.8966 14.0742 54.2334 13.9338C54.3345 14.1899 54.4291 14.4281 54.5061 14.6207C54.0829 15.1575 53.6727 15.6578 53.2919 16.1803C53.2231 16.2751 53.3013 16.4689 53.2654 16.6038C53.1714 16.9578 53.0521 17.3051 52.9292 17.7004L51.2019 17.0867C51.2818 16.0999 52.2633 16.4395 52.797 15.8786C52.4984 15.5607 52.2198 15.1923 51.8725 14.9122C51.3759 14.5109 51.2989 14.0826 51.7926 13.3129C52.2769 14.1492 52.7253 14.9218 53.1878 15.7214Z" fill="#505050"/>
<path id="Vector_66" d="M35.8041 17.1155C35.5802 16.7622 34.9307 16.6153 35.4726 16.031C35.6489 16.2391 35.8787 16.4419 36.0239 16.6962C36.3877 17.3357 36.2561 17.6944 35.6066 17.968C35.5091 18.0088 35.4062 18.0394 35.3128 18.0879C34.7838 18.3597 34.2689 18.5079 33.9692 17.914C33.7394 18.1119 33.5743 18.3465 33.3586 18.4143C33.1235 18.4893 32.638 18.4743 32.6127 18.3861C32.5169 18.0627 32.4288 17.6062 32.5851 17.3633C32.8895 16.8936 33.2616 16.4941 33.2063 15.8492C33.4779 16.2883 33.7629 16.719 34.0162 17.1689C34.2296 17.5481 34.4506 17.7472 34.8937 17.4737C35.1582 17.3099 35.4779 17.2397 35.8041 17.1155ZM32.7979 17.7496C32.8178 17.785 32.8378 17.821 32.8566 17.8564L33.7488 17.5565L33.422 16.9716L32.7979 17.7496Z" fill="#4F4F4F"/>
<path id="Vector_67" d="M71.0706 70.4563V69.9008L71.5813 69.7251C71.4097 69.289 71.2411 68.8589 71.0724 68.4294C71.9845 68.268 72.8908 68.2968 73.897 68.4983C73.0395 69.3934 72.1597 70.0784 71.0706 70.4563Z" fill="#3D8F54"/>
<path id="Vector_68" d="M57.7486 17.5877C57.8826 17.9278 57.9508 18.1672 58.066 18.3807C58.3822 18.9674 58.2981 19.2493 57.6364 19.788C57.2925 20.0682 56.6719 19.9896 56.3434 19.5895C56.2376 19.4611 56.2082 19.0982 56.3034 18.9932C56.7495 18.5001 57.2508 18.0598 57.7486 17.5877ZM57.2914 18.4065C57.1074 18.5109 56.9305 18.5577 56.8476 18.674C56.7759 18.7748 56.7518 19.0454 56.8088 19.0844C57.0698 19.2613 57.3672 19.3843 57.6516 19.5259L57.7692 19.3957L57.2914 18.4065Z" fill="#4F4F4F"/>
<path id="Vector_69" d="M36.8049 16.7683L38.3536 16.3184C38.3642 16.2344 38.3753 16.1511 38.3859 16.0671L37.164 15.4576C37.1535 15.3328 37.1335 15.1079 37.1141 14.8805C37.9986 14.8391 38.889 15.9417 38.6298 16.7143C38.5869 16.8421 38.4253 16.9435 38.2978 17.0233C38.116 17.1358 37.9246 17.2311 37.7259 17.3082C36.9848 17.5962 36.8625 17.5086 36.8049 16.7683Z" fill="#505050"/>
<path id="Vector_70" d="M29.2022 17.1707C29.9351 18.2295 30.943 19.1011 31.3333 20.3938L31.2057 20.4916C30.5175 19.6518 29.8117 18.8282 29.1569 17.9637C29.027 17.7922 29.0935 17.4665 29.0699 17.2115L29.2022 17.1707Z" fill="#535353"/>
<path id="Vector_71" d="M55.9191 14.8169C55.7169 15.3975 55.5335 15.986 55.3067 16.5565C55.1221 17.0196 54.8917 17.4647 54.6666 17.9104C54.5796 18.082 54.4515 18.2319 54.3422 18.3903L54.1735 18.2655C54.3457 17.7772 54.5168 17.2883 54.6901 16.8006C54.8282 16.4137 54.984 16.0328 55.1051 15.6399C55.2361 15.2068 55.4983 14.9362 55.9279 14.8265L55.9191 14.8169Z" fill="#535353"/>
<path id="Vector_72" d="M65.1163 29.5701C65.9838 29.0662 66.8401 28.5389 67.7275 28.074C67.9626 27.9541 68.2906 28.0236 68.5968 28.0962C67.4731 28.6961 66.4839 29.5785 65.1745 29.6985L65.1163 29.5701Z" fill="#505050"/>
<path id="Vector_73" d="M45.2253 9.18638L45.9976 8.37955L46.9345 9.18818L46.1357 9.96441L45.2253 9.18638Z" fill="#4D4D4D"/>
<path id="Vector_74" d="M35.485 19.121C35.5967 18.7689 35.6437 18.6202 35.683 18.4972L36.8744 18.1888C36.7845 18.5032 36.7392 18.6645 36.7039 18.7887L35.485 19.121Z" fill="#535353"/>
<path id="Vector_75" d="M47.7101 13.5163C47.2781 14.0226 46.684 14.0094 46.2208 13.5985L46.5176 13.2535L47.7101 13.5163Z" fill="#535353"/>
<path id="Vector_76" d="M32.6709 15.5625C32.6486 15.9854 32.1102 16.3567 31.5771 16.3165C31.4872 15.773 32.0356 15.3951 32.6709 15.5625Z" fill="#535353"/>
<path id="Vector_77" d="M57.6822 16.7705C58.2699 16.5042 58.8147 16.7933 59.0381 17.362L58.6472 17.5642L57.6822 16.7705Z" fill="#535353"/>
<path id="Vector_78" d="M49.0226 13.1432L49.3623 12.8186C49.6203 12.8618 49.8137 12.8726 49.9917 12.9302C50.1598 12.9848 50.3121 13.0898 50.5636 13.2199L50.2268 13.5553C49.9153 13.4953 49.7202 13.4821 49.541 13.4203C49.3746 13.3621 49.2265 13.2547 49.0226 13.1432Z" fill="#535353"/>
<path id="Vector_79" d="M25.339 27.617C25.6011 28.1671 25.3243 28.764 24.7813 28.9877L24.6008 28.5882L25.339 27.617Z" fill="#535353"/>
<path id="Vector_80" d="M20.7347 28.5258L20.0794 29.6277C19.9366 29.3818 19.8526 29.2372 19.8185 29.1778C19.9172 28.9049 19.9613 28.6979 20.0665 28.5246C20.1517 28.3848 20.3104 28.2924 20.4368 28.179L20.7347 28.5258Z" fill="#535353"/>
<path id="Vector_81" d="M27.0833 27.2329C27.1297 27.4129 27.1679 27.5652 27.2126 27.7416L26.6872 27.9762C26.3939 27.3991 26.3939 27.3991 27.0833 27.2329Z" fill="#535353"/>
<path id="Vector_82" d="M33.8657 71.7592H33.8246L33.8586 71.7705L33.8657 71.7592Z" fill="#2A8442"/>
<path id="Vector_83" d="M55.9267 14.8283C55.9382 14.8174 55.9508 14.8078 55.9643 14.7995C55.9684 14.7995 55.9784 14.8067 55.986 14.8115L55.9208 14.8175L55.9267 14.8283Z" fill="#535353"/>
<path id="Vector_84" d="M46.6511 32.5678L44.9361 32.4137C44.768 31.7454 44.1174 31.848 43.6831 31.6116C43.418 31.4671 43.11 31.4047 42.8215 31.3051C42.8215 31.2559 42.8215 31.2067 42.8215 31.1569C42.949 31.1233 43.076 31.0615 43.2035 31.0597C43.9452 31.0501 44.6881 31.0375 45.4292 31.0681C45.527 31.0779 45.6219 31.1074 45.7084 31.155C45.7949 31.2025 45.8712 31.2672 45.9329 31.3453C46.1991 31.731 46.4142 32.1575 46.6511 32.5678Z" fill="#272324"/>
<path id="Vector_85" d="M47.3729 32.395H47.5304V32.4381H47.3729V32.395Z" fill="#272324"/>
<path id="Vector_86" d="M43.6737 43.4908C43.1665 44.417 42.3807 44.4014 41.6466 44.4344C39.2898 44.5418 36.9325 44.6305 34.5745 44.6857C34.0814 44.6971 33.5848 44.537 33.0905 44.4488C33.0493 44.4416 33.0176 44.3822 32.9865 44.3516C33.1757 43.4728 33.8539 43.318 34.5533 43.2616C35.4349 43.1902 36.3242 43.1578 37.2099 43.1488C38.9143 43.1309 40.6187 43.1171 42.3231 43.1549C42.7674 43.165 43.2082 43.3696 43.6737 43.4908Z" fill="#272324"/>
<path id="Vector_87" d="M73.1305 41.9125C72.9137 42.5532 72.5551 42.6138 72.1079 42.609C69.9974 42.5874 67.8862 42.609 65.7757 42.582C65.3937 42.5772 65.0117 42.4284 64.6338 42.3456L64.595 42.0937C64.9982 41.9329 65.3978 41.6426 65.8039 41.6324C67.948 41.579 70.0943 41.5832 72.2395 41.6036C72.5387 41.6066 72.8361 41.8058 73.1305 41.9125Z" fill="#272324"/>
</g>
</svg>
