<svg width="25" height="24" viewBox="0 0 25 24" fill="none" xmlns="http://www.w3.org/2000/svg">
<g id="arrow-right">
<path id="Vector" d="M13.213 17.7116L18.213 12.7116C18.3041 12.6165 18.3754 12.5043 18.423 12.3816C18.5231 12.1381 18.5231 11.8651 18.423 11.6216C18.3754 11.4988 18.3041 11.3867 18.213 11.2916L13.213 6.29159C13.1198 6.19835 13.0091 6.12439 12.8873 6.07393C12.7655 6.02347 12.6349 5.9975 12.503 5.9975C12.2367 5.9975 11.9813 6.10329 11.793 6.29159C11.6047 6.47989 11.4989 6.73529 11.4989 7.00159C11.4989 7.26789 11.6047 7.52329 11.793 7.71159L15.093 11.0016L7.50303 11.0016C7.23782 11.0016 6.98346 11.1069 6.79593 11.2945C6.60839 11.482 6.50303 11.7364 6.50303 12.0016C6.50303 12.2668 6.60839 12.5212 6.79593 12.7087C6.98346 12.8962 7.23782 13.0016 7.50303 13.0016L15.093 13.0016L11.793 16.2916C11.6993 16.3846 11.6249 16.4952 11.5741 16.617C11.5234 16.7389 11.4972 16.8696 11.4972 17.0016C11.4972 17.1336 11.5234 17.2643 11.5741 17.3862C11.6249 17.508 11.6993 17.6186 11.793 17.7116C11.886 17.8053 11.9966 17.8797 12.1185 17.9305C12.2403 17.9812 12.371 18.0074 12.503 18.0074C12.635 18.0074 12.7658 17.9812 12.8876 17.9305C13.0095 17.8797 13.1201 17.8053 13.213 17.7116Z" fill="black"/>
</g>
</svg>
