<svg width="25" height="24" viewBox="0 0 25 24" fill="none" xmlns="http://www.w3.org/2000/svg">
<g id="arrow-left">
<path id="Vector" d="M12.1415 6.64691L12.1429 6.64546C12.1894 6.59859 12.2447 6.56139 12.3057 6.53601C12.3666 6.51063 12.4319 6.49756 12.4979 6.49756C12.564 6.49756 12.6293 6.51063 12.6902 6.53601C12.7512 6.56139 12.8065 6.59859 12.8529 6.64546L12.8558 6.64836C12.9027 6.69484 12.9399 6.75014 12.9653 6.81107C12.9907 6.872 13.0037 6.93735 13.0037 7.00335C13.0037 7.06936 12.9907 7.13471 12.9653 7.19564C12.9399 7.25657 12.9027 7.31187 12.8558 7.35835L12.8549 7.35926L9.55493 10.6493L8.69824 11.5034L9.90794 11.5034L17.4979 11.5034C17.6306 11.5034 17.7577 11.556 17.8515 11.6498C17.9453 11.7436 17.9979 11.8707 17.9979 12.0034C17.9979 12.136 17.9453 12.2631 17.8515 12.3569C17.7577 12.4507 17.6306 12.5034 17.4979 12.5034L9.90794 12.5034L8.69824 12.5034L9.55493 13.3574L12.8544 16.6469C12.8544 16.647 12.8545 16.647 12.8545 16.6471C12.949 16.7416 13.002 16.8697 13.002 17.0034C13.002 17.137 12.9489 17.2653 12.8544 17.3598C12.7599 17.4543 12.6316 17.5074 12.4979 17.5074C12.4317 17.5074 12.3662 17.4944 12.305 17.4691C12.2439 17.4437 12.1883 17.4066 12.1415 17.3598L11.7879 17.7134L12.1415 17.3598L7.14602 12.3643C7.10198 12.3175 7.06738 12.2626 7.04413 12.2026L7.04422 12.2026L7.04044 12.1934C6.99043 12.0716 6.99043 11.9351 7.04044 11.8134L7.04053 11.8134L7.04413 11.8041C7.06738 11.7441 7.10198 11.6892 7.14602 11.6424L12.1415 6.64691Z" fill="black" stroke="white"/>
</g>
</svg>
