<svg width="24" height="24" viewBox="0 0 24 24" fill="none" xmlns="http://www.w3.org/2000/svg">
<g id="icon / jam-icons / outline &#38; logos / arrow-right">
<path id="Vector" d="M8.414 13.343L12.364 17.293C12.5462 17.4816 12.647 17.7342 12.6447 17.9964C12.6424 18.2586 12.5372 18.5094 12.3518 18.6948C12.1664 18.8802 11.9156 18.9854 11.6534 18.9877C11.3912 18.99 11.1386 18.8892 10.95 18.707L5.293 13.05C5.19981 12.9574 5.12587 12.8472 5.0754 12.7259C5.02494 12.6045 4.99896 12.4744 4.99896 12.343C4.99896 12.2116 5.02494 12.0815 5.0754 11.9602C5.12587 11.8388 5.19981 11.7287 5.293 11.636L10.95 5.97902C11.0422 5.88351 11.1526 5.80733 11.2746 5.75492C11.3966 5.70251 11.5278 5.67492 11.6606 5.67377C11.7934 5.67262 11.9251 5.69792 12.048 5.7482C12.1708 5.79848 12.2825 5.87273 12.3764 5.96663C12.4703 6.06052 12.5445 6.17217 12.5948 6.29507C12.6451 6.41796 12.6704 6.54964 12.6692 6.68242C12.6681 6.8152 12.6405 6.94642 12.5881 7.06842C12.5357 7.19043 12.4595 7.30077 12.364 7.39302L8.414 11.343L18 11.343C18.2652 11.343 18.5196 11.4484 18.7071 11.6359C18.8946 11.8234 19 12.0778 19 12.343C19 12.6082 18.8946 12.8626 18.7071 13.0501C18.5196 13.2377 18.2652 13.343 18 13.343L8.414 13.343Z" fill="#484C52"/>
</g>
</svg>
