<svg width="40" height="40" viewBox="0 0 40 40" fill="none" xmlns="http://www.w3.org/2000/svg">
<g id="fluent:calendar-20-regular">
<path id="Vector" d="M14 22C14.5304 22 15.0391 21.7893 15.4142 21.4142C15.7893 21.0391 16 20.5304 16 20C16 19.4696 15.7893 18.9609 15.4142 18.5858C15.0391 18.2107 14.5304 18 14 18C13.4696 18 12.9609 18.2107 12.5858 18.5858C12.2107 18.9609 12 19.4696 12 20C12 20.5304 12.2107 21.0391 12.5858 21.4142C12.9609 21.7893 13.4696 22 14 22ZM16 26C16 26.5304 15.7893 27.0391 15.4142 27.4142C15.0391 27.7893 14.5304 28 14 28C13.4696 28 12.9609 27.7893 12.5858 27.4142C12.2107 27.0391 12 26.5304 12 26C12 25.4696 12.2107 24.9609 12.5858 24.5858C12.9609 24.2107 13.4696 24 14 24C14.5304 24 15.0391 24.2107 15.4142 24.5858C15.7893 24.9609 16 25.4696 16 26ZM20 22C20.5304 22 21.0391 21.7893 21.4142 21.4142C21.7893 21.0391 22 20.5304 22 20C22 19.4696 21.7893 18.9609 21.4142 18.5858C21.0391 18.2107 20.5304 18 20 18C19.4696 18 18.9609 18.2107 18.5858 18.5858C18.2107 18.9609 18 19.4696 18 20C18 20.5304 18.2107 21.0391 18.5858 21.4142C18.9609 21.7893 19.4696 22 20 22ZM22 26C22 26.5304 21.7893 27.0391 21.4142 27.4142C21.0391 27.7893 20.5304 28 20 28C19.4696 28 18.9609 27.7893 18.5858 27.4142C18.2107 27.0391 18 26.5304 18 26C18 25.4696 18.2107 24.9609 18.5858 24.5858C18.9609 24.2107 19.4696 24 20 24C20.5304 24 21.0391 24.2107 21.4142 24.5858C21.7893 24.9609 22 25.4696 22 26ZM26 22C26.5304 22 27.0391 21.7893 27.4142 21.4142C27.7893 21.0391 28 20.5304 28 20C28 19.4696 27.7893 18.9609 27.4142 18.5858C27.0391 18.2107 26.5304 18 26 18C25.4696 18 24.9609 18.2107 24.5858 18.5858C24.2107 18.9609 24 19.4696 24 20C24 20.5304 24.2107 21.0391 24.5858 21.4142C24.9609 21.7893 25.4696 22 26 22ZM34 11C34 9.67392 33.4732 8.40215 32.5355 7.46447C31.5979 6.52678 30.3261 6 29 6H11C9.67392 6 8.40215 6.52678 7.46447 7.46447C6.52678 8.40215 6 9.67392 6 11V29C6 30.3261 6.52678 31.5979 7.46447 32.5355C8.40215 33.4732 9.67392 34 11 34H29C30.3261 34 31.5979 33.4732 32.5355 32.5355C33.4732 31.5979 34 30.3261 34 29V11ZM8 14H32V29C32 29.7956 31.6839 30.5587 31.1213 31.1213C30.5587 31.6839 29.7956 32 29 32H11C10.2044 32 9.44129 31.6839 8.87868 31.1213C8.31607 30.5587 8 29.7956 8 29V14ZM11 8H29C29.7956 8 30.5587 8.31607 31.1213 8.87868C31.6839 9.44129 32 10.2044 32 11V12H8V11C8 10.2044 8.31607 9.44129 8.87868 8.87868C9.44129 8.31607 10.2044 8 11 8Z" fill="#484C52"/>
</g>
</svg>
