<svg width="40" height="40" viewBox="0 0 40 40" fill="none" xmlns="http://www.w3.org/2000/svg">
<g id="ant-design:number-outlined">
<path id="Vector" d="M34.0625 15.3906C34.2344 15.3906 34.375 15.25 34.375 15.0781V12.7344C34.375 12.5625 34.2344 12.4219 34.0625 12.4219H27.6562V5.9375C27.6562 5.76562 27.5156 5.625 27.3438 5.625H24.8438C24.6719 5.625 24.5312 5.76562 24.5312 5.9375V12.4219H15.625V5.9375C15.625 5.76562 15.4844 5.625 15.3125 5.625H12.8125C12.6406 5.625 12.5 5.76562 12.5 5.9375V12.4219H5.9375C5.76562 12.4219 5.625 12.5625 5.625 12.7344V15.0781C5.625 15.25 5.76562 15.3906 5.9375 15.3906H12.5V24.6094H5.9375C5.76562 24.6094 5.625 24.75 5.625 24.9219V27.2656C5.625 27.4375 5.76562 27.5781 5.9375 27.5781H12.5V34.0625C12.5 34.2344 12.6406 34.375 12.8125 34.375H15.3125C15.4844 34.375 15.625 34.2344 15.625 34.0625V27.5781H24.5312V34.0625C24.5312 34.2344 24.6719 34.375 24.8438 34.375H27.3438C27.5156 34.375 27.6562 34.2344 27.6562 34.0625V27.5781H34.0625C34.2344 27.5781 34.375 27.4375 34.375 27.2656V24.9219C34.375 24.75 34.2344 24.6094 34.0625 24.6094H27.6562V15.3906H34.0625ZM24.5312 24.6094H15.625V15.3906H24.5312V24.6094Z" fill="#484C52"/>
</g>
</svg>
