<svg width="39" height="38" viewBox="0 0 39 38" fill="none" xmlns="http://www.w3.org/2000/svg">
<g id="user 1" clip-path="url(#clip0_25_14563)">
<path id="Vector" d="M25.5952 21.8993H12.9468C10.8911 21.9018 8.92029 22.7195 7.46668 24.1731C6.01308 25.6267 5.19535 27.5975 5.19287 29.6532V37.5417H33.3491V29.6532C33.3466 27.5975 32.5289 25.6267 31.0753 24.1731C29.6217 22.7195 27.6509 21.9018 25.5952 21.8993Z" fill="white"/>
<path id="Vector_2" d="M19.2707 18.7708C24.4541 18.7708 28.6561 14.5688 28.6561 9.38542C28.6561 4.20199 24.4541 0 19.2707 0C14.0872 0 9.88525 4.20199 9.88525 9.38542C9.88525 14.5688 14.0872 18.7708 19.2707 18.7708Z" fill="white"/>
</g>
<defs>
<clipPath id="clip0_25_14563">
<rect width="37.5417" height="37.5417" fill="white" transform="translate(0.5)"/>
</clipPath>
</defs>
</svg>
