<svg width="24" height="24" viewBox="0 0 24 24" fill="none" xmlns="http://www.w3.org/2000/svg">
<g id="eva:edit-2-fill">
<g id="evaEdit2Fill0">
<g id="evaEdit2Fill1">
<path id="evaEdit2Fill2" d="M19.0001 20H5.00005C4.73484 20 4.48048 20.1054 4.29295 20.2929C4.10541 20.4804 4.00005 20.7348 4.00005 21C4.00005 21.2652 4.10541 21.5196 4.29295 21.7071C4.48048 21.8947 4.73484 22 5.00005 22H19.0001C19.2653 22 19.5196 21.8947 19.7072 21.7071C19.8947 21.5196 20.0001 21.2652 20.0001 21C20.0001 20.7348 19.8947 20.4804 19.7072 20.2929C19.5196 20.1054 19.2653 20 19.0001 20ZM5.00005 18H5.09005L9.26005 17.62C9.71685 17.5745 10.1441 17.3732 10.4701 17.05L19.4701 8.05001C19.8194 7.68098 20.0082 7.18852 19.995 6.68055C19.9819 6.17257 19.768 5.69052 19.4001 5.34001L16.6601 2.60001C16.3024 2.26411 15.8338 2.07137 15.3434 2.05846C14.8529 2.04556 14.3748 2.21338 14.0001 2.53001L5.00005 11.53C4.67682 11.856 4.47556 12.2832 4.43005 12.74L4.00005 16.91C3.98658 17.0565 4.00559 17.2041 4.05571 17.3424C4.10584 17.4807 4.18585 17.6062 4.29005 17.71C4.38349 17.8027 4.49431 17.876 4.61615 17.9258C4.73798 17.9755 4.86845 18.0008 5.00005 18ZM15.2701 4.00001L18.0001 6.73001L16.0001 8.68001L13.3201 6.00001L15.2701 4.00001Z" fill="#424242"/>
</g>
</g>
</g>
</svg>
