<svg width="25" height="24" viewBox="0 0 25 24" fill="none" xmlns="http://www.w3.org/2000/svg">
<g id="eva:email-fill">
<g id="evaEmailFill0">
<g id="evaEmailFill1">
<path id="evaEmailFill2" d="M19.5 4H5.5C4.70435 4 3.94129 4.31607 3.37868 4.87868C2.81607 5.44129 2.5 6.20435 2.5 7V17C2.5 17.7956 2.81607 18.5587 3.37868 19.1213C3.94129 19.6839 4.70435 20 5.5 20H19.5C20.2956 20 21.0587 19.6839 21.6213 19.1213C22.1839 18.5587 22.5 17.7956 22.5 17V7C22.5 6.20435 22.1839 5.44129 21.6213 4.87868C21.0587 4.31607 20.2956 4 19.5 4ZM19.5 6L13 10.47C12.848 10.5578 12.6755 10.604 12.5 10.604C12.3245 10.604 12.152 10.5578 12 10.47L5.5 6H19.5Z" fill="#424242"/>
</g>
</g>
</g>
</svg>
