<svg width="25" height="24" viewBox="0 0 25 24" fill="none" xmlns="http://www.w3.org/2000/svg">
<g id="fluent:eye-28-filled">
<path id="Vector" d="M22.148 13.7143H22.1531H22.1445H22.148ZM21.5445 13.2686C21.6303 13.5412 21.8763 13.7126 22.148 13.7143C22.208 13.7143 22.2748 13.6972 22.3417 13.68C22.676 13.5772 22.8645 13.2086 22.7531 12.8743C22.7274 12.7972 20.156 5.14288 12.5 5.14288C4.84397 5.14288 2.27169 12.7972 2.24597 12.8743C2.13455 13.2086 2.32312 13.5686 2.6574 13.68C3.00026 13.7915 3.36026 13.6029 3.47169 13.2686L3.47426 13.2643C3.58826 12.93 5.82026 6.4286 12.5085 6.4286C19.2303 6.4286 21.4503 12.9857 21.5445 13.2686ZM8.21426 13.7143C8.21426 12.5777 8.66579 11.4876 9.46952 10.6839C10.2732 9.88013 11.3633 9.4286 12.5 9.4286C13.6366 9.4286 14.7267 9.88013 15.5304 10.6839C16.3342 11.4876 16.7857 12.5777 16.7857 13.7143C16.7857 14.851 16.3342 15.941 15.5304 16.7448C14.7267 17.5485 13.6366 18 12.5 18C11.3633 18 10.2732 17.5485 9.46952 16.7448C8.66579 15.941 8.21426 14.851 8.21426 13.7143Z" fill="#424242"/>
</g>
</svg>
