<svg width="24" height="24" viewBox="0 0 24 24" fill="none" xmlns="http://www.w3.org/2000/svg">
<g id="fluent:fax-20-filled">
<path id="Vector" d="M5.99961 5.39998C5.99961 4.92259 6.18925 4.46475 6.52682 4.12718C6.86438 3.78962 7.32222 3.59998 7.79961 3.59998H16.1996C16.677 3.59998 17.1348 3.78962 17.4724 4.12718C17.81 4.46475 17.9996 4.92259 17.9996 5.39998V8.39998H16.7996V5.39998C16.7996 5.24085 16.7364 5.08823 16.6239 4.97571C16.5114 4.86319 16.3587 4.79998 16.1996 4.79998H7.79961C7.64048 4.79998 7.48787 4.86319 7.37535 4.97571C7.26282 5.08823 7.19961 5.24085 7.19961 5.39998V9.59998H13.7996C13.4094 10.1189 13.1987 10.7507 13.1996 11.4V18.6C13.1996 19.2756 13.4228 19.8984 13.7996 20.4H5.39961C4.92222 20.4 4.46438 20.2103 4.12682 19.8728C3.78925 19.5352 3.59961 19.0774 3.59961 18.6V12C3.59961 11.3635 3.85247 10.753 4.30255 10.3029C4.75264 9.85283 5.36309 9.59998 5.99961 9.59998V5.39998ZM7.49961 12.75C7.49961 12.5511 7.42059 12.3603 7.27994 12.2196C7.13929 12.079 6.94852 12 6.74961 12C6.5507 12 6.35993 12.079 6.21928 12.2196C6.07863 12.3603 5.99961 12.5511 5.99961 12.75C5.99961 12.9489 6.07863 13.1397 6.21928 13.2803C6.35993 13.421 6.5507 13.5 6.74961 13.5C6.94852 13.5 7.13929 13.421 7.27994 13.2803C7.42059 13.1397 7.49961 12.9489 7.49961 12.75ZM7.49961 15.45C7.49961 15.2511 7.42059 15.0603 7.27994 14.9196C7.13929 14.779 6.94852 14.7 6.74961 14.7C6.5507 14.7 6.35993 14.779 6.21928 14.9196C6.07863 15.0603 5.99961 15.2511 5.99961 15.45C5.99961 15.6489 6.07863 15.8397 6.21928 15.9803C6.35993 16.121 6.5507 16.2 6.74961 16.2C6.94852 16.2 7.13929 16.121 7.27994 15.9803C7.42059 15.8397 7.49961 15.6489 7.49961 15.45ZM9.44961 14.85C9.2507 14.85 9.05993 14.929 8.91928 15.0696C8.77863 15.2103 8.69961 15.4011 8.69961 15.6C8.69961 15.7989 8.77863 15.9897 8.91928 16.1303C9.05993 16.271 9.2507 16.35 9.44961 16.35C9.64852 16.35 9.83929 16.271 9.97994 16.1303C10.1206 15.9897 10.1996 15.7989 10.1996 15.6C10.1996 15.4011 10.1206 15.2103 9.97994 15.0696C9.83929 14.929 9.64852 14.85 9.44961 14.85ZM10.1996 12.75C10.1996 12.5511 10.1206 12.3603 9.97994 12.2196C9.83929 12.079 9.64852 12 9.44961 12C9.2507 12 9.05993 12.079 8.91928 12.2196C8.77863 12.3603 8.69961 12.5511 8.69961 12.75C8.69961 12.9489 8.77863 13.1397 8.91928 13.2803C9.05993 13.421 9.2507 13.5 9.44961 13.5C9.64852 13.5 9.83929 13.421 9.97994 13.2803C10.1206 13.1397 10.1996 12.9489 10.1996 12.75ZM16.1996 9.59998C15.7222 9.59998 15.2644 9.78962 14.9268 10.1272C14.5893 10.4647 14.3996 10.9226 14.3996 11.4V18.6C14.3996 19.0774 14.5893 19.5352 14.9268 19.8728C15.2644 20.2103 15.7222 20.4 16.1996 20.4H18.5996C19.077 20.4 19.5348 20.2103 19.8724 19.8728C20.21 19.5352 20.3996 19.0774 20.3996 18.6V11.4C20.3996 10.9226 20.21 10.4647 19.8724 10.1272C19.5348 9.78962 19.077 9.59998 18.5996 9.59998H16.1996Z" fill="#424242"/>
</g>
</svg>
