<svg width="31" height="31" viewBox="0 0 31 31" fill="none" xmlns="http://www.w3.org/2000/svg">
<g id="bell 1" clip-path="url(#clip0_19_6738)">
<path id="Vector" d="M9.78027 26.75C10.2648 27.8642 11.0643 28.8127 12.0805 29.4789C13.0966 30.1451 14.2852 30.4999 15.5003 30.4999C16.7153 30.4999 17.9039 30.1451 18.9201 29.4789C19.9362 28.8127 20.7357 27.8642 21.2203 26.75H9.78027Z" fill="#0B6BB6"/>
<path id="Vector_2" d="M28.4898 16.1862L26.3198 9.03247C25.6249 6.53041 24.114 4.33219 22.0271 2.78685C19.9402 1.24151 17.3969 0.43762 14.8009 0.502821C12.2049 0.568021 9.70517 1.49857 7.69847 3.14673C5.69178 4.79489 4.29319 7.06618 3.72476 9.59997L2.03976 16.5212C1.8158 17.4409 1.80367 18.3995 2.00427 19.3245C2.20488 20.2496 2.61298 21.117 3.19779 21.8613C3.78259 22.6056 4.52882 23.2074 5.38016 23.6212C6.23149 24.035 7.16569 24.25 8.11226 24.25H22.5085C23.4844 24.25 24.4468 24.0215 25.3185 23.5828C26.1903 23.144 26.9471 22.5072 27.5285 21.7234C28.1099 20.9396 28.4997 20.0305 28.6666 19.0689C28.8335 18.1074 28.773 17.1201 28.4898 16.1862Z" fill="#0B6BB6"/>
</g>
<defs>
<clipPath id="clip0_19_6738">
<rect width="30" height="30" fill="white" transform="translate(0.5 0.5)"/>
</clipPath>
</defs>
</svg>
