<svg width="40" height="41" viewBox="0 0 40 41" fill="none" xmlns="http://www.w3.org/2000/svg">
<g id="mdi:twitter">
<path id="Vector" d="M37.4331 10.2499C36.1497 10.8478 34.7664 11.2408 33.3331 11.4287C34.7997 10.5233 35.9331 9.08825 36.4664 7.36284C35.0831 8.217 33.5497 8.81492 31.9331 9.15659C30.6164 7.68742 28.7664 6.83325 26.6664 6.83325C22.7497 6.83325 19.5497 10.1133 19.5497 14.162C19.5497 14.7428 19.6164 15.3066 19.7331 15.8362C13.7997 15.5287 8.51641 12.6074 4.99974 8.18284C4.38307 9.25909 4.03307 10.5233 4.03307 11.8558C4.03307 14.4012 5.28307 16.6562 7.21641 17.9374C6.03307 17.9374 4.93307 17.5958 3.96641 17.0833V17.1345C3.96641 20.6878 6.43307 23.6603 9.69974 24.3266C8.65095 24.6208 7.5499 24.6617 6.48307 24.4462C6.93575 25.9025 7.8223 27.1768 9.0181 28.0899C10.2139 29.0031 11.6588 29.5091 13.1497 29.537C10.6225 31.5877 7.48973 32.6962 4.26641 32.6803C3.69974 32.6803 3.13307 32.6462 2.56641 32.5778C5.73307 34.662 9.49974 35.8749 13.5331 35.8749C26.6664 35.8749 33.8831 24.7024 33.8831 15.0162C33.8831 14.6916 33.8831 14.3841 33.8664 14.0595C35.2664 13.0345 36.4664 11.7362 37.4331 10.2499Z" fill="#424242"/>
</g>
</svg>
