<svg width="40" height="40" viewBox="0 0 40 40" fill="none" xmlns="http://www.w3.org/2000/svg">
<g id="ri:youtube-fill">
<path id="Vector" d="M20.4063 6.66675C21.2963 6.67175 23.523 6.69341 25.8897 6.78841L26.7297 6.82508C29.1113 6.93675 31.4913 7.13008 32.673 7.45841C34.248 7.90175 35.4847 9.19175 35.903 10.8284C36.5697 13.4284 36.653 18.4984 36.663 19.7267L36.6647 19.9801V20.2701C36.653 21.4984 36.5697 26.5701 35.903 29.1684C35.4797 30.8101 34.2413 32.1017 32.673 32.5384C31.4913 32.8667 29.1113 33.0601 26.7297 33.1717L25.8897 33.2101C23.523 33.3034 21.2963 33.3267 20.4063 33.3301L20.0147 33.3317H19.5897C17.7063 33.3201 9.82967 33.2351 7.32301 32.5384C5.74967 32.0951 4.51134 30.8051 4.09301 29.1684C3.42634 26.5684 3.34301 21.4984 3.33301 20.2701V19.7267C3.34301 18.4984 3.42634 13.4267 4.09301 10.8284C4.51634 9.18675 5.75467 7.89508 7.32467 7.46008C9.82967 6.76175 17.708 6.67675 19.5913 6.66675H20.4063ZM16.6647 14.1667V25.8334L26.6647 20.0001L16.6647 14.1667Z" fill="#424242"/>
</g>
</svg>
