<svg width="76" height="65" viewBox="0 0 76 65" fill="none" xmlns="http://www.w3.org/2000/svg">
<path id="Vector" d="M32.3129 18.724C31.9597 18.5078 31.5539 18.3881 31.1375 18.3774C30.7211 18.3667 30.3094 18.4654 29.9451 18.6631C29.5808 18.8609 29.2772 19.1506 29.0658 19.5022C28.8544 19.8537 28.7429 20.2543 28.7429 20.6623V44.2052C28.7429 44.6183 28.8571 45.0237 29.0735 45.3783C29.2898 45.7329 29.6003 46.0234 29.9718 46.219C30.3432 46.4145 30.7619 46.5078 31.1832 46.4889C31.6044 46.4699 32.0126 46.3395 32.3643 46.1115L51.0309 34.0018C51.3559 33.7908 51.6218 33.5033 51.8041 33.1658C51.9865 32.8282 52.0797 32.4512 52.075 32.0693C52.0704 31.6874 51.9681 31.3127 51.7776 30.9795C51.587 30.6463 51.3143 30.3651 50.9843 30.1618L32.3129 18.724ZM12.4096 0.0909042C9.31539 0.0909042 6.34793 1.29498 4.16001 3.43826C1.97208 5.58153 0.74292 8.48843 0.74292 11.5195V52.6623C0.74292 55.6934 1.97208 58.6003 4.16001 60.7436C6.34793 62.8868 9.31539 64.0909 12.4096 64.0909H63.7429C66.8371 64.0909 69.8046 62.8868 71.9925 60.7436C74.1804 58.6003 75.4096 55.6934 75.4096 52.6623V11.5195C75.4096 8.48843 74.1804 5.58153 71.9925 3.43826C69.8046 1.29498 66.8371 0.0909042 63.7429 0.0909042H12.4096ZM5.40959 11.5195C5.40959 9.70085 6.14709 7.95671 7.45984 6.67074C8.77259 5.38478 10.5531 4.66233 12.4096 4.66233H63.7429C65.5994 4.66233 67.3799 5.38478 68.6927 6.67074C70.0054 7.95671 70.7429 9.70085 70.7429 11.5195V52.6623C70.7429 54.481 70.0054 56.2251 68.6927 57.5111C67.3799 58.797 65.5994 59.5195 63.7429 59.5195H12.4096C10.5531 59.5195 8.77259 58.797 7.45984 57.5111C6.14709 56.2251 5.40959 54.481 5.40959 52.6623V11.5195Z" fill="#008043"/>
</svg>
