<svg width="44" height="44" viewBox="0 0 44 44" fill="none" xmlns="http://www.w3.org/2000/svg">
<g id="vscode-icons:file-type-powerpoint2">
<path id="Vector" d="M25.487 3.19138V7.128C30.162 7.15413 35.6029 7.07988 40.2738 7.15C41.1565 7.15 41.195 7.931 41.206 8.613C41.2803 16.7833 41.1881 25.1886 41.25 33.363C41.2335 33.6848 41.2417 34.8755 41.2321 35.2138C41.2019 36.3454 40.6354 36.3949 39.5037 36.4293C39.3223 36.4293 38.7887 36.4375 38.6128 36.4458C34.2389 36.4238 29.865 36.4334 25.487 36.4334V40.8086L2.75 37.3093V6.70038L25.487 3.19138Z" fill="#D33922"/>
<path id="Vector_2" d="M25.487 8.43974H39.9245V35.1147H25.487V31.625H35.9838V29.8719H25.487V27.6856H35.9838V25.9366H25.4912C25.4912 25.0786 25.4912 24.222 25.4829 23.3654C26.3417 23.6752 27.2588 23.7897 28.1674 23.7005C29.076 23.6113 29.9533 23.3207 30.7354 22.8497C31.5326 22.3259 32.1931 21.619 32.6616 20.7881C33.1302 19.9572 33.3933 19.0263 33.429 18.073C31.504 18.0592 29.5887 18.0647 27.6733 18.0647C27.6733 16.1617 27.6953 14.2601 27.6334 12.3612C26.9157 12.4987 26.1993 12.65 25.4857 12.8026V8.44112" fill="white"/>
<path id="Vector_3" d="M28.5534 11.4455C30.0449 11.539 31.4514 12.1719 32.5105 13.2262C33.5696 14.2805 34.2089 15.6841 34.3092 17.1751C32.3842 17.1971 30.4688 17.1889 28.5493 17.1889V11.4455" fill="#D33922"/>
<path id="Vector_4" d="M9.76271 14.7483C12.1373 14.8624 15.0152 13.8078 16.9842 15.5884C18.8693 17.8764 18.3702 22.0839 15.5762 23.452C14.5603 23.8543 13.459 23.9924 12.3752 23.8535C12.3752 25.564 12.367 27.2745 12.3752 28.9836C11.509 28.9094 10.6386 28.8351 9.77233 28.765C9.73246 24.09 9.72421 19.415 9.77233 14.74" fill="white"/>
<path id="Vector_5" d="M12.3652 17.1133C13.2273 17.0734 14.2902 16.9166 14.876 17.7251C15.1102 18.1654 15.2373 18.6546 15.2471 19.1532C15.2569 19.6518 15.1491 20.1456 14.9323 20.5948C14.4332 21.4954 13.3057 21.4088 12.4353 21.5133C12.3432 20.0475 12.3528 18.5831 12.3652 17.1133Z" fill="#D33922"/>
</g>
</svg>
