<svg width="40" height="40" viewBox="0 0 40 40" fill="none" xmlns="http://www.w3.org/2000/svg">
<g id="dashicons:money-alt">
<path id="Vector" d="M21.2 18C20.4 17.8 19.6 17.4 19 16.8C18.4 16.6 18.2 16 18.2 15.6C18.2 15.2 18.4 14.6 18.8 14.4C19.4 14 20 13.6 20.6 13.8C21.8 13.8 22.8 14.4 23.4 15.2L25.2 12.8C24.6 12.2 24 11.8 23.4 11.4C22.8 11 22 10.8 21.2 10.8V8H18.8V10.8C17.8 11 16.8 11.6 16 12.4C15.2 13.4 14.6 14.6 14.8 15.8C14.8 17 15.2 18.2 16 19C17 20 18.4 20.6 19.6 21.2C20.2 21.4 21 21.8 21.6 22.2C22 22.6 22.2 23.2 22.2 23.8C22.2 24.4 22 25 21.6 25.6C21 26.2 20.2 26.4 19.6 26.4C18.8 26.4 17.8 26.2 17.2 25.6C16.6 25.2 16 24.6 15.6 24L13.6 26.2C14.2 27 14.8 27.6 15.6 28.2C16.6 28.8 17.8 29.4 19 29.4V32H21.2V29C22.4 28.8 23.4 28.2 24.2 27.4C25.2 26.4 25.8 24.8 25.8 23.4C25.8 22.2 25.4 20.8 24.4 20C23.4 19 22.4 18.4 21.2 18ZM20 4C11.2 4 4 11.2 4 20C4 28.8 11.2 36 20 36C28.8 36 36 28.8 36 20C36 11.2 28.8 4 20 4ZM20 33.8C12.4 33.8 6.2 27.6 6.2 20C6.2 12.4 12.4 6.2 20 6.2C27.6 6.2 33.8 12.4 33.8 20C33.8 27.6 27.6 33.8 20 33.8Z" fill="#484C52"/>
</g>
</svg>
