<svg width="24" height="24" viewBox="0 0 24 24" fill="none" xmlns="http://www.w3.org/2000/svg">
<g id="fluent:call-48-filled">
<path id="Vector" d="M11.0475 3.447C10.6575 2.6675 9.8425 2.037 8.8415 2.1485C7.946 2.248 6.6165 2.581 5.71 3.673C4.7795 4.7945 4.4325 6.5435 5.147 9.164C5.91 11.9595 7.043 14.7155 8.4515 16.939C9.8495 19.1465 11.5715 20.9135 13.547 21.591C15.294 22.19 16.63 21.94 17.6045 21.282C18.5445 20.6475 19.0605 19.693 19.3275 19.032C19.6265 18.292 19.4295 17.5215 19.0395 16.9535L17.601 14.8615C17.2832 14.3992 16.8257 14.0509 16.2955 13.8676C15.7654 13.6843 15.1904 13.6757 14.655 13.843L12.667 14.4645C12.6042 14.486 12.5365 14.4886 12.4722 14.472C12.408 14.4554 12.35 14.4203 12.3055 14.371C11.4205 13.3345 10.429 11.889 10.1595 10.426C10.151 10.3869 10.1568 10.3461 10.176 10.311C10.4685 9.8195 10.9715 9.2625 11.4725 8.775C12.321 7.949 12.6425 6.636 12.0825 5.517L11.0475 3.447Z" fill="white"/>
</g>
</svg>
