<svg width="24" height="25" viewBox="0 0 24 25" fill="none" xmlns="http://www.w3.org/2000/svg">
<g id="icon / jam-icons / outline &#38; logos / arrow-right">
<path id="Vector" d="M15.586 11.1494L11.636 7.19935C11.4538 7.01075 11.353 6.75815 11.3553 6.49595C11.3576 6.23375 11.4628 5.98294 11.6482 5.79753C11.8336 5.61212 12.0844 5.50695 12.3466 5.50468C12.6088 5.5024 12.8614 5.60319 13.05 5.78535L18.707 11.4424C18.8002 11.535 18.8741 11.6452 18.9246 11.7665C18.9751 11.8878 19.001 12.0179 19.001 12.1494C19.001 12.2808 18.9751 12.4109 18.9246 12.5322C18.8741 12.6535 18.8002 12.7637 18.707 12.8564L13.05 18.5134C12.9578 18.6089 12.8474 18.685 12.7254 18.7375C12.6034 18.7899 12.4722 18.8174 12.3394 18.8186C12.2066 18.8198 12.0749 18.7945 11.952 18.7442C11.8291 18.6939 11.7175 18.6196 11.6236 18.5257C11.5297 18.4319 11.4555 18.3202 11.4052 18.1973C11.3549 18.0744 11.3296 17.9427 11.3307 17.8099C11.3319 17.6772 11.3595 17.5459 11.4119 17.4239C11.4643 17.3019 11.5405 17.1916 11.636 17.0994L15.586 13.1494H6C5.73478 13.1494 5.48043 13.044 5.29289 12.8565C5.10536 12.6689 5 12.4146 5 12.1494C5 11.8841 5.10536 11.6298 5.29289 11.4422C5.48043 11.2547 5.73478 11.1494 6 11.1494H15.586Z" fill="white"/>
</g>
</svg>
