<svg width="44" height="44" viewBox="0 0 44 44" fill="none" xmlns="http://www.w3.org/2000/svg">
<g id="vscode-icons:file-type-word">
<path id="Vector" d="M39.6083 4.125H13.3445C13.1292 4.12482 12.9161 4.16704 12.7172 4.24924C12.5182 4.33144 12.3374 4.45201 12.1851 4.60408C12.0328 4.75615 11.9119 4.93673 11.8294 5.13551C11.7469 5.3343 11.7043 5.54739 11.7041 5.76263V13.0625L26.924 17.5313L41.2501 13.0625V5.76263C41.2499 5.54727 41.2073 5.33407 41.1247 5.1352C41.0421 4.93632 40.9211 4.75568 40.7686 4.6036C40.6161 4.45151 40.4352 4.33096 40.2361 4.24884C40.037 4.16672 39.8237 4.12464 39.6083 4.125Z" fill="#41A5EE"/>
<path id="Vector_2" d="M41.2501 13.0625H11.7041V22L26.924 24.6813L41.2501 22V13.0625Z" fill="#2B7CD3"/>
<path id="Vector_3" d="M11.7041 22V30.9375L26.0289 32.725L41.2501 30.9375V22H11.7041Z" fill="#185ABD"/>
<path id="Vector_4" d="M13.3445 39.875H39.607C39.8224 39.8755 40.0359 39.8336 40.2351 39.7516C40.4344 39.6695 40.6155 39.549 40.7681 39.3969C40.9207 39.2448 41.0418 39.0641 41.1245 38.8651C41.2073 38.6662 41.2499 38.4528 41.2501 38.2374V30.9375H11.7041V38.2374C11.7043 38.4526 11.7469 38.6657 11.8294 38.8645C11.9119 39.0633 12.0328 39.2439 12.1851 39.3959C12.3374 39.548 12.5182 39.6686 12.7172 39.7508C12.9161 39.833 13.1292 39.8752 13.3445 39.875Z" fill="#103F91"/>
<path id="Vector_5" opacity="0.1" d="M22.5969 11.275H11.7041V33.6187H22.5969C23.0309 33.6166 23.4466 33.4435 23.7539 33.137C24.0612 32.8304 24.2354 32.4152 24.2386 31.9811V12.9126C24.2354 12.4786 24.0612 12.0633 23.7539 11.7568C23.4466 11.4502 23.0309 11.2772 22.5969 11.275Z" fill="black"/>
<path id="Vector_6" opacity="0.2" d="M21.7017 12.1687H11.7041V34.5125H21.7017C22.1358 34.5103 22.5515 34.3372 22.8588 34.0307C23.1661 33.7242 23.3402 33.3089 23.3435 32.8749V13.8064C23.3402 13.3723 23.1661 12.9571 22.8588 12.6505C22.5515 12.344 22.1358 12.1709 21.7017 12.1687Z" fill="black"/>
<path id="Vector_7" opacity="0.2" d="M21.7017 12.1687H11.7041V32.725H21.7017C22.1358 32.7228 22.5515 32.5497 22.8588 32.2432C23.1661 31.9367 23.3402 31.5214 23.3435 31.0874V13.8064C23.3402 13.3723 23.1661 12.9571 22.8588 12.6505C22.5515 12.344 22.1358 12.1709 21.7017 12.1687Z" fill="black"/>
<path id="Vector_8" opacity="0.2" d="M20.8066 12.1687H11.7041V32.725H20.8066C21.2406 32.7228 21.6564 32.5497 21.9637 32.2432C22.271 31.9367 22.4451 31.5214 22.4484 31.0874V13.8064C22.4451 13.3723 22.271 12.9571 21.9637 12.6505C21.6564 12.344 21.2406 12.1709 20.8066 12.1687Z" fill="black"/>
<path id="Vector_9" d="M4.39175 12.1687H20.8065C21.2413 12.1684 21.6585 12.3407 21.9663 12.6477C22.2742 12.9548 22.4475 13.3716 22.4482 13.8064V30.1936C22.4475 30.6284 22.2742 31.0452 21.9663 31.3523C21.6585 31.6593 21.2413 31.8316 20.8065 31.8312H4.39175C4.1764 31.8316 3.96309 31.7895 3.76401 31.7074C3.56492 31.6253 3.38398 31.5047 3.23151 31.3527C3.07904 31.2006 2.95804 31.0199 2.87542 30.8211C2.7928 30.6222 2.75018 30.409 2.75 30.1936V13.8064C2.75018 13.591 2.7928 13.3778 2.87542 13.1789C2.95804 12.9801 3.07904 12.7994 3.23151 12.6473C3.38398 12.4953 3.56492 12.3747 3.76401 12.2926C3.96309 12.2105 4.1764 12.1684 4.39175 12.1687Z" fill="url(#paint0_linear_22_118)"/>
<path id="Vector_10" d="M9.72625 25.0685C9.75787 25.3215 9.77988 25.5415 9.7895 25.7299H9.828C9.84175 25.5511 9.872 25.3353 9.91738 25.0836C9.96275 24.832 10.0026 24.6189 10.0397 24.4443L11.7654 17.0096H13.9984L15.7859 24.3329C15.89 24.7859 15.9644 25.2452 16.0086 25.7079H16.0389C16.0717 25.2575 16.1337 24.8096 16.2245 24.3673L17.6531 17H19.684L17.176 27.6535H14.8014L13.1005 20.6052C13.051 20.4017 12.9951 20.1368 12.9328 19.8105C12.8704 19.4842 12.8319 19.2458 12.8172 19.0955H12.7884C12.7691 19.2688 12.7306 19.5259 12.6729 19.8669C12.6151 20.2093 12.5697 20.4609 12.5354 20.6259L10.9363 27.6576H8.52175L6 17.0096H8.0625L9.61762 24.4594C9.66404 24.6605 9.70029 24.8638 9.72625 25.0685Z" fill="white"/>
</g>
<defs>
<linearGradient id="paint0_linear_22_118" x1="6.17925" y1="10.8817" x2="19.019" y2="33.1182" gradientUnits="userSpaceOnUse">
<stop stop-color="#2368C4"/>
<stop offset="0.5" stop-color="#1A5DBE"/>
<stop offset="1" stop-color="#1146AC"/>
</linearGradient>
</defs>
</svg>
